<svg id="svg" version="1.1" xmlns="http://www.w3.org/2000/svg" xmlns:xlink="http://www.w3.org/1999/xlink" width="400" height="73.6" viewBox="0, 0, 400,73.6"><g id="svgg"><path id="path0" d="M30.667 0.193 C 29.613 0.273,28.488 0.372,28.167 0.414 C 27.846 0.457,27.002 0.539,26.292 0.597 C 25.581 0.655,25.000 0.761,25.000 0.832 C 25.000 0.903,24.344 1.015,23.542 1.080 C 22.740 1.146,22.008 1.259,21.917 1.332 C 21.825 1.404,21.281 1.516,20.708 1.581 C 20.135 1.646,19.624 1.767,19.573 1.850 C 19.522 1.932,19.197 2.000,18.851 2.000 C 18.505 2.000,18.166 2.056,18.097 2.125 C 18.029 2.194,17.622 2.336,17.195 2.441 C 16.767 2.546,16.005 2.746,15.503 2.885 C 15.000 3.024,14.531 3.103,14.461 3.059 C 14.391 3.016,14.333 3.060,14.333 3.157 C 14.333 3.254,14.146 3.333,13.917 3.333 C 13.688 3.333,13.500 3.408,13.500 3.500 C 13.500 3.592,13.331 3.667,13.125 3.668 C 12.919 3.668,12.558 3.769,12.322 3.892 C 12.087 4.015,11.674 4.177,11.406 4.252 C 11.137 4.328,10.879 4.406,10.833 4.425 C 10.787 4.445,10.581 4.516,10.375 4.584 C 10.169 4.651,10.000 4.772,10.000 4.853 C 10.000 4.934,9.915 5.000,9.810 5.000 C 9.553 5.000,6.472 6.525,6.197 6.789 C 6.075 6.905,5.625 7.205,5.197 7.455 C 4.768 7.706,4.258 8.081,4.064 8.289 C 3.870 8.497,3.662 8.667,3.600 8.667 C 3.441 8.667,2.431 9.717,2.399 9.917 C 2.385 10.008,2.101 10.370,1.770 10.720 C 1.438 11.070,1.121 11.539,1.066 11.762 C 1.010 11.984,0.897 12.167,0.815 12.167 C 0.734 12.167,0.667 12.302,0.667 12.467 C 0.667 12.632,0.573 12.860,0.458 12.975 C 0.153 13.281,0.153 60.219,0.458 60.525 C 0.573 60.640,0.667 60.868,0.667 61.033 C 0.667 61.198,0.734 61.333,0.815 61.333 C 0.897 61.333,1.011 61.521,1.068 61.750 C 1.126 61.979,1.247 62.167,1.337 62.167 C 1.426 62.167,1.500 62.279,1.500 62.417 C 1.500 62.554,1.556 62.667,1.625 62.668 C 1.694 62.668,1.938 62.949,2.167 63.291 C 2.583 63.913,3.436 64.833,3.596 64.833 C 3.643 64.833,3.884 65.023,4.132 65.255 C 4.642 65.731,7.942 67.833,8.180 67.833 C 8.265 67.833,8.614 67.983,8.956 68.167 C 9.299 68.350,9.673 68.500,9.789 68.500 C 9.905 68.500,10.000 68.557,10.000 68.626 C 10.000 68.777,10.725 69.104,11.417 69.264 C 11.692 69.327,11.992 69.437,12.083 69.508 C 12.175 69.579,12.531 69.689,12.875 69.754 C 13.219 69.818,13.500 69.937,13.500 70.019 C 13.500 70.100,13.688 70.167,13.917 70.167 C 14.146 70.167,14.333 70.236,14.333 70.321 C 14.333 70.406,14.746 70.528,15.250 70.591 C 15.754 70.654,16.167 70.766,16.167 70.841 C 16.167 70.965,17.923 71.274,18.208 71.199 C 18.277 71.181,18.333 71.242,18.333 71.333 C 18.333 71.425,18.581 71.500,18.883 71.500 C 19.186 71.500,19.505 71.570,19.592 71.656 C 19.759 71.820,21.137 72.068,23.542 72.367 C 24.344 72.466,25.000 72.612,25.000 72.690 C 25.000 72.769,25.488 72.833,26.083 72.833 C 26.679 72.833,27.167 72.892,27.167 72.964 C 27.167 73.036,27.298 73.099,27.458 73.105 C 27.619 73.110,29.287 73.209,31.167 73.325 C 35.706 73.605,48.830 73.516,49.207 73.202 C 49.349 73.085,49.514 72.726,49.574 72.406 C 49.634 72.086,49.755 71.868,49.842 71.922 C 49.929 71.976,50.000 71.828,50.000 71.593 C 50.000 71.359,50.072 71.167,50.159 71.167 C 50.247 71.167,50.367 70.904,50.428 70.583 C 50.488 70.262,50.595 70.000,50.667 70.000 C 50.738 70.000,50.845 69.737,50.906 69.417 C 50.966 69.096,51.081 68.833,51.161 68.833 C 51.241 68.833,51.356 68.609,51.416 68.335 C 51.476 68.061,51.595 67.794,51.679 67.742 C 52.138 67.459,51.836 66.641,51.292 66.692 C 50.994 66.720,50.712 66.790,50.667 66.847 C 50.533 67.014,42.731 67.397,39.917 67.375 C 36.139 67.345,29.876 67.018,29.500 66.831 C 29.363 66.763,28.444 66.653,27.458 66.587 C 26.473 66.522,25.625 66.400,25.573 66.317 C 25.522 66.234,25.152 66.167,24.750 66.167 C 24.348 66.167,23.972 66.090,23.914 65.996 C 23.856 65.901,23.720 65.838,23.612 65.855 C 23.219 65.918,21.333 65.620,21.333 65.495 C 21.333 65.425,20.808 65.314,20.167 65.250 C 19.525 65.186,19.000 65.065,19.000 64.983 C 19.000 64.901,18.779 64.833,18.510 64.833 C 18.240 64.833,17.972 64.756,17.914 64.662 C 17.856 64.568,17.720 64.505,17.612 64.522 C 17.505 64.539,17.304 64.512,17.167 64.463 C 17.029 64.414,16.467 64.240,15.917 64.077 C 15.367 63.915,14.654 63.667,14.333 63.527 C 14.012 63.387,13.619 63.282,13.458 63.293 C 13.298 63.304,13.167 63.261,13.167 63.197 C 13.167 63.133,12.923 62.977,12.625 62.850 C 12.327 62.723,11.769 62.480,11.384 62.310 C 11.000 62.139,10.606 62.000,10.509 62.000 C 10.412 62.000,10.333 61.932,10.333 61.848 C 10.333 61.765,10.013 61.542,9.623 61.352 C 9.232 61.163,8.538 60.669,8.081 60.255 C 7.624 59.840,7.199 59.501,7.136 59.501 C 7.074 59.500,6.970 59.331,6.905 59.125 C 6.841 58.919,6.705 58.697,6.603 58.631 C 6.488 58.558,6.398 57.760,6.369 56.548 C 6.342 55.467,6.380 54.660,6.452 54.755 C 6.524 54.849,6.921 55.072,7.333 55.250 C 7.746 55.428,8.121 55.614,8.167 55.662 C 8.212 55.710,8.550 55.890,8.917 56.061 C 9.283 56.232,9.782 56.476,10.026 56.603 C 10.269 56.730,10.588 56.833,10.734 56.833 C 10.880 56.833,11.000 56.902,11.000 56.985 C 11.000 57.069,11.300 57.188,11.667 57.250 C 12.033 57.312,12.333 57.431,12.333 57.515 C 12.333 57.598,12.516 57.667,12.740 57.667 C 12.964 57.667,13.194 57.743,13.252 57.836 C 13.309 57.929,13.421 57.965,13.500 57.917 C 13.579 57.868,13.691 57.904,13.748 57.997 C 13.806 58.090,14.074 58.167,14.343 58.167 C 14.613 58.167,14.833 58.231,14.833 58.311 C 14.833 58.390,15.182 58.502,15.608 58.561 C 16.034 58.619,16.466 58.733,16.567 58.813 C 16.667 58.893,17.012 59.004,17.333 59.061 C 17.654 59.117,18.067 59.200,18.250 59.245 C 19.038 59.436,20.332 59.703,21.417 59.898 C 22.058 60.013,22.696 60.152,22.833 60.206 C 23.214 60.358,24.848 60.584,26.875 60.766 C 27.585 60.829,28.167 60.933,28.167 60.996 C 28.167 61.059,28.260 61.116,28.375 61.123 C 28.490 61.129,29.952 61.191,31.625 61.260 C 33.298 61.329,34.667 61.451,34.667 61.530 C 34.667 61.901,51.681 61.370,52.075 60.987 C 52.162 60.903,52.663 60.833,53.189 60.833 C 54.307 60.833,55.000 60.612,55.000 60.254 C 55.000 60.114,55.075 60.000,55.167 60.000 C 55.258 60.000,55.333 59.813,55.333 59.583 C 55.333 59.354,55.408 59.167,55.500 59.167 C 55.592 59.167,55.669 59.073,55.672 58.958 C 55.675 58.844,55.823 58.450,56.000 58.083 C 56.177 57.717,56.325 57.285,56.328 57.125 C 56.331 56.965,56.408 56.833,56.500 56.833 C 56.592 56.833,56.667 56.721,56.667 56.583 C 56.667 56.446,56.742 56.333,56.833 56.333 C 56.925 56.333,56.990 56.277,56.978 56.208 C 56.932 55.950,57.213 55.000,57.336 55.000 C 57.556 55.000,57.684 54.168,57.510 53.869 C 57.418 53.712,57.341 53.667,57.338 53.770 C 57.335 53.885,56.743 54.003,55.793 54.077 C 54.946 54.144,54.140 54.257,54.001 54.330 C 53.777 54.447,51.144 54.715,49.958 54.740 C 49.706 54.746,49.500 54.806,49.500 54.875 C 49.500 54.944,48.717 55.000,47.760 55.000 C 46.780 55.000,45.975 55.073,45.917 55.167 C 45.851 55.272,43.752 55.333,40.167 55.333 C 36.582 55.333,34.482 55.272,34.417 55.167 C 34.359 55.073,33.554 55.000,32.573 55.000 C 31.616 55.000,30.833 54.936,30.833 54.858 C 30.833 54.779,29.879 54.662,28.712 54.598 C 27.545 54.533,26.543 54.403,26.485 54.309 C 26.427 54.215,26.350 54.156,26.315 54.177 C 26.131 54.288,23.167 53.952,23.167 53.821 C 23.167 53.736,22.917 53.667,22.611 53.667 C 22.306 53.667,21.999 53.610,21.931 53.542 C 21.862 53.473,21.756 53.410,21.694 53.402 C 21.633 53.395,21.115 53.329,20.542 53.256 C 19.969 53.183,19.500 53.066,19.500 52.995 C 19.500 52.924,19.050 52.814,18.500 52.750 C 17.950 52.686,17.532 52.582,17.572 52.519 C 17.611 52.456,17.446 52.388,17.206 52.368 C 16.965 52.348,16.719 52.251,16.657 52.152 C 16.596 52.053,16.479 51.976,16.398 51.981 C 15.982 52.008,15.000 51.772,15.000 51.645 C 15.000 51.565,14.843 51.500,14.650 51.500 C 14.458 51.500,14.045 51.387,13.734 51.250 C 13.422 51.112,12.912 50.887,12.600 50.750 C 12.288 50.612,11.951 50.500,11.850 50.500 C 11.749 50.500,11.667 50.426,11.667 50.337 C 11.667 50.247,11.460 50.122,11.208 50.060 C 10.956 49.998,10.470 49.771,10.128 49.557 C 9.786 49.342,9.447 49.167,9.374 49.167 C 9.301 49.167,9.110 49.013,8.949 48.826 C 8.789 48.639,8.573 48.538,8.470 48.602 C 8.366 48.666,8.323 48.650,8.373 48.567 C 8.424 48.485,8.360 48.320,8.233 48.202 C 8.105 48.084,8.000 48.034,8.000 48.091 C 8.000 48.298,6.633 46.740,6.485 46.364 C 6.213 45.672,6.293 42.667,6.583 42.667 C 6.721 42.667,6.833 42.724,6.833 42.794 C 6.833 42.930,6.971 43.010,8.356 43.686 C 10.025 44.500,10.814 44.833,11.074 44.833 C 11.217 44.833,11.333 44.907,11.333 44.998 C 11.333 45.089,11.633 45.211,12.000 45.269 C 12.367 45.328,12.667 45.441,12.667 45.521 C 12.667 45.601,12.854 45.667,13.083 45.667 C 13.313 45.667,13.500 45.729,13.500 45.806 C 13.500 45.882,13.594 45.953,13.708 45.963 C 14.511 46.036,15.314 46.230,15.248 46.336 C 15.206 46.405,15.582 46.513,16.085 46.576 C 16.588 46.639,17.000 46.760,17.000 46.845 C 17.000 46.930,17.300 47.000,17.667 47.000 C 18.033 47.000,18.333 47.069,18.333 47.153 C 18.333 47.238,18.821 47.359,19.417 47.423 C 20.012 47.487,20.500 47.590,20.500 47.652 C 20.500 47.714,20.744 47.783,21.042 47.805 C 21.340 47.827,22.033 47.920,22.583 48.013 C 23.133 48.106,23.958 48.242,24.417 48.316 C 24.875 48.390,25.363 48.499,25.500 48.559 C 25.732 48.660,26.951 48.786,31.250 49.155 C 32.167 49.234,34.135 49.306,35.625 49.316 C 37.115 49.325,38.333 49.390,38.333 49.458 C 38.333 49.599,41.613 49.594,42.000 49.452 C 42.137 49.402,44.189 49.320,46.558 49.271 C 48.927 49.221,50.952 49.113,51.058 49.029 C 51.164 48.946,52.067 48.827,53.065 48.766 C 54.064 48.704,55.015 48.581,55.179 48.493 C 55.344 48.405,55.783 48.333,56.156 48.333 C 56.528 48.333,56.833 48.269,56.833 48.191 C 56.833 48.112,57.452 47.996,58.207 47.933 C 58.963 47.870,59.653 47.747,59.741 47.659 C 59.828 47.572,60.061 47.500,60.257 47.500 C 60.502 47.500,60.714 47.304,60.932 46.875 C 61.107 46.531,61.299 46.212,61.360 46.166 C 61.420 46.120,61.522 45.801,61.587 45.458 C 61.651 45.114,61.752 44.832,61.810 44.831 C 61.912 44.830,62.139 44.367,62.747 42.917 C 62.901 42.550,63.205 41.877,63.423 41.422 C 63.717 40.806,63.767 40.561,63.618 40.466 C 63.339 40.289,62.333 40.301,62.333 40.481 C 62.333 40.562,61.977 40.682,61.542 40.747 C 61.106 40.811,60.675 40.922,60.583 40.993 C 60.492 41.063,60.042 41.168,59.583 41.225 C 58.681 41.338,58.385 41.398,58.000 41.546 C 57.722 41.653,57.340 41.720,54.917 42.093 C 53.029 42.383,50.694 42.633,49.335 42.691 C 48.830 42.712,48.301 42.785,48.160 42.852 C 48.018 42.919,46.767 42.995,45.378 43.019 C 43.989 43.043,42.890 43.124,42.936 43.198 C 42.982 43.273,41.740 43.333,40.177 43.333 C 38.613 43.333,37.333 43.269,37.333 43.190 C 37.333 43.112,36.231 43.032,34.884 43.013 C 33.537 42.995,32.356 42.930,32.259 42.870 C 32.162 42.810,31.558 42.742,30.917 42.718 C 28.936 42.644,27.333 42.462,27.333 42.311 C 27.333 42.232,27.277 42.181,27.208 42.197 C 26.919 42.269,23.903 41.952,23.750 41.835 C 23.598 41.718,22.934 41.582,21.833 41.444 C 21.604 41.416,21.304 41.347,21.167 41.292 C 21.029 41.237,20.692 41.151,20.417 41.103 C 19.329 40.909,18.016 40.572,17.900 40.456 C 17.833 40.388,17.607 40.333,17.399 40.333 C 17.190 40.333,16.976 40.263,16.923 40.177 C 16.870 40.091,16.678 40.049,16.496 40.084 C 16.315 40.119,16.167 40.093,16.167 40.027 C 16.167 39.960,15.810 39.805,15.375 39.681 C 14.484 39.428,13.799 39.156,12.583 38.575 C 12.125 38.356,11.544 38.128,11.292 38.070 C 11.040 38.012,10.833 37.897,10.833 37.815 C 10.833 37.734,10.746 37.667,10.640 37.667 C 10.458 37.667,8.991 36.793,8.547 36.420 C 8.436 36.327,8.233 36.156,8.096 36.042 C 7.959 35.927,7.786 35.833,7.711 35.833 C 7.515 35.833,7.050 35.258,6.665 34.540 C 6.299 33.857,6.162 30.500,6.500 30.500 C 6.592 30.500,6.667 30.587,6.667 30.694 C 6.667 30.801,6.714 30.841,6.773 30.783 C 6.831 30.724,7.075 30.814,7.315 30.983 C 7.554 31.152,7.919 31.342,8.125 31.406 C 8.331 31.470,8.500 31.592,8.500 31.678 C 8.500 31.763,8.612 31.833,8.749 31.833 C 9.080 31.833,10.333 32.381,10.333 32.526 C 10.333 32.589,10.577 32.688,10.875 32.746 C 11.419 32.853,11.570 32.908,12.692 33.400 C 13.027 33.547,13.458 33.667,13.650 33.667 C 13.843 33.667,14.000 33.735,14.000 33.818 C 14.000 33.901,14.375 34.020,14.833 34.083 C 15.291 34.146,15.708 34.266,15.760 34.349 C 15.811 34.432,16.032 34.500,16.250 34.500 C 16.468 34.500,16.696 34.579,16.755 34.675 C 16.815 34.772,16.950 34.822,17.055 34.787 C 17.161 34.752,17.566 34.820,17.957 34.937 C 18.347 35.055,18.667 35.108,18.667 35.055 C 18.667 35.002,18.768 35.043,18.892 35.146 C 19.016 35.249,19.581 35.382,20.147 35.441 C 20.714 35.500,21.217 35.613,21.265 35.691 C 21.313 35.769,21.562 35.833,21.818 35.833 C 22.074 35.833,22.501 35.906,22.767 35.995 C 23.033 36.084,23.850 36.230,24.583 36.319 C 25.798 36.466,26.693 36.584,27.833 36.746 C 28.063 36.779,28.798 36.812,29.468 36.820 C 30.138 36.827,30.645 36.900,30.595 36.981 C 30.353 37.373,49.566 37.418,49.822 37.027 C 49.874 36.947,50.889 36.829,52.078 36.764 C 53.267 36.699,54.317 36.586,54.412 36.512 C 54.506 36.439,55.212 36.328,55.980 36.267 C 56.748 36.205,57.512 36.083,57.677 35.994 C 57.843 35.906,58.283 35.833,58.656 35.833 C 59.028 35.833,59.333 35.768,59.333 35.688 C 59.333 35.608,59.858 35.491,60.500 35.428 C 61.142 35.365,61.667 35.253,61.667 35.179 C 61.667 35.104,61.985 34.992,62.375 34.928 C 63.672 34.716,64.430 34.539,64.917 34.333 C 65.100 34.256,65.585 34.093,65.993 33.971 C 66.598 33.791,66.801 33.625,67.077 33.083 C 67.264 32.717,67.492 32.362,67.583 32.294 C 67.681 32.223,67.684 32.171,67.592 32.169 C 67.505 32.168,67.523 32.077,67.633 31.967 C 67.743 31.857,67.833 31.626,67.833 31.455 C 67.833 31.283,67.946 31.030,68.083 30.893 C 68.221 30.755,68.333 30.498,68.333 30.321 C 68.333 30.145,68.408 30.000,68.500 30.000 C 68.592 30.000,68.667 29.886,68.667 29.748 C 68.667 29.609,68.739 29.365,68.827 29.206 C 69.117 28.684,69.667 27.355,69.667 27.176 C 69.667 27.079,69.742 27.000,69.833 27.000 C 69.925 27.000,70.000 26.854,70.000 26.677 C 70.000 26.499,70.070 26.310,70.156 26.257 C 70.823 25.844,70.068 25.355,69.359 25.741 C 68.398 26.263,66.640 27.023,66.340 27.045 C 66.166 27.058,66.055 27.120,66.093 27.183 C 66.132 27.246,65.893 27.348,65.561 27.410 C 65.230 27.472,64.837 27.584,64.688 27.659 C 64.045 27.980,63.541 28.150,62.917 28.253 C 62.550 28.314,62.175 28.421,62.083 28.491 C 61.992 28.562,61.692 28.665,61.417 28.720 C 61.142 28.776,60.392 28.943,59.750 29.092 C 57.679 29.574,56.124 29.849,54.235 30.067 C 53.218 30.185,52.317 30.324,52.231 30.377 C 52.145 30.430,51.589 30.492,50.996 30.514 C 50.402 30.537,49.863 30.636,49.798 30.736 C 49.614 31.015,30.968 30.988,30.875 30.708 C 30.828 30.567,30.410 30.500,29.569 30.500 C 28.822 30.500,28.333 30.431,28.333 30.326 C 28.333 30.230,28.240 30.168,28.125 30.189 C 27.728 30.258,24.916 29.960,24.750 29.830 C 24.658 29.759,24.002 29.646,23.292 29.580 C 22.581 29.515,22.000 29.395,22.000 29.314 C 22.000 29.233,21.712 29.167,21.361 29.167 C 21.010 29.167,20.666 29.110,20.597 29.042 C 20.528 28.973,20.422 28.910,20.361 28.902 C 19.097 28.730,18.500 28.598,18.500 28.491 C 18.500 28.417,18.087 28.306,17.583 28.243 C 17.079 28.180,16.667 28.062,16.667 27.981 C 16.667 27.900,16.479 27.833,16.250 27.833 C 16.021 27.833,15.833 27.758,15.833 27.667 C 15.833 27.575,15.777 27.511,15.708 27.524 C 15.428 27.579,14.167 27.281,14.167 27.160 C 14.167 27.088,13.866 26.979,13.499 26.917 C 13.132 26.855,12.874 26.735,12.926 26.652 C 12.977 26.568,12.865 26.500,12.677 26.500 C 12.488 26.500,12.333 26.438,12.333 26.361 C 12.333 26.285,12.240 26.221,12.125 26.220 C 11.927 26.218,10.834 25.717,10.060 25.275 C 8.458 24.358,6.559 22.620,6.439 21.961 C 6.396 21.724,6.280 21.378,6.180 21.192 C 6.081 21.007,6.000 20.592,6.000 20.271 C 6.000 19.949,5.925 19.640,5.833 19.583 C 5.742 19.527,5.667 19.039,5.667 18.500 C 5.667 17.961,5.742 17.473,5.833 17.417 C 5.925 17.360,6.000 17.096,6.000 16.829 C 6.000 15.896,7.242 13.500,7.726 13.500 C 7.809 13.500,7.999 13.367,8.147 13.204 C 8.584 12.725,10.650 11.521,12.250 10.815 C 12.925 10.517,13.500 10.498,13.500 10.774 C 13.500 11.102,14.057 12.333,14.206 12.333 C 14.276 12.333,14.333 12.450,14.333 12.592 C 14.333 12.841,14.661 13.658,15.333 15.083 C 15.506 15.450,15.805 16.125,15.996 16.583 C 16.188 17.042,16.417 17.547,16.506 17.706 C 16.594 17.865,16.667 18.109,16.667 18.248 C 16.667 18.386,16.742 18.500,16.833 18.500 C 16.925 18.500,17.000 18.582,17.000 18.683 C 17.000 18.784,17.104 19.103,17.232 19.391 C 17.597 20.216,17.722 20.573,17.693 20.708 C 17.679 20.777,17.742 20.833,17.833 20.833 C 17.925 20.833,18.000 20.983,18.000 21.167 C 18.000 21.350,18.075 21.500,18.167 21.500 C 18.258 21.500,18.333 21.582,18.333 21.681 C 18.333 21.911,19.266 23.936,19.499 24.211 C 20.220 25.064,20.606 25.392,21.083 25.561 C 22.399 26.024,23.833 26.167,23.833 25.833 C 23.833 25.742,24.066 25.667,24.350 25.667 C 24.813 25.667,25.556 25.417,26.373 24.986 C 26.532 24.902,26.757 24.833,26.873 24.832 C 26.989 24.832,27.289 24.724,27.541 24.593 C 27.792 24.461,28.337 24.303,28.751 24.241 C 29.165 24.179,29.545 24.062,29.595 23.981 C 29.645 23.900,29.944 23.833,30.260 23.833 C 30.575 23.833,30.833 23.766,30.833 23.684 C 30.833 23.602,31.527 23.476,32.375 23.403 C 34.247 23.242,34.034 23.277,34.333 23.081 C 34.748 22.809,46.147 22.865,46.317 23.140 C 46.392 23.262,46.483 23.345,46.519 23.324 C 46.704 23.217,49.500 23.552,49.500 23.682 C 49.500 23.765,49.758 23.833,50.073 23.833 C 50.389 23.833,50.688 23.900,50.738 23.981 C 50.788 24.061,51.242 24.179,51.748 24.243 C 52.253 24.306,52.667 24.420,52.667 24.497 C 52.667 24.574,52.967 24.688,53.333 24.750 C 53.700 24.812,54.000 24.931,54.000 25.015 C 54.000 25.098,54.138 25.167,54.306 25.167 C 54.474 25.167,54.663 25.219,54.727 25.283 C 54.854 25.409,55.130 25.484,55.960 25.617 C 56.259 25.664,56.544 25.770,56.595 25.852 C 56.713 26.043,58.500 26.046,58.500 25.855 C 58.500 25.775,58.773 25.666,59.106 25.612 C 59.836 25.494,61.204 24.146,61.498 23.257 C 61.602 22.941,61.870 22.323,62.093 21.883 C 62.316 21.443,62.499 20.990,62.499 20.875 C 62.500 20.760,62.567 20.667,62.648 20.667 C 62.730 20.667,62.845 20.404,62.906 20.083 C 62.966 19.762,63.087 19.500,63.174 19.500 C 63.262 19.500,63.333 19.350,63.333 19.167 C 63.333 18.983,63.408 18.833,63.500 18.833 C 63.592 18.833,63.654 18.777,63.639 18.708 C 63.589 18.476,63.868 17.667,64.000 17.667 C 64.071 17.667,64.179 17.404,64.239 17.083 C 64.299 16.763,64.420 16.500,64.508 16.500 C 64.595 16.500,64.667 16.418,64.667 16.317 C 64.667 16.144,64.748 15.939,65.397 14.475 C 65.545 14.140,65.667 13.784,65.667 13.683 C 65.667 13.582,65.742 13.500,65.833 13.500 C 65.925 13.500,66.000 13.354,66.000 13.177 C 66.000 12.999,66.069 12.810,66.154 12.758 C 66.238 12.706,66.357 12.439,66.417 12.165 C 66.477 11.891,66.582 11.667,66.651 11.667 C 66.719 11.667,66.844 11.385,66.929 11.042 C 67.097 10.364,67.604 10.252,68.180 10.765 C 68.325 10.894,68.553 11.000,68.688 11.000 C 68.823 11.000,69.005 11.069,69.092 11.153 C 69.179 11.238,69.662 11.521,70.167 11.784 C 70.671 12.046,71.308 12.405,71.583 12.581 C 72.355 13.075,74.000 14.855,74.000 15.195 C 74.000 15.363,74.066 15.500,74.147 15.500 C 74.228 15.500,74.334 15.650,74.382 15.833 C 74.465 16.151,74.609 16.167,77.401 16.167 L 80.333 16.167 80.336 15.208 C 80.338 14.293,79.733 11.981,79.460 11.861 C 79.390 11.831,79.333 11.699,79.333 11.569 C 79.333 11.440,79.258 11.333,79.167 11.333 C 79.075 11.333,79.000 11.233,79.000 11.111 C 79.000 10.989,78.794 10.693,78.542 10.455 C 77.887 9.835,77.577 9.443,77.625 9.295 C 77.648 9.224,77.573 9.164,77.458 9.161 C 77.344 9.158,76.914 8.821,76.502 8.411 C 76.091 8.002,75.660 7.667,75.544 7.667 C 75.428 7.667,75.333 7.603,75.333 7.526 C 75.333 7.449,75.052 7.243,74.708 7.068 C 74.365 6.893,74.046 6.707,74.000 6.654 C 73.954 6.601,73.692 6.443,73.417 6.304 C 72.465 5.821,71.750 5.416,71.667 5.313 C 71.621 5.255,71.340 5.156,71.042 5.091 C 70.744 5.026,70.500 4.900,70.500 4.810 C 70.500 4.720,70.430 4.690,70.345 4.743 C 70.260 4.796,70.142 4.761,70.083 4.667 C 70.025 4.572,69.907 4.538,69.822 4.590 C 69.736 4.643,69.667 4.610,69.667 4.517 C 69.667 4.424,69.385 4.297,69.042 4.234 C 68.698 4.171,68.269 4.018,68.088 3.893 C 67.907 3.769,67.593 3.667,67.389 3.667 C 67.186 3.667,66.973 3.592,66.917 3.500 C 66.860 3.408,66.631 3.333,66.407 3.333 C 66.183 3.333,66.000 3.265,66.000 3.182 C 66.000 3.099,65.625 2.980,65.167 2.917 C 64.709 2.854,64.294 2.738,64.245 2.659 C 64.196 2.580,63.709 2.465,63.162 2.403 C 62.614 2.341,62.167 2.233,62.167 2.163 C 62.167 2.029,61.848 1.959,59.792 1.644 C 59.081 1.535,58.500 1.392,58.500 1.326 C 58.500 1.260,57.788 1.153,56.917 1.088 C 56.046 1.022,55.292 0.901,55.240 0.818 C 55.189 0.735,54.739 0.667,54.240 0.667 C 53.741 0.667,53.333 0.610,53.333 0.540 C 53.333 0.470,53.127 0.402,52.875 0.389 C 52.623 0.376,51.218 0.283,49.753 0.183 C 46.682 -0.028,33.505 -0.020,30.667 0.193 M37.667 11.926 L 37.667 17.667 36.208 17.693 C 35.406 17.707,34.657 17.716,34.543 17.712 C 34.430 17.708,34.374 17.765,34.420 17.838 C 34.465 17.912,33.958 18.012,33.293 18.060 C 31.098 18.220,30.862 18.249,30.736 18.375 C 30.667 18.444,30.328 18.500,29.982 18.500 C 29.636 18.500,29.311 18.568,29.260 18.650 C 29.209 18.733,28.717 18.853,28.167 18.917 C 27.617 18.980,27.167 19.093,27.167 19.167 C 27.167 19.241,26.792 19.354,26.333 19.417 C 25.875 19.480,25.500 19.599,25.500 19.682 C 25.500 19.765,25.319 19.833,25.097 19.833 C 24.876 19.833,24.669 19.910,24.638 20.004 C 24.606 20.098,24.317 20.217,23.994 20.270 C 23.356 20.373,23.352 20.369,22.743 18.917 C 22.312 17.888,21.927 17.092,21.816 17.000 C 21.760 16.954,21.663 16.635,21.600 16.292 C 21.537 15.948,21.419 15.667,21.339 15.667 C 21.259 15.667,21.144 15.443,21.084 15.169 C 21.024 14.895,20.905 14.628,20.821 14.575 C 20.736 14.523,20.667 14.335,20.667 14.157 C 20.667 13.979,20.592 13.833,20.500 13.833 C 20.408 13.833,20.333 13.700,20.333 13.537 C 20.333 13.374,20.231 13.093,20.106 12.912 C 19.981 12.731,19.824 12.396,19.758 12.167 C 19.558 11.478,19.259 10.833,19.139 10.833 C 19.077 10.833,18.974 10.590,18.909 10.292 C 18.844 9.994,18.737 9.712,18.671 9.667 C 18.336 9.434,18.330 8.667,18.663 8.667 C 18.849 8.667,19.000 8.602,19.000 8.523 C 19.000 8.444,19.426 8.329,19.947 8.268 C 20.468 8.207,20.975 8.094,21.072 8.018 C 21.170 7.942,21.625 7.834,22.083 7.779 C 22.542 7.723,23.104 7.635,23.333 7.583 C 23.563 7.531,24.125 7.443,24.583 7.388 C 25.042 7.333,25.492 7.231,25.583 7.161 C 25.735 7.046,29.247 6.727,29.542 6.802 C 29.610 6.819,29.667 6.758,29.667 6.667 C 29.667 6.570,30.248 6.492,31.042 6.482 C 31.798 6.472,32.867 6.416,33.417 6.357 C 33.967 6.298,35.148 6.236,36.042 6.218 L 37.667 6.186 37.667 11.926 M48.042 6.428 C 49.577 6.494,50.833 6.602,50.833 6.669 C 50.833 6.736,51.733 6.844,52.833 6.910 C 53.933 6.976,54.833 7.098,54.833 7.181 C 54.833 7.265,55.204 7.333,55.657 7.333 C 56.110 7.333,56.526 7.407,56.582 7.497 C 56.638 7.588,56.848 7.660,57.050 7.658 C 57.817 7.650,59.167 7.882,59.167 8.021 C 59.167 8.101,59.223 8.153,59.292 8.136 C 59.609 8.057,61.500 8.383,61.500 8.516 C 61.500 8.599,61.688 8.667,61.917 8.667 C 62.304 8.667,62.493 8.901,62.208 9.028 C 61.985 9.127,61.500 10.125,61.500 10.484 C 61.500 10.676,61.425 10.833,61.333 10.833 C 61.242 10.833,61.167 10.923,61.167 11.032 C 61.167 11.141,60.932 11.722,60.645 12.323 C 60.357 12.925,60.062 13.567,59.987 13.750 C 59.866 14.050,59.441 15.022,58.713 16.667 C 58.571 16.987,58.240 17.706,57.977 18.263 C 57.715 18.820,57.500 19.364,57.500 19.472 C 57.500 19.579,57.425 19.667,57.333 19.667 C 57.242 19.667,57.167 19.826,57.167 20.022 C 57.167 20.404,55.991 20.388,55.862 20.004 C 55.831 19.910,55.624 19.833,55.403 19.833 C 55.181 19.833,55.000 19.765,55.000 19.681 C 55.000 19.598,54.811 19.550,54.579 19.576 C 54.348 19.601,54.118 19.557,54.069 19.478 C 54.020 19.398,53.835 19.333,53.657 19.333 C 53.479 19.333,53.333 19.263,53.333 19.177 C 53.333 19.091,52.808 18.968,52.167 18.905 C 51.525 18.842,51.000 18.725,51.000 18.645 C 51.000 18.565,50.700 18.500,50.333 18.500 C 49.967 18.500,49.667 18.434,49.667 18.353 C 49.667 18.272,49.329 18.210,48.917 18.214 C 48.504 18.219,48.117 18.172,48.056 18.111 C 47.994 18.050,47.544 18.000,47.056 18.000 C 46.567 18.000,46.167 17.925,46.167 17.833 C 46.167 17.733,45.500 17.667,44.500 17.667 L 42.833 17.667 42.833 11.925 L 42.833 6.184 44.042 6.246 C 44.706 6.280,46.506 6.362,48.042 6.428 M83.574 29.417 C 83.404 29.829,83.205 30.167,83.132 30.167 C 83.060 30.167,83.000 30.298,82.999 30.458 C 82.998 30.619,82.879 30.975,82.733 31.250 C 82.588 31.525,82.434 31.938,82.391 32.167 C 82.349 32.396,82.243 32.608,82.157 32.639 C 82.071 32.669,82.000 32.801,82.000 32.931 C 82.000 33.060,81.912 33.167,81.806 33.167 C 81.699 33.167,81.655 33.210,81.708 33.264 C 81.762 33.317,81.625 33.748,81.404 34.222 C 81.184 34.696,81.003 35.215,81.002 35.375 C 81.001 35.535,80.925 35.667,80.833 35.667 C 80.742 35.667,80.667 35.779,80.667 35.917 C 80.667 36.054,80.604 36.167,80.528 36.167 C 80.451 36.167,80.388 36.260,80.387 36.375 C 80.386 36.490,80.223 36.935,80.026 37.366 C 79.828 37.796,79.667 38.227,79.667 38.324 C 79.667 38.421,79.592 38.500,79.500 38.500 C 79.408 38.500,79.333 38.688,79.333 38.917 C 79.333 39.146,79.266 39.333,79.185 39.333 C 79.103 39.333,78.988 39.540,78.929 39.792 C 78.799 40.348,78.298 41.395,78.125 41.472 C 78.056 41.503,77.998 41.653,77.996 41.806 C 77.994 41.958,77.771 42.533,77.500 43.083 C 77.229 43.633,77.006 44.215,77.004 44.375 C 77.002 44.535,76.925 44.667,76.833 44.667 C 76.742 44.667,76.667 44.780,76.667 44.919 C 76.667 45.058,76.596 45.301,76.510 45.461 C 76.425 45.620,76.181 46.125,75.969 46.583 C 75.757 47.042,75.509 47.472,75.417 47.539 C 75.325 47.606,75.310 47.663,75.384 47.664 C 75.458 47.666,75.406 47.873,75.268 48.125 C 74.959 48.691,74.562 49.625,74.419 50.125 C 74.359 50.331,74.241 50.500,74.155 50.500 C 74.070 50.500,74.000 50.688,74.000 50.917 C 74.000 51.146,73.925 51.333,73.833 51.333 C 73.742 51.333,73.667 51.469,73.667 51.635 C 73.667 51.801,73.557 52.082,73.422 52.260 C 73.287 52.438,73.175 52.681,73.172 52.801 C 73.169 52.920,73.002 53.370,72.801 53.801 C 72.599 54.231,72.449 54.640,72.467 54.708 C 72.485 54.777,72.425 54.833,72.333 54.833 C 72.242 54.833,72.167 54.983,72.167 55.167 C 72.167 55.350,72.100 55.500,72.019 55.500 C 71.937 55.500,71.821 55.762,71.761 56.083 C 71.701 56.404,71.595 56.667,71.526 56.667 C 71.457 56.667,71.302 56.948,71.182 57.292 C 70.948 57.962,70.304 59.363,70.167 59.500 C 70.121 59.546,70.061 59.696,70.034 59.833 C 70.007 59.971,69.806 60.458,69.587 60.917 C 69.368 61.375,69.138 61.956,69.076 62.208 C 69.014 62.460,68.897 62.667,68.815 62.667 C 68.734 62.667,68.667 62.786,68.667 62.933 C 68.667 63.079,68.561 63.398,68.432 63.641 C 68.120 64.227,67.667 65.273,67.667 65.406 C 67.667 65.464,67.538 65.708,67.381 65.948 C 67.224 66.187,67.078 66.466,67.056 66.567 C 67.034 66.668,66.966 66.920,66.905 67.128 L 66.793 67.506 70.670 67.461 C 73.915 67.424,74.569 67.376,74.680 67.167 C 75.032 66.503,75.333 65.760,75.333 65.558 C 75.333 65.434,75.408 65.333,75.500 65.333 C 75.592 65.333,75.667 65.217,75.667 65.074 C 75.667 64.849,75.835 64.413,76.500 62.917 C 77.315 61.081,77.506 60.618,77.597 60.254 C 77.655 60.023,77.770 59.833,77.851 59.833 C 77.933 59.833,78.000 59.689,78.000 59.514 C 78.000 58.616,77.429 58.667,87.601 58.667 C 95.835 58.667,97.003 58.698,97.021 58.917 C 97.032 59.054,97.052 59.223,97.064 59.292 C 97.091 59.445,97.624 60.642,97.841 61.039 C 97.929 61.199,98.000 61.442,98.000 61.581 C 98.000 61.720,98.074 61.833,98.165 61.833 C 98.255 61.833,98.377 62.132,98.436 62.497 C 98.494 62.862,98.607 63.120,98.687 63.070 C 98.768 63.021,98.833 63.092,98.833 63.229 C 98.833 63.439,99.431 64.879,100.020 66.090 C 100.111 66.278,100.208 66.540,100.235 66.674 C 100.405 67.529,100.256 67.500,104.434 67.500 C 108.804 67.500,108.601 67.569,108.011 66.275 C 107.834 65.886,107.666 65.461,107.636 65.330 C 107.607 65.199,107.489 64.990,107.373 64.866 C 107.258 64.741,107.206 64.571,107.258 64.487 C 107.310 64.402,107.277 64.333,107.184 64.333 C 107.091 64.333,106.966 64.071,106.906 63.750 C 106.845 63.429,106.730 63.167,106.648 63.167 C 106.567 63.167,106.500 63.031,106.500 62.865 C 106.500 62.699,106.390 62.418,106.255 62.240 C 106.121 62.062,106.008 61.785,106.005 61.625 C 106.002 61.465,105.928 61.333,105.841 61.333 C 105.753 61.333,105.633 61.071,105.572 60.750 C 105.512 60.429,105.396 60.167,105.315 60.167 C 105.233 60.167,105.167 60.047,105.167 59.901 C 105.167 59.616,104.675 58.650,104.444 58.481 C 104.368 58.425,104.309 58.332,104.315 58.274 C 104.343 57.983,104.109 57.167,103.997 57.167 C 103.868 57.167,103.589 56.355,103.639 56.125 C 103.654 56.056,103.592 56.000,103.500 56.000 C 103.408 56.000,103.333 55.887,103.333 55.750 C 103.333 55.612,103.258 55.500,103.167 55.500 C 103.075 55.500,103.000 55.381,103.000 55.235 C 103.000 55.090,102.775 54.484,102.500 53.890 C 102.225 53.296,102.000 52.703,102.000 52.572 C 102.000 52.441,101.925 52.333,101.833 52.333 C 101.742 52.333,101.667 52.254,101.667 52.158 C 101.667 51.988,101.325 51.160,100.673 49.750 C 99.715 47.679,99.333 46.771,99.333 46.565 C 99.333 46.437,99.258 46.333,99.167 46.333 C 99.075 46.333,99.000 46.226,99.000 46.095 C 99.000 45.963,98.818 45.497,98.596 45.058 C 98.374 44.620,98.228 44.202,98.272 44.131 C 98.317 44.059,98.274 44.000,98.177 44.000 C 98.079 44.000,98.000 43.850,98.000 43.667 C 98.000 43.483,97.933 43.333,97.852 43.333 C 97.770 43.333,97.653 43.063,97.591 42.733 C 97.529 42.403,97.433 42.178,97.377 42.234 C 97.277 42.335,96.892 41.446,96.717 40.708 C 96.668 40.502,96.568 40.333,96.494 40.333 C 96.420 40.333,96.310 40.108,96.250 39.833 C 96.190 39.558,96.071 39.333,95.987 39.333 C 95.902 39.333,95.833 39.223,95.833 39.089 C 95.833 38.831,95.321 37.642,95.149 37.500 C 95.094 37.454,94.997 37.141,94.935 36.804 C 94.873 36.467,94.763 36.167,94.691 36.137 C 94.618 36.108,94.325 35.521,94.039 34.833 C 93.753 34.146,93.371 33.284,93.191 32.918 C 93.011 32.551,92.899 32.195,92.942 32.126 C 92.985 32.057,92.940 32.000,92.843 32.000 C 92.746 32.000,92.667 31.850,92.667 31.667 C 92.667 31.483,92.595 31.333,92.508 31.333 C 92.420 31.333,92.299 31.071,92.239 30.750 C 92.179 30.429,92.063 30.167,91.981 30.167 C 91.900 30.167,91.833 30.060,91.833 29.930 C 91.833 29.800,91.702 29.463,91.542 29.181 L 91.250 28.669 87.567 28.668 L 83.884 28.667 83.574 29.417 M111.667 48.073 L 111.667 67.500 115.500 67.500 L 119.333 67.500 119.333 61.917 L 119.333 56.333 124.125 56.335 L 128.917 56.336 129.333 57.023 C 129.563 57.400,129.834 57.854,129.937 58.031 C 130.040 58.209,130.276 58.528,130.462 58.742 C 130.647 58.955,130.849 59.288,130.911 59.482 C 130.972 59.675,131.092 59.833,131.178 59.833 C 131.263 59.833,131.333 59.946,131.333 60.083 C 131.333 60.221,131.398 60.333,131.478 60.333 C 131.557 60.333,131.821 60.633,132.064 61.000 C 132.306 61.367,132.464 61.667,132.413 61.667 C 132.363 61.667,132.478 61.835,132.670 62.042 C 132.861 62.248,133.359 62.936,133.775 63.570 C 134.192 64.204,134.638 64.828,134.766 64.957 C 134.895 65.085,135.000 65.298,135.000 65.429 C 135.000 65.560,135.056 65.667,135.125 65.668 C 135.194 65.668,135.512 66.080,135.833 66.583 L 136.417 67.498 140.448 67.499 C 144.675 67.500,144.946 67.451,144.331 66.794 C 144.137 66.586,143.817 66.154,143.620 65.833 C 143.423 65.512,143.166 65.151,143.048 65.030 C 142.930 64.909,142.833 64.737,142.833 64.649 C 142.833 64.560,142.680 64.322,142.493 64.119 C 141.969 63.549,140.333 61.182,140.333 60.992 C 140.333 60.899,140.221 60.780,140.083 60.727 C 139.946 60.674,139.833 60.576,139.833 60.509 C 139.833 60.376,138.429 58.230,137.519 56.973 C 137.210 56.546,136.972 56.147,136.990 56.086 C 137.007 56.025,136.878 55.849,136.701 55.696 C 136.118 55.188,136.081 54.694,136.616 54.563 C 136.873 54.500,137.121 54.404,137.167 54.349 C 137.305 54.185,137.897 53.830,138.208 53.726 C 138.369 53.672,138.500 53.562,138.500 53.481 C 138.500 53.400,138.576 53.333,138.668 53.333 C 138.960 53.333,141.499 50.915,141.500 50.637 C 141.500 50.575,141.594 50.422,141.708 50.297 C 142.012 49.965,142.329 49.459,142.441 49.125 C 142.495 48.965,142.597 48.833,142.667 48.833 C 142.738 48.833,142.846 48.496,142.908 48.083 C 142.970 47.671,143.091 47.333,143.177 47.333 C 143.263 47.333,143.333 47.146,143.333 46.917 C 143.333 46.688,143.390 46.500,143.458 46.500 C 143.809 46.499,143.881 38.655,143.532 38.538 C 143.423 38.502,143.333 38.291,143.333 38.069 C 143.333 37.848,143.258 37.667,143.167 37.667 C 143.075 37.667,143.000 37.529,143.000 37.360 C 143.000 36.977,142.037 35.028,141.633 34.594 C 141.468 34.416,141.333 34.219,141.333 34.155 C 141.333 33.807,138.573 31.333,138.184 31.333 C 138.083 31.333,138.000 31.260,138.000 31.170 C 138.000 31.080,137.813 30.959,137.583 30.902 C 137.354 30.844,137.167 30.730,137.167 30.649 C 137.167 30.567,137.054 30.500,136.917 30.500 C 136.779 30.500,136.667 30.421,136.667 30.323 C 136.667 30.226,136.610 30.182,136.541 30.225 C 136.471 30.268,136.128 30.163,135.778 29.993 C 135.428 29.823,134.810 29.634,134.404 29.573 C 133.998 29.512,133.667 29.396,133.667 29.314 C 133.667 29.233,133.457 29.167,133.200 29.167 C 132.943 29.167,132.640 29.073,132.525 28.958 C 132.364 28.797,129.973 28.738,121.992 28.698 L 111.667 28.646 111.667 48.073 M148.167 48.083 L 148.167 67.500 162.583 67.500 L 177.000 67.500 177.000 64.333 L 177.000 61.167 166.333 61.167 L 155.667 61.167 155.667 56.085 L 155.667 51.003 164.792 50.960 L 173.917 50.917 173.962 47.792 L 174.007 44.667 164.837 44.667 L 155.667 44.667 155.667 39.833 L 155.667 35.000 165.917 35.000 L 176.167 35.000 176.167 31.833 L 176.167 28.667 162.167 28.667 L 148.167 28.667 148.167 48.083 M181.000 48.083 L 181.000 67.500 184.833 67.500 L 188.667 67.500 188.672 54.875 L 188.676 42.250 189.130 42.757 C 189.849 43.561,190.744 44.690,190.816 44.883 C 190.852 44.981,191.039 45.215,191.232 45.405 C 191.793 45.956,192.667 47.130,192.667 47.333 C 192.667 47.436,192.742 47.473,192.833 47.417 C 192.925 47.360,193.000 47.406,193.000 47.518 C 193.000 47.630,193.113 47.841,193.251 47.986 C 193.754 48.514,194.424 49.311,194.750 49.768 C 194.933 50.025,195.196 50.353,195.333 50.496 C 195.471 50.639,195.845 51.092,196.164 51.503 C 196.484 51.914,196.840 52.349,196.956 52.470 C 197.072 52.591,197.167 52.765,197.167 52.856 C 197.167 52.947,197.395 53.214,197.674 53.448 C 197.953 53.683,198.143 53.912,198.098 53.958 C 198.052 54.003,198.218 54.245,198.466 54.495 C 198.957 54.990,199.562 55.717,200.083 56.440 C 200.267 56.694,200.529 57.019,200.667 57.162 C 200.804 57.305,201.177 57.759,201.496 58.170 C 201.814 58.580,202.119 58.954,202.172 59.000 C 202.226 59.046,202.377 59.240,202.510 59.432 C 202.782 59.828,203.898 61.185,204.455 61.799 C 204.660 62.024,204.779 62.286,204.721 62.380 C 204.660 62.479,204.697 62.501,204.808 62.433 C 204.913 62.367,205.000 62.390,205.000 62.484 C 205.000 62.577,205.164 62.807,205.365 62.994 C 205.565 63.180,205.674 63.333,205.606 63.333 C 205.538 63.333,205.658 63.502,205.872 63.708 C 206.087 63.915,206.521 64.421,206.837 64.833 C 207.153 65.246,207.488 65.668,207.581 65.771 C 207.674 65.875,207.862 66.128,208.000 66.335 C 208.773 67.498,208.782 67.500,212.207 67.500 L 215.333 67.500 215.333 48.083 L 215.333 28.667 211.583 28.667 L 207.833 28.667 207.833 41.365 L 207.833 54.062 207.339 53.589 C 207.068 53.329,206.876 53.066,206.914 53.004 C 206.952 52.943,206.856 52.782,206.700 52.647 C 206.544 52.512,206.229 52.153,206.000 51.849 C 205.771 51.545,205.377 51.078,205.125 50.809 C 204.873 50.541,204.667 50.287,204.667 50.246 C 204.667 50.169,204.108 49.487,203.696 49.061 C 203.575 48.936,203.525 48.833,203.586 48.833 C 203.646 48.833,203.432 48.578,203.110 48.265 C 202.788 47.953,202.556 47.666,202.594 47.628 C 202.632 47.590,202.439 47.344,202.165 47.082 C 201.891 46.819,201.667 46.543,201.667 46.469 C 201.667 46.394,201.367 46.033,201.000 45.667 C 200.633 45.300,200.333 44.938,200.333 44.862 C 200.333 44.787,200.146 44.549,199.917 44.333 C 199.688 44.118,199.500 43.873,199.500 43.789 C 199.500 43.706,199.240 43.362,198.922 43.027 C 198.604 42.691,198.328 42.342,198.310 42.250 C 198.291 42.158,198.025 41.840,197.718 41.542 C 197.412 41.244,197.216 41.000,197.284 41.000 C 197.352 41.000,197.166 40.779,196.870 40.509 C 196.575 40.240,196.333 39.958,196.333 39.883 C 196.333 39.808,196.162 39.560,195.954 39.332 C 195.745 39.103,195.391 38.654,195.166 38.333 C 194.942 38.012,194.588 37.613,194.379 37.446 C 194.171 37.279,194.000 37.067,194.000 36.975 C 194.000 36.883,193.775 36.583,193.500 36.308 C 193.225 36.033,193.000 35.742,193.000 35.662 C 193.000 35.582,192.747 35.269,192.439 34.966 C 192.130 34.664,191.826 34.252,191.763 34.050 C 191.701 33.849,191.507 33.639,191.333 33.583 C 191.159 33.528,190.971 33.339,190.915 33.162 C 190.859 32.986,190.574 32.593,190.282 32.290 C 189.989 31.986,189.563 31.460,189.333 31.120 C 189.104 30.780,188.860 30.502,188.792 30.501 C 188.723 30.501,188.667 30.415,188.667 30.311 C 188.667 30.207,188.488 29.956,188.269 29.753 C 188.051 29.551,187.821 29.224,187.758 29.026 C 187.646 28.674,187.578 28.667,184.322 28.667 L 181.000 28.667 181.000 48.083 M234.444 28.778 C 234.383 28.839,234.333 29.026,234.333 29.194 C 234.333 29.363,234.258 29.500,234.167 29.500 C 234.075 29.500,234.000 29.645,234.000 29.821 C 234.000 29.998,233.887 30.255,233.750 30.393 C 233.612 30.530,233.500 30.798,233.500 30.988 C 233.500 31.178,233.431 31.333,233.347 31.333 C 233.262 31.333,233.144 31.557,233.084 31.831 C 233.024 32.105,232.905 32.372,232.821 32.425 C 232.736 32.477,232.667 32.659,232.667 32.829 C 232.667 33.000,232.610 33.164,232.542 33.194 C 232.392 33.261,231.667 35.002,231.667 35.295 C 231.667 35.408,231.592 35.500,231.500 35.500 C 231.408 35.500,231.333 35.650,231.333 35.833 C 231.333 36.017,231.264 36.167,231.180 36.167 C 231.096 36.167,230.977 36.392,230.917 36.667 C 230.856 36.942,230.738 37.167,230.653 37.167 C 230.569 37.167,230.514 37.223,230.532 37.292 C 230.589 37.517,230.310 38.500,230.188 38.500 C 230.123 38.500,229.929 38.912,229.757 39.417 C 229.586 39.921,229.389 40.333,229.320 40.333 C 229.250 40.333,229.140 40.577,229.076 40.875 C 229.011 41.173,228.911 41.454,228.854 41.500 C 228.681 41.639,228.167 42.828,228.167 43.089 C 228.167 43.223,228.092 43.333,228.000 43.333 C 227.908 43.333,227.833 43.456,227.833 43.607 C 227.833 43.757,227.533 44.515,227.167 45.290 C 226.800 46.065,226.500 46.731,226.500 46.770 C 226.500 46.808,226.200 47.475,225.833 48.250 C 225.467 49.025,225.167 49.706,225.167 49.761 C 225.167 49.817,224.942 50.349,224.667 50.943 C 224.392 51.537,224.167 52.093,224.167 52.178 C 224.167 52.264,224.092 52.333,224.000 52.333 C 223.908 52.333,223.833 52.469,223.833 52.635 C 223.833 52.801,223.723 53.082,223.589 53.260 C 223.454 53.438,223.342 53.715,223.339 53.875 C 223.336 54.035,223.258 54.167,223.167 54.167 C 223.075 54.167,223.000 54.287,223.000 54.433 C 223.000 54.715,222.838 55.103,221.827 57.250 C 221.481 57.983,221.144 58.771,221.077 59.000 C 221.011 59.229,220.816 59.616,220.645 59.859 C 220.473 60.102,220.331 60.402,220.328 60.526 C 220.325 60.649,220.177 61.050,220.000 61.417 C 219.823 61.783,219.675 62.177,219.672 62.292 C 219.669 62.406,219.592 62.500,219.500 62.500 C 219.408 62.500,219.333 62.637,219.333 62.806 C 219.333 62.974,219.285 63.159,219.226 63.218 C 219.067 63.377,218.335 65.216,218.334 65.458 C 218.334 65.573,218.258 65.667,218.167 65.667 C 218.075 65.667,217.998 65.798,217.995 65.958 C 217.992 66.119,217.879 66.396,217.745 66.574 C 217.066 67.471,217.177 67.500,221.262 67.500 C 225.401 67.500,225.411 67.498,225.612 66.468 C 225.671 66.165,225.766 65.879,225.822 65.833 C 225.879 65.787,226.063 65.412,226.231 65.000 C 226.399 64.587,226.640 64.051,226.768 63.808 C 226.896 63.564,227.000 63.246,227.000 63.099 C 227.000 62.953,227.075 62.833,227.167 62.833 C 227.258 62.833,227.333 62.683,227.333 62.500 C 227.333 62.317,227.412 62.167,227.507 62.167 C 227.603 62.167,227.666 62.073,227.648 61.958 C 227.609 61.716,227.762 61.265,228.096 60.641 C 228.227 60.398,228.333 60.079,228.333 59.933 C 228.333 59.786,228.408 59.667,228.500 59.667 C 228.592 59.667,228.667 59.517,228.667 59.333 C 228.667 59.150,228.746 59.000,228.843 59.000 C 228.940 59.000,228.973 58.925,228.917 58.833 C 228.848 58.723,231.998 58.667,238.240 58.667 C 243.425 58.667,247.652 58.723,247.635 58.792 C 247.570 59.049,247.866 60.000,248.011 60.000 C 248.095 60.000,248.211 60.300,248.269 60.667 C 248.328 61.033,248.441 61.333,248.521 61.333 C 248.601 61.333,248.667 61.446,248.667 61.583 C 248.667 61.721,248.742 61.833,248.833 61.833 C 248.925 61.833,249.000 61.965,249.001 62.125 C 249.002 62.285,249.107 62.618,249.235 62.864 C 249.364 63.110,249.519 63.541,249.581 63.822 C 249.643 64.103,249.762 64.333,249.847 64.333 C 249.931 64.333,250.000 64.521,250.000 64.750 C 250.000 64.979,250.067 65.167,250.149 65.167 C 250.230 65.167,250.347 65.373,250.408 65.625 C 250.470 65.877,250.672 66.402,250.858 66.792 L 251.196 67.500 255.098 67.500 C 259.478 67.500,259.340 67.547,258.667 66.290 C 258.483 65.948,258.333 65.585,258.333 65.485 C 258.333 65.384,258.193 65.102,258.021 64.859 C 257.849 64.616,257.655 64.173,257.591 63.875 C 257.526 63.577,257.404 63.333,257.320 63.333 C 257.236 63.333,257.166 63.202,257.165 63.042 C 257.164 62.881,256.983 62.436,256.763 62.052 C 256.544 61.668,256.314 61.125,256.253 60.846 C 256.191 60.566,256.072 60.294,255.987 60.242 C 255.903 60.190,255.833 60.011,255.833 59.844 C 255.833 59.677,255.721 59.447,255.583 59.333 C 255.446 59.219,255.333 58.985,255.333 58.813 C 255.333 58.641,255.259 58.500,255.169 58.500 C 255.078 58.500,254.956 58.200,254.897 57.833 C 254.839 57.467,254.731 57.167,254.659 57.167 C 254.586 57.167,254.477 56.942,254.417 56.667 C 254.356 56.392,254.238 56.167,254.153 56.167 C 254.069 56.167,254.000 56.017,254.000 55.833 C 254.000 55.650,253.934 55.500,253.854 55.500 C 253.714 55.500,253.428 54.561,253.482 54.279 C 253.496 54.204,253.435 54.187,253.346 54.242 C 253.257 54.297,253.134 54.078,253.073 53.755 C 253.013 53.431,252.915 53.167,252.855 53.167 C 252.726 53.167,252.394 52.424,252.241 51.792 C 252.180 51.540,252.064 51.333,251.982 51.333 C 251.900 51.333,251.833 51.188,251.833 51.010 C 251.833 50.832,251.764 50.644,251.679 50.591 C 251.595 50.539,251.476 50.272,251.416 49.998 C 251.356 49.724,251.244 49.500,251.167 49.500 C 251.090 49.500,250.973 49.257,250.908 48.961 C 250.843 48.664,250.681 48.256,250.548 48.053 C 250.415 47.850,250.299 47.624,250.290 47.550 C 250.247 47.211,249.914 46.500,249.797 46.500 C 249.725 46.500,249.667 46.352,249.667 46.171 C 249.667 45.990,249.517 45.596,249.334 45.296 C 249.151 44.996,249.001 44.619,249.001 44.458 C 249.000 44.298,248.925 44.167,248.833 44.167 C 248.742 44.167,248.667 43.979,248.667 43.750 C 248.667 43.521,248.600 43.333,248.518 43.333 C 248.373 43.333,248.085 42.541,248.139 42.292 C 248.154 42.223,248.100 42.167,248.019 42.167 C 247.876 42.167,247.612 41.543,247.649 41.292 C 247.659 41.223,247.592 41.167,247.500 41.167 C 247.408 41.167,247.333 41.021,247.333 40.843 C 247.333 40.665,247.267 40.478,247.185 40.428 C 247.104 40.378,246.985 40.130,246.922 39.878 C 246.859 39.626,246.740 39.378,246.658 39.328 C 246.576 39.277,246.478 39.089,246.441 38.909 C 246.336 38.395,245.938 37.500,245.815 37.500 C 245.754 37.500,245.655 37.237,245.594 36.917 C 245.534 36.596,245.413 36.333,245.326 36.333 C 245.238 36.333,245.167 36.155,245.167 35.937 C 245.167 35.719,245.054 35.447,244.917 35.333 C 244.779 35.219,244.667 34.991,244.667 34.827 C 244.667 34.662,244.596 34.503,244.510 34.472 C 244.424 34.442,244.319 34.229,244.277 34.000 C 244.236 33.771,243.932 33.058,243.602 32.417 C 243.271 31.775,242.955 31.007,242.899 30.710 C 242.843 30.413,242.738 30.206,242.667 30.250 C 242.595 30.294,242.487 30.069,242.427 29.749 C 242.367 29.429,242.247 29.167,242.159 29.167 C 242.072 29.167,242.000 29.054,242.000 28.917 C 242.000 28.654,234.702 28.520,234.444 28.778 M128.500 35.228 C 128.912 35.285,129.718 35.375,130.290 35.429 C 130.862 35.482,131.373 35.595,131.425 35.680 C 131.477 35.764,131.665 35.833,131.843 35.833 C 132.021 35.833,132.167 35.908,132.167 36.000 C 132.167 36.092,132.225 36.148,132.296 36.125 C 132.965 35.910,135.477 38.421,135.764 39.589 C 135.830 39.861,135.965 40.136,136.063 40.200 C 136.328 40.373,136.304 44.704,136.037 44.793 C 135.925 44.831,135.833 45.017,135.833 45.208 C 135.833 45.944,133.948 48.330,133.365 48.333 C 133.245 48.333,133.188 48.400,133.238 48.481 C 133.323 48.618,132.744 48.893,132.458 48.851 C 132.390 48.841,132.333 48.905,132.333 48.992 C 132.333 49.141,131.233 49.441,130.958 49.367 C 130.890 49.349,130.833 49.408,130.833 49.500 C 130.833 49.592,130.575 49.667,130.260 49.667 C 129.944 49.667,129.640 49.742,129.583 49.833 C 129.518 49.939,127.609 50.000,124.407 50.000 L 119.333 50.000 119.333 42.490 L 119.333 34.979 123.542 35.053 C 125.856 35.093,128.087 35.172,128.500 35.228 M88.001 37.750 C 88.161 38.117,88.392 38.698,88.513 39.042 C 88.634 39.385,88.784 39.667,88.846 39.667 C 88.908 39.667,89.004 39.893,89.059 40.169 C 89.114 40.446,89.349 41.072,89.580 41.560 C 89.811 42.049,90.000 42.540,90.000 42.651 C 90.000 42.762,90.075 42.807,90.167 42.750 C 90.258 42.693,90.333 42.806,90.333 42.999 C 90.333 43.328,90.590 43.976,91.353 45.573 C 91.526 45.934,91.667 46.298,91.667 46.381 C 91.667 46.553,92.078 47.528,92.432 48.192 C 92.561 48.436,92.667 48.754,92.667 48.901 C 92.667 49.047,92.736 49.167,92.820 49.167 C 92.904 49.167,93.024 49.397,93.086 49.678 C 93.148 49.959,93.303 50.390,93.431 50.636 C 93.560 50.882,93.665 51.177,93.666 51.292 C 93.666 51.406,93.726 51.500,93.798 51.500 C 93.870 51.500,93.942 51.668,93.957 51.873 C 93.973 52.077,94.064 52.271,94.159 52.303 C 95.003 52.584,93.509 52.667,87.550 52.667 C 82.274 52.667,80.811 52.622,80.967 52.467 C 81.077 52.357,81.169 52.113,81.172 51.925 C 81.175 51.737,81.287 51.438,81.422 51.260 C 81.557 51.082,81.667 50.763,81.667 50.551 C 81.667 50.340,81.725 50.167,81.797 50.167 C 81.932 50.167,82.327 49.311,82.438 48.776 C 82.474 48.607,82.615 48.310,82.751 48.114 C 82.888 47.919,83.000 47.588,83.000 47.380 C 83.000 47.171,83.057 47.000,83.127 47.000 C 83.282 47.000,83.833 45.763,83.833 45.416 C 83.833 45.279,83.908 45.167,84.000 45.167 C 84.092 45.167,84.167 45.048,84.167 44.902 C 84.167 44.756,84.392 44.151,84.667 43.557 C 84.942 42.963,85.167 42.369,85.167 42.238 C 85.167 42.107,85.233 42.000,85.315 42.000 C 85.396 42.000,85.512 41.737,85.572 41.417 C 85.633 41.096,85.753 40.833,85.841 40.833 C 85.928 40.833,86.000 40.723,86.000 40.589 C 86.000 40.455,86.106 40.098,86.236 39.797 C 86.366 39.496,86.599 38.950,86.753 38.583 C 87.368 37.123,87.586 36.711,87.647 36.893 C 87.681 36.998,87.841 37.383,88.001 37.750 M238.417 37.333 C 238.477 37.608,238.587 37.833,238.660 37.833 C 238.734 37.833,238.836 38.002,238.887 38.208 C 239.075 38.969,239.418 39.833,239.533 39.833 C 239.598 39.833,239.703 40.115,239.766 40.458 C 239.830 40.802,239.927 41.121,239.982 41.167 C 240.155 41.309,240.667 42.498,240.667 42.756 C 240.667 42.890,240.738 43.000,240.826 43.000 C 240.913 43.000,241.034 43.262,241.094 43.583 C 241.155 43.904,241.270 44.167,241.352 44.167 C 241.433 44.167,241.500 44.298,241.501 44.458 C 241.502 44.619,241.614 44.965,241.751 45.227 C 241.888 45.490,242.000 45.809,242.000 45.936 C 242.000 46.063,242.069 46.167,242.153 46.167 C 242.238 46.167,242.357 46.397,242.419 46.678 C 242.481 46.959,242.636 47.390,242.765 47.636 C 242.893 47.882,242.998 48.177,242.999 48.292 C 243.000 48.406,243.075 48.500,243.167 48.500 C 243.258 48.500,243.333 48.650,243.333 48.833 C 243.333 49.017,243.408 49.167,243.500 49.167 C 243.592 49.167,243.667 49.283,243.667 49.426 C 243.667 49.673,244.163 50.922,244.506 51.539 C 244.594 51.699,244.667 51.942,244.667 52.081 C 244.667 52.220,244.742 52.333,244.833 52.333 C 244.925 52.333,245.000 52.408,245.000 52.500 C 245.000 52.608,242.642 52.667,238.259 52.667 L 231.517 52.667 231.700 52.125 C 231.800 51.827,231.937 51.508,232.005 51.417 C 232.073 51.325,232.180 51.006,232.244 50.708 C 232.308 50.410,232.429 50.167,232.513 50.167 C 232.598 50.167,232.667 50.021,232.667 49.843 C 232.667 49.665,232.736 49.477,232.821 49.425 C 232.905 49.372,233.024 49.105,233.084 48.831 C 233.144 48.557,233.252 48.333,233.325 48.333 C 233.397 48.333,233.499 48.070,233.551 47.748 C 233.604 47.427,233.819 46.920,234.031 46.623 C 234.242 46.326,234.400 46.046,234.382 46.000 C 234.308 45.818,234.545 45.167,234.685 45.167 C 234.766 45.167,234.819 45.110,234.802 45.042 C 234.743 44.809,235.026 43.833,235.152 43.833 C 235.221 43.833,235.421 43.383,235.597 42.833 C 235.773 42.283,235.969 41.833,236.034 41.833 C 236.099 41.833,236.201 41.571,236.261 41.250 C 236.321 40.929,236.437 40.667,236.519 40.667 C 236.600 40.667,236.669 40.535,236.672 40.375 C 236.675 40.215,236.787 39.938,236.922 39.760 C 237.057 39.582,237.167 39.263,237.167 39.051 C 237.167 38.840,237.235 38.667,237.319 38.667 C 237.402 38.667,237.521 38.366,237.583 37.999 C 237.645 37.632,237.765 37.374,237.848 37.426 C 237.932 37.477,238.000 37.365,238.000 37.177 C 238.000 36.656,238.292 36.766,238.417 37.333 " stroke="none" fill="#04ac84" fill-rule="evenodd"></path><path id="path1" d="M262.333 48.073 L 262.333 67.500 272.667 67.500 C 278.350 67.500,283.000 67.436,283.000 67.358 C 283.000 67.280,283.577 67.167,284.282 67.107 C 284.987 67.048,285.606 66.936,285.657 66.858 C 285.708 66.781,286.122 66.668,286.577 66.607 C 287.031 66.547,287.477 66.423,287.568 66.332 C 287.659 66.241,287.868 66.167,288.033 66.167 C 288.198 66.167,288.333 66.100,288.333 66.019 C 288.333 65.937,288.596 65.821,288.917 65.761 C 289.237 65.701,289.500 65.586,289.500 65.506 C 289.500 65.425,289.725 65.310,290.000 65.250 C 290.275 65.190,290.500 65.071,290.500 64.987 C 290.500 64.902,290.612 64.833,290.750 64.833 C 290.887 64.833,291.000 64.758,291.000 64.667 C 291.000 64.575,291.152 64.500,291.339 64.500 C 291.525 64.500,291.718 64.394,291.767 64.265 C 291.817 64.136,292.040 63.984,292.262 63.929 C 292.485 63.873,292.667 63.753,292.667 63.663 C 292.667 63.574,292.747 63.500,292.846 63.500 C 292.997 63.500,293.472 63.107,294.185 62.395 C 295.200 61.380,295.483 61.097,295.875 60.706 C 296.127 60.455,296.333 60.190,296.333 60.117 C 296.333 60.045,296.521 59.797,296.750 59.568 C 296.979 59.339,297.167 59.042,297.167 58.909 C 297.167 58.776,297.242 58.667,297.333 58.667 C 297.425 58.667,297.500 58.572,297.500 58.455 C 297.500 58.339,297.689 57.966,297.920 57.626 C 298.151 57.286,298.385 56.781,298.441 56.504 C 298.496 56.227,298.603 56.000,298.677 56.000 C 298.752 56.000,298.864 55.663,298.925 55.250 C 298.987 54.837,299.104 54.500,299.186 54.500 C 299.267 54.500,299.333 54.328,299.333 54.117 C 299.333 53.906,299.408 53.659,299.499 53.567 C 299.591 53.476,299.715 52.708,299.775 51.861 C 299.835 51.015,299.948 50.282,300.025 50.234 C 300.230 50.108,300.205 46.000,300.000 46.000 C 299.908 46.000,299.830 45.569,299.826 45.042 C 299.822 44.515,299.742 43.746,299.649 43.333 C 299.556 42.921,299.438 42.377,299.387 42.125 C 299.337 41.873,299.238 41.667,299.167 41.667 C 299.096 41.667,298.987 41.329,298.925 40.917 C 298.864 40.504,298.751 40.167,298.675 40.167 C 298.599 40.167,298.488 39.904,298.428 39.583 C 298.367 39.262,298.247 39.000,298.159 39.000 C 298.072 39.000,298.000 38.887,298.000 38.750 C 298.000 38.612,297.931 38.500,297.847 38.500 C 297.762 38.500,297.644 38.275,297.583 38.000 C 297.523 37.725,297.410 37.500,297.331 37.500 C 297.253 37.500,297.136 37.331,297.071 37.125 C 297.006 36.919,296.813 36.629,296.643 36.480 C 296.473 36.332,296.333 36.145,296.333 36.064 C 296.333 35.983,296.107 35.692,295.831 35.417 C 295.554 35.142,295.236 34.821,295.122 34.703 C 294.421 33.975,293.965 33.537,293.552 33.196 C 292.531 32.351,292.276 32.167,292.134 32.167 C 292.053 32.167,291.822 32.014,291.621 31.827 C 291.421 31.640,291.086 31.444,290.878 31.392 C 290.670 31.340,290.500 31.236,290.500 31.162 C 290.500 31.087,290.275 30.977,290.000 30.917 C 289.725 30.856,289.500 30.756,289.500 30.694 C 289.500 30.554,288.751 30.224,288.083 30.070 C 287.808 30.006,287.508 29.896,287.417 29.826 C 287.325 29.756,286.894 29.645,286.458 29.580 C 286.023 29.515,285.667 29.396,285.667 29.314 C 285.667 29.233,285.373 29.167,285.014 29.167 C 284.640 29.167,284.331 29.078,284.292 28.958 C 284.237 28.795,281.848 28.739,273.278 28.698 L 262.333 28.647 262.333 48.073 M314.833 28.917 C 314.833 29.054,314.765 29.167,314.681 29.167 C 314.598 29.167,314.479 29.467,314.417 29.833 C 314.355 30.200,314.254 30.501,314.194 30.502 C 314.091 30.504,313.982 30.721,313.266 32.359 C 313.120 32.693,313.000 33.087,313.000 33.234 C 313.000 33.380,312.943 33.500,312.873 33.500 C 312.718 33.500,312.167 34.737,312.167 35.084 C 312.167 35.221,312.098 35.333,312.013 35.333 C 311.929 35.333,311.810 35.558,311.750 35.833 C 311.690 36.108,311.571 36.333,311.487 36.333 C 311.402 36.333,311.333 36.479,311.333 36.657 C 311.333 36.835,311.264 37.023,311.179 37.075 C 311.095 37.128,310.976 37.395,310.916 37.669 C 310.856 37.943,310.744 38.167,310.668 38.167 C 310.592 38.167,310.479 38.467,310.417 38.833 C 310.355 39.200,310.236 39.500,310.152 39.500 C 310.068 39.500,310.000 39.650,310.000 39.833 C 310.000 40.017,309.925 40.167,309.833 40.167 C 309.742 40.167,309.666 40.260,309.666 40.375 C 309.665 40.490,309.560 40.785,309.431 41.030 C 309.303 41.276,309.148 41.708,309.086 41.989 C 309.024 42.270,308.922 42.500,308.859 42.500 C 308.715 42.500,308.167 43.753,308.167 44.084 C 308.167 44.221,308.098 44.333,308.013 44.333 C 307.929 44.333,307.807 44.577,307.742 44.875 C 307.678 45.173,307.574 45.454,307.512 45.500 C 307.328 45.636,306.833 46.778,306.833 47.067 C 306.833 47.213,306.766 47.333,306.685 47.333 C 306.603 47.333,306.486 47.540,306.425 47.792 C 306.265 48.458,305.938 49.167,305.793 49.167 C 305.723 49.167,305.666 49.260,305.666 49.375 C 305.665 49.490,305.560 49.785,305.431 50.030 C 305.303 50.276,305.148 50.708,305.086 50.989 C 305.024 51.270,304.922 51.500,304.859 51.500 C 304.715 51.500,304.167 52.753,304.167 53.084 C 304.167 53.221,304.100 53.333,304.019 53.333 C 303.937 53.333,303.821 53.596,303.761 53.917 C 303.701 54.237,303.592 54.500,303.520 54.500 C 303.447 54.500,303.247 54.913,303.076 55.417 C 302.905 55.921,302.708 56.333,302.640 56.333 C 302.571 56.333,302.466 56.596,302.406 56.917 C 302.345 57.237,302.230 57.500,302.148 57.500 C 302.067 57.500,302.000 57.650,302.000 57.833 C 302.000 58.017,301.928 58.167,301.841 58.167 C 301.753 58.167,301.633 58.429,301.572 58.750 C 301.512 59.071,301.397 59.333,301.317 59.333 C 301.236 59.333,301.123 59.633,301.064 60.000 C 301.005 60.367,300.892 60.667,300.812 60.667 C 300.732 60.667,300.667 60.779,300.667 60.917 C 300.667 61.054,300.598 61.167,300.513 61.167 C 300.429 61.167,300.309 61.397,300.248 61.678 C 300.186 61.959,300.030 62.390,299.902 62.636 C 299.774 62.882,299.668 63.177,299.668 63.292 C 299.667 63.406,299.604 63.500,299.527 63.500 C 299.450 63.500,299.247 63.913,299.076 64.417 C 298.905 64.921,298.713 65.333,298.651 65.333 C 298.588 65.333,298.488 65.596,298.428 65.917 C 298.367 66.237,298.247 66.500,298.159 66.500 C 298.072 66.500,298.000 66.725,298.000 67.000 L 298.000 67.500 301.762 67.500 C 305.560 67.500,306.000 67.434,306.000 66.864 C 306.000 66.777,306.112 66.490,306.249 66.227 C 306.386 65.965,306.498 65.619,306.499 65.458 C 306.500 65.298,306.567 65.167,306.648 65.167 C 306.730 65.167,306.845 64.904,306.906 64.583 C 306.966 64.262,307.087 64.000,307.174 64.000 C 307.262 64.000,307.333 63.813,307.333 63.583 C 307.333 63.354,307.392 63.167,307.464 63.167 C 307.536 63.167,307.777 62.642,308.000 62.000 C 308.223 61.358,308.464 60.833,308.536 60.833 C 308.608 60.833,308.667 60.646,308.667 60.417 C 308.667 60.188,308.734 60.000,308.815 60.000 C 308.897 60.000,309.016 59.794,309.079 59.543 C 309.309 58.626,308.865 58.667,318.616 58.667 C 328.062 58.667,328.167 58.674,328.167 59.338 C 328.167 59.568,328.684 60.713,328.842 60.833 C 328.903 60.879,329.004 61.198,329.067 61.542 C 329.130 61.885,329.245 62.167,329.323 62.167 C 329.400 62.167,329.514 62.373,329.575 62.625 C 329.729 63.264,330.060 64.000,330.193 64.000 C 330.254 64.000,330.355 64.300,330.417 64.667 C 330.479 65.033,330.592 65.333,330.668 65.333 C 330.744 65.333,330.860 65.575,330.925 65.870 C 331.049 66.438,331.290 66.932,331.613 67.285 C 331.927 67.628,339.667 67.594,339.667 67.250 C 339.667 67.112,339.592 67.000,339.500 67.000 C 339.408 67.000,339.333 66.887,339.333 66.750 C 339.333 66.612,339.268 66.500,339.188 66.500 C 339.108 66.500,338.995 66.200,338.936 65.833 C 338.877 65.467,338.759 65.167,338.672 65.167 C 338.586 65.167,338.466 64.904,338.406 64.583 C 338.345 64.262,338.230 64.000,338.148 64.000 C 338.067 64.000,338.000 63.850,338.000 63.667 C 338.000 63.483,337.933 63.333,337.852 63.333 C 337.770 63.333,337.655 63.071,337.594 62.750 C 337.534 62.429,337.429 62.167,337.360 62.167 C 337.292 62.167,337.095 61.754,336.924 61.250 C 336.753 60.746,336.556 60.333,336.486 60.333 C 336.417 60.333,336.310 60.108,336.250 59.833 C 336.190 59.558,336.081 59.333,336.008 59.333 C 335.935 59.333,335.828 59.033,335.769 58.667 C 335.711 58.300,335.589 58.000,335.498 58.000 C 335.407 58.000,335.333 57.850,335.333 57.667 C 335.333 57.483,335.262 57.333,335.174 57.333 C 335.087 57.333,334.966 57.071,334.906 56.750 C 334.845 56.429,334.738 56.167,334.667 56.167 C 334.595 56.167,334.488 55.904,334.428 55.583 C 334.367 55.262,334.247 55.000,334.159 55.000 C 334.072 55.000,334.000 54.887,334.000 54.750 C 334.000 54.612,333.935 54.500,333.855 54.500 C 333.775 54.500,333.661 54.200,333.603 53.833 C 333.544 53.467,333.428 53.167,333.345 53.167 C 333.261 53.167,333.144 52.943,333.084 52.669 C 333.024 52.395,332.905 52.128,332.821 52.075 C 332.736 52.023,332.667 51.835,332.667 51.657 C 332.667 51.479,332.600 51.333,332.519 51.333 C 332.437 51.333,332.321 51.071,332.261 50.750 C 332.201 50.429,332.095 50.167,332.027 50.167 C 331.958 50.167,331.762 49.754,331.591 49.250 C 331.419 48.746,331.216 48.333,331.140 48.333 C 331.063 48.333,331.000 48.240,330.999 48.125 C 330.998 48.010,330.893 47.715,330.765 47.470 C 330.636 47.224,330.481 46.792,330.419 46.511 C 330.357 46.230,330.238 46.000,330.153 46.000 C 330.069 46.000,330.000 45.850,330.000 45.667 C 330.000 45.483,329.928 45.333,329.841 45.333 C 329.753 45.333,329.633 45.071,329.572 44.750 C 329.512 44.429,329.405 44.167,329.333 44.167 C 329.262 44.167,329.155 43.904,329.094 43.583 C 329.034 43.262,328.932 43.000,328.866 43.000 C 328.727 43.000,328.399 42.278,328.241 41.625 C 328.180 41.373,328.079 41.167,328.016 41.167 C 327.954 41.167,327.762 40.754,327.591 40.250 C 327.419 39.746,327.220 39.333,327.147 39.333 C 327.075 39.333,326.966 39.071,326.906 38.750 C 326.845 38.429,326.730 38.167,326.648 38.167 C 326.567 38.167,326.500 38.055,326.500 37.918 C 326.500 37.570,325.949 36.333,325.794 36.333 C 325.724 36.333,325.666 36.240,325.666 36.125 C 325.665 36.010,325.560 35.715,325.431 35.470 C 325.303 35.224,325.148 34.792,325.086 34.511 C 325.024 34.230,324.904 34.000,324.820 34.000 C 324.736 34.000,324.667 33.887,324.667 33.750 C 324.667 33.612,324.601 33.500,324.521 33.500 C 324.441 33.500,324.328 33.200,324.269 32.833 C 324.211 32.467,324.097 32.167,324.017 32.167 C 323.936 32.167,323.821 31.904,323.761 31.583 C 323.701 31.262,323.580 31.000,323.492 31.000 C 323.405 31.000,323.333 30.850,323.333 30.667 C 323.333 30.483,323.267 30.333,323.185 30.333 C 323.104 30.333,322.988 30.071,322.928 29.750 C 322.867 29.429,322.747 29.167,322.659 29.167 C 322.572 29.167,322.500 29.054,322.500 28.917 C 322.500 28.702,321.963 28.667,318.667 28.667 C 315.370 28.667,314.833 28.702,314.833 28.917 M332.667 31.833 L 332.667 35.000 338.917 35.000 L 345.167 35.000 345.167 51.250 L 345.167 67.500 349.083 67.500 L 353.000 67.500 353.000 51.250 L 353.000 35.000 359.250 35.000 L 365.500 35.000 365.500 31.833 L 365.500 28.667 349.083 28.667 L 332.667 28.667 332.667 31.833 M375.667 28.917 C 375.667 29.054,375.592 29.167,375.500 29.167 C 375.408 29.167,375.333 29.279,375.333 29.417 C 375.333 29.554,375.262 29.667,375.174 29.667 C 375.087 29.667,374.966 29.929,374.906 30.250 C 374.845 30.571,374.738 30.833,374.667 30.833 C 374.595 30.833,374.484 31.114,374.420 31.458 C 374.355 31.801,374.253 32.120,374.193 32.166 C 373.954 32.349,373.500 33.321,373.500 33.651 C 373.500 33.843,373.431 34.000,373.347 34.000 C 373.262 34.000,373.144 34.225,373.083 34.500 C 373.023 34.775,372.904 35.000,372.820 35.000 C 372.736 35.000,372.667 35.146,372.667 35.323 C 372.667 35.501,372.597 35.690,372.513 35.742 C 372.428 35.794,372.310 36.061,372.250 36.335 C 372.189 36.609,372.078 36.833,372.001 36.833 C 371.925 36.833,371.812 37.133,371.750 37.500 C 371.688 37.867,371.569 38.167,371.485 38.167 C 371.402 38.167,371.333 38.317,371.333 38.500 C 371.333 38.683,371.264 38.833,371.180 38.833 C 371.096 38.833,370.977 39.058,370.917 39.333 C 370.856 39.608,370.744 39.833,370.668 39.833 C 370.592 39.833,370.479 40.133,370.417 40.500 C 370.355 40.867,370.253 41.167,370.191 41.167 C 370.048 41.167,369.500 42.422,369.500 42.751 C 369.500 42.888,369.425 43.000,369.333 43.000 C 369.242 43.000,369.165 43.094,369.163 43.208 C 369.161 43.323,368.938 43.867,368.667 44.417 C 368.396 44.967,368.172 45.548,368.170 45.708 C 368.168 45.869,368.098 46.000,368.013 46.000 C 367.929 46.000,367.811 46.224,367.750 46.498 C 367.690 46.772,367.572 47.039,367.487 47.091 C 367.403 47.144,367.333 47.332,367.333 47.510 C 367.333 47.688,367.258 47.833,367.167 47.833 C 367.075 47.833,366.997 47.927,366.994 48.042 C 366.991 48.156,366.844 48.550,366.667 48.917 C 366.490 49.283,366.342 49.715,366.339 49.875 C 366.336 50.035,366.276 50.167,366.206 50.167 C 366.051 50.167,365.500 51.404,365.500 51.751 C 365.500 51.888,365.433 52.000,365.352 52.000 C 365.270 52.000,365.155 52.262,365.094 52.583 C 365.034 52.904,364.925 53.167,364.853 53.167 C 364.780 53.167,364.581 53.579,364.409 54.083 C 364.238 54.587,364.044 55.000,363.979 55.000 C 363.913 55.000,363.811 55.224,363.750 55.498 C 363.690 55.772,363.572 56.039,363.487 56.091 C 363.403 56.144,363.333 56.332,363.333 56.510 C 363.333 56.688,363.262 56.833,363.174 56.833 C 363.087 56.833,362.966 57.096,362.906 57.417 C 362.845 57.737,362.730 58.000,362.650 58.000 C 362.570 58.000,362.456 58.300,362.397 58.667 C 362.339 59.033,362.225 59.333,362.145 59.333 C 362.065 59.333,362.000 59.446,362.000 59.583 C 362.000 59.721,361.931 59.833,361.847 59.833 C 361.762 59.833,361.643 60.063,361.581 60.345 C 361.519 60.626,361.364 61.057,361.235 61.303 C 361.107 61.549,361.002 61.844,361.001 61.958 C 361.000 62.073,360.943 62.167,360.873 62.167 C 360.718 62.167,360.167 63.404,360.167 63.751 C 360.167 63.888,360.100 64.000,360.019 64.000 C 359.937 64.000,359.821 64.262,359.761 64.583 C 359.701 64.904,359.580 65.167,359.492 65.167 C 359.405 65.167,359.333 65.312,359.333 65.490 C 359.333 65.668,359.264 65.856,359.179 65.909 C 359.095 65.961,358.976 66.228,358.916 66.502 C 358.856 66.776,358.738 67.000,358.653 67.000 C 358.569 67.000,358.500 67.112,358.500 67.250 C 358.500 67.465,359.056 67.500,362.500 67.500 C 365.944 67.500,366.500 67.465,366.500 67.250 C 366.500 67.112,366.568 67.000,366.652 67.000 C 366.736 67.000,366.855 66.700,366.917 66.333 C 366.979 65.967,367.079 65.667,367.141 65.667 C 367.274 65.667,367.604 64.931,367.759 64.292 C 367.820 64.040,367.930 63.833,368.003 63.833 C 368.077 63.833,368.188 63.533,368.250 63.167 C 368.312 62.800,368.431 62.500,368.515 62.500 C 368.598 62.500,368.667 62.350,368.667 62.167 C 368.667 61.983,368.742 61.833,368.833 61.833 C 368.925 61.833,369.003 61.702,369.006 61.542 C 369.009 61.381,369.156 60.950,369.333 60.583 C 369.510 60.217,369.658 59.785,369.661 59.625 C 369.664 59.465,369.742 59.333,369.833 59.333 C 369.925 59.333,370.000 59.183,370.000 59.000 C 370.000 58.671,370.111 58.667,379.333 58.667 C 387.519 58.667,388.667 58.697,388.667 58.917 C 388.667 59.054,388.742 59.167,388.833 59.167 C 388.925 59.167,389.000 59.298,389.001 59.458 C 389.002 59.619,389.107 59.951,389.235 60.197 C 389.364 60.443,389.519 60.874,389.581 61.155 C 389.643 61.437,389.762 61.667,389.847 61.667 C 389.931 61.667,390.000 61.812,390.000 61.990 C 390.000 62.168,390.069 62.356,390.154 62.409 C 390.238 62.461,390.357 62.728,390.417 63.002 C 390.477 63.276,390.586 63.500,390.659 63.500 C 390.731 63.500,390.839 63.800,390.897 64.167 C 390.956 64.533,391.060 64.833,391.128 64.833 C 391.272 64.833,391.599 65.546,391.759 66.208 C 391.820 66.460,391.931 66.667,392.006 66.667 C 392.082 66.667,392.167 66.835,392.197 67.042 L 392.250 67.417 396.147 67.461 L 400.045 67.506 399.956 66.847 C 399.908 66.484,399.676 65.789,399.442 65.302 C 399.207 64.815,398.966 64.210,398.906 63.958 C 398.846 63.706,398.736 63.500,398.662 63.500 C 398.587 63.500,398.477 63.276,398.417 63.002 C 398.357 62.728,398.238 62.461,398.154 62.409 C 398.069 62.356,398.000 62.168,398.000 61.990 C 398.000 61.812,397.931 61.667,397.847 61.667 C 397.762 61.667,397.644 61.442,397.583 61.167 C 397.523 60.892,397.404 60.667,397.320 60.667 C 397.236 60.667,397.166 60.535,397.166 60.375 C 397.165 60.215,397.053 59.869,396.916 59.606 C 396.779 59.343,396.667 59.025,396.667 58.898 C 396.667 58.771,396.592 58.667,396.500 58.667 C 396.408 58.667,396.333 58.573,396.332 58.458 C 396.332 58.344,396.226 58.049,396.098 57.803 C 395.970 57.557,395.814 57.126,395.752 56.845 C 395.691 56.563,395.571 56.333,395.487 56.333 C 395.402 56.333,395.333 56.221,395.333 56.083 C 395.333 55.946,395.268 55.833,395.188 55.833 C 395.108 55.833,394.995 55.533,394.936 55.167 C 394.877 54.800,394.761 54.500,394.678 54.500 C 394.595 54.500,394.477 54.276,394.417 54.002 C 394.357 53.728,394.238 53.461,394.154 53.409 C 394.069 53.356,394.000 53.168,394.000 52.990 C 394.000 52.812,393.933 52.667,393.852 52.667 C 393.770 52.667,393.655 52.404,393.594 52.083 C 393.534 51.762,393.429 51.500,393.360 51.500 C 393.292 51.500,393.095 51.087,392.924 50.583 C 392.753 50.079,392.556 49.667,392.486 49.667 C 392.417 49.667,392.310 49.442,392.250 49.167 C 392.190 48.892,392.081 48.667,392.008 48.667 C 391.935 48.667,391.828 48.367,391.769 48.000 C 391.711 47.633,391.589 47.333,391.498 47.333 C 391.407 47.333,391.333 47.183,391.333 47.000 C 391.333 46.817,391.262 46.667,391.174 46.667 C 391.087 46.667,390.966 46.404,390.906 46.083 C 390.845 45.762,390.738 45.500,390.667 45.500 C 390.595 45.500,390.488 45.237,390.428 44.917 C 390.367 44.596,390.247 44.333,390.159 44.333 C 390.072 44.333,390.000 44.221,390.000 44.083 C 390.000 43.946,389.935 43.833,389.855 43.833 C 389.775 43.833,389.661 43.533,389.603 43.167 C 389.544 42.800,389.428 42.500,389.345 42.500 C 389.261 42.500,389.144 42.276,389.084 42.002 C 389.024 41.728,388.905 41.461,388.821 41.409 C 388.736 41.356,388.667 41.168,388.667 40.990 C 388.667 40.812,388.595 40.667,388.508 40.667 C 388.420 40.667,388.299 40.404,388.239 40.083 C 388.179 39.762,388.078 39.500,388.016 39.500 C 387.953 39.500,387.762 39.087,387.591 38.583 C 387.419 38.079,387.216 37.667,387.140 37.667 C 387.063 37.667,387.000 37.573,386.999 37.458 C 386.998 37.344,386.893 37.049,386.765 36.803 C 386.636 36.557,386.481 36.126,386.419 35.845 C 386.357 35.563,386.238 35.333,386.153 35.333 C 386.069 35.333,386.000 35.221,386.000 35.083 C 386.000 34.946,385.932 34.833,385.848 34.833 C 385.764 34.833,385.645 34.533,385.583 34.167 C 385.521 33.800,385.411 33.500,385.337 33.500 C 385.264 33.500,385.155 33.237,385.094 32.917 C 385.034 32.596,384.932 32.333,384.866 32.333 C 384.727 32.333,384.399 31.611,384.241 30.958 C 384.180 30.706,384.070 30.500,383.995 30.500 C 383.921 30.500,383.811 30.276,383.750 30.002 C 383.690 29.728,383.572 29.461,383.487 29.409 C 383.403 29.356,383.333 29.168,383.333 28.990 C 383.333 28.679,383.183 28.667,379.500 28.667 C 376.204 28.667,375.667 28.702,375.667 28.917 M279.068 35.141 C 279.116 35.219,279.988 35.327,281.006 35.380 C 282.023 35.434,282.945 35.542,283.053 35.621 C 283.161 35.700,283.662 35.907,284.167 36.081 C 284.671 36.254,285.271 36.494,285.500 36.614 C 285.729 36.733,286.010 36.832,286.125 36.832 C 286.240 36.833,286.333 36.900,286.333 36.982 C 286.333 37.064,286.502 37.174,286.708 37.227 C 286.915 37.281,287.377 37.588,287.736 37.910 C 288.095 38.232,288.522 38.537,288.686 38.589 C 288.849 38.641,289.029 38.830,289.086 39.009 C 289.143 39.187,289.259 39.333,289.345 39.333 C 289.430 39.333,289.500 39.435,289.500 39.560 C 289.500 39.685,289.683 39.924,289.907 40.092 C 290.130 40.260,290.357 40.570,290.410 40.782 C 290.463 40.994,290.574 41.167,290.657 41.167 C 290.739 41.167,290.856 41.392,290.917 41.667 C 290.977 41.942,291.096 42.167,291.180 42.167 C 291.264 42.167,291.333 42.279,291.333 42.417 C 291.333 42.554,291.400 42.667,291.481 42.667 C 291.562 42.667,291.682 43.023,291.747 43.458 C 291.811 43.894,291.951 44.355,292.057 44.484 C 292.324 44.807,292.328 51.629,292.062 51.798 C 291.959 51.863,291.821 52.235,291.756 52.625 C 291.691 53.015,291.569 53.333,291.485 53.333 C 291.402 53.333,291.333 53.483,291.333 53.667 C 291.333 53.850,291.264 54.000,291.180 54.000 C 291.096 54.000,290.977 54.225,290.917 54.500 C 290.856 54.775,290.743 55.000,290.665 55.000 C 290.586 55.000,290.473 55.157,290.411 55.350 C 290.282 55.757,290.059 56.030,288.893 57.214 C 287.910 58.211,287.343 58.667,287.086 58.667 C 286.988 58.667,286.801 58.814,286.671 58.994 C 286.541 59.174,286.225 59.367,285.968 59.424 C 285.710 59.480,285.500 59.586,285.500 59.659 C 285.500 59.731,285.200 59.839,284.833 59.897 C 284.467 59.956,284.167 60.078,284.167 60.169 C 284.167 60.259,283.948 60.333,283.681 60.333 C 283.413 60.333,283.169 60.408,283.139 60.499 C 283.108 60.590,282.390 60.714,281.542 60.774 C 280.694 60.834,280.000 60.947,280.000 61.025 C 280.000 61.103,277.675 61.167,274.833 61.167 L 269.667 61.167 269.667 48.083 L 269.667 35.000 274.323 35.000 C 276.885 35.000,279.020 35.064,279.068 35.141 M318.897 37.500 C 318.956 37.867,319.078 38.167,319.169 38.167 C 319.259 38.167,319.333 38.279,319.333 38.417 C 319.333 38.554,319.399 38.667,319.479 38.667 C 319.559 38.667,319.672 38.967,319.731 39.333 C 319.789 39.700,319.911 40.000,320.002 40.000 C 320.093 40.000,320.167 40.131,320.168 40.292 C 320.168 40.452,320.281 40.798,320.418 41.061 C 320.555 41.323,320.667 41.642,320.667 41.769 C 320.667 41.896,320.736 42.000,320.820 42.000 C 320.904 42.000,321.027 42.241,321.091 42.536 C 321.156 42.831,321.270 43.187,321.344 43.328 C 321.702 44.007,322.000 44.740,322.000 44.942 C 322.000 45.066,322.069 45.167,322.153 45.167 C 322.238 45.167,322.357 45.397,322.419 45.678 C 322.481 45.959,322.636 46.390,322.765 46.636 C 322.893 46.882,322.998 47.177,322.999 47.292 C 323.000 47.406,323.075 47.500,323.167 47.500 C 323.258 47.500,323.333 47.688,323.333 47.917 C 323.333 48.146,323.408 48.333,323.500 48.333 C 323.592 48.333,323.667 48.427,323.668 48.542 C 323.668 48.656,323.774 48.951,323.902 49.197 C 324.030 49.443,324.186 49.874,324.248 50.155 C 324.309 50.437,324.429 50.667,324.513 50.667 C 324.598 50.667,324.667 50.802,324.667 50.967 C 324.667 51.132,324.731 51.338,324.811 51.425 C 324.890 51.512,325.036 51.827,325.135 52.125 L 325.316 52.667 318.681 52.667 L 312.046 52.667 312.224 52.000 C 312.322 51.633,312.462 51.333,312.534 51.333 C 312.607 51.333,312.667 51.229,312.667 51.102 C 312.667 50.975,312.779 50.657,312.916 50.394 C 313.053 50.131,313.165 49.785,313.166 49.625 C 313.166 49.465,313.241 49.333,313.331 49.333 C 313.422 49.333,313.544 49.033,313.603 48.667 C 313.661 48.300,313.775 48.000,313.855 48.000 C 313.935 48.000,314.000 47.887,314.000 47.750 C 314.000 47.612,314.068 47.500,314.152 47.500 C 314.236 47.500,314.355 47.200,314.417 46.833 C 314.479 46.467,314.590 46.167,314.663 46.167 C 314.737 46.167,314.847 45.960,314.908 45.708 C 315.068 45.046,315.395 44.333,315.539 44.333 C 315.607 44.333,315.711 44.033,315.769 43.667 C 315.828 43.300,315.933 43.000,316.003 43.000 C 316.073 43.000,316.180 42.794,316.241 42.542 C 316.401 41.879,316.728 41.167,316.872 41.167 C 316.940 41.167,317.044 40.867,317.103 40.500 C 317.161 40.133,317.271 39.833,317.347 39.833 C 317.423 39.833,317.534 39.571,317.594 39.250 C 317.655 38.929,317.770 38.667,317.852 38.667 C 317.933 38.667,318.000 38.521,318.000 38.343 C 318.000 38.165,318.069 37.977,318.154 37.925 C 318.238 37.872,318.357 37.605,318.417 37.331 C 318.569 36.639,318.771 36.710,318.897 37.500 M379.668 37.375 C 379.668 37.490,379.774 37.785,379.902 38.030 C 380.030 38.276,380.186 38.708,380.248 38.989 C 380.309 39.270,380.429 39.500,380.513 39.500 C 380.598 39.500,380.667 39.646,380.667 39.823 C 380.667 40.001,380.736 40.190,380.821 40.242 C 380.905 40.294,381.024 40.561,381.084 40.835 C 381.144 41.109,381.253 41.333,381.325 41.333 C 381.398 41.333,381.505 41.633,381.564 42.000 C 381.623 42.367,381.745 42.667,381.835 42.667 C 381.926 42.667,382.000 42.817,382.000 43.000 C 382.000 43.183,382.068 43.333,382.152 43.333 C 382.236 43.333,382.355 43.633,382.417 44.000 C 382.479 44.367,382.590 44.667,382.663 44.667 C 382.737 44.667,382.847 44.873,382.908 45.125 C 383.062 45.764,383.393 46.500,383.526 46.500 C 383.587 46.500,383.688 46.800,383.750 47.167 C 383.812 47.533,383.916 47.833,383.980 47.833 C 384.045 47.833,384.238 48.246,384.409 48.750 C 384.581 49.254,384.783 49.667,384.858 49.667 C 384.934 49.667,385.044 49.967,385.103 50.333 C 385.161 50.700,385.269 51.000,385.341 51.000 C 385.414 51.000,385.523 51.224,385.583 51.498 C 385.643 51.772,385.762 52.039,385.846 52.091 C 386.684 52.609,386.029 52.667,379.333 52.667 C 375.000 52.667,372.667 52.608,372.667 52.500 C 372.667 52.408,372.738 52.333,372.826 52.333 C 372.913 52.333,373.034 52.071,373.094 51.750 C 373.155 51.429,373.270 51.167,373.352 51.167 C 373.433 51.167,373.502 51.035,373.504 50.875 C 373.506 50.715,373.729 50.133,374.000 49.583 C 374.271 49.033,374.494 48.452,374.496 48.292 C 374.498 48.131,374.568 48.000,374.652 48.000 C 374.736 48.000,374.855 47.700,374.917 47.333 C 374.979 46.967,375.079 46.667,375.141 46.667 C 375.274 46.667,375.604 45.931,375.759 45.292 C 375.820 45.040,375.930 44.833,376.003 44.833 C 376.077 44.833,376.188 44.533,376.250 44.167 C 376.312 43.800,376.413 43.500,376.474 43.500 C 376.607 43.500,376.938 42.764,377.092 42.125 C 377.153 41.873,377.269 41.667,377.349 41.667 C 377.430 41.667,377.544 41.367,377.603 41.000 C 377.661 40.633,377.756 40.333,377.814 40.333 C 377.941 40.333,378.274 39.585,378.425 38.958 C 378.486 38.706,378.602 38.500,378.683 38.500 C 378.763 38.500,378.877 38.200,378.936 37.833 C 379.038 37.196,379.665 36.803,379.668 37.375 " stroke="none" fill="#1c1c1c" fill-rule="evenodd"></path><path id="path2" d="M36.875 6.282 C 37.035 6.323,37.298 6.323,37.458 6.282 C 37.619 6.240,37.487 6.205,37.167 6.205 C 36.846 6.205,36.715 6.240,36.875 6.282 M38.960 49.618 C 39.168 49.658,39.468 49.656,39.627 49.615 C 39.786 49.573,39.617 49.540,39.250 49.542 C 38.883 49.544,38.753 49.578,38.960 49.618 M40.875 49.615 C 41.035 49.657,41.298 49.657,41.458 49.615 C 41.619 49.573,41.487 49.539,41.167 49.539 C 40.846 49.539,40.715 49.573,40.875 49.615 " stroke="none" fill="#108888" fill-rule="evenodd"></path><path id="path3" d="M36.875 6.282 C 37.035 6.323,37.298 6.323,37.458 6.282 C 37.619 6.240,37.487 6.205,37.167 6.205 C 36.846 6.205,36.715 6.240,36.875 6.282 M38.960 49.618 C 39.168 49.658,39.468 49.656,39.627 49.615 C 39.786 49.573,39.617 49.540,39.250 49.542 C 38.883 49.544,38.753 49.578,38.960 49.618 M40.875 49.615 C 41.035 49.657,41.298 49.657,41.458 49.615 C 41.619 49.573,41.487 49.539,41.167 49.539 C 40.846 49.539,40.715 49.573,40.875 49.615 " stroke="none" fill="#108888" fill-rule="evenodd"></path><path id="path4" d="M36.875 6.282 C 37.035 6.323,37.298 6.323,37.458 6.282 C 37.619 6.240,37.487 6.205,37.167 6.205 C 36.846 6.205,36.715 6.240,36.875 6.282 M38.960 49.618 C 39.168 49.658,39.468 49.656,39.627 49.615 C 39.786 49.573,39.617 49.540,39.250 49.542 C 38.883 49.544,38.753 49.578,38.960 49.618 M40.875 49.615 C 41.035 49.657,41.298 49.657,41.458 49.615 C 41.619 49.573,41.487 49.539,41.167 49.539 C 40.846 49.539,40.715 49.573,40.875 49.615 " stroke="none" fill="#108888" fill-rule="evenodd"></path></g></svg>