<svg id="svg" version="1.1" xmlns="http://www.w3.org/2000/svg" xmlns:xlink="http://www.w3.org/1999/xlink" width="400" height="73.6" viewBox="0, 0, 400,73.6"><g id="svgg"><path id="path0" d="M262.333 48.073 L 262.333 67.500 272.667 67.500 C 278.350 67.500,283.000 67.436,283.000 67.358 C 283.000 67.280,283.577 67.167,284.282 67.107 C 284.987 67.048,285.606 66.934,285.657 66.855 C 285.708 66.776,286.181 66.659,286.708 66.594 C 287.235 66.529,287.667 66.406,287.667 66.321 C 287.667 66.236,287.817 66.167,288.000 66.167 C 288.183 66.167,288.333 66.100,288.333 66.019 C 288.333 65.937,288.596 65.821,288.917 65.761 C 289.237 65.701,289.500 65.580,289.500 65.492 C 289.500 65.405,289.690 65.333,289.922 65.333 C 290.154 65.333,290.387 65.221,290.440 65.083 C 290.492 64.946,290.640 64.833,290.768 64.833 C 290.896 64.833,291.000 64.758,291.000 64.667 C 291.000 64.575,291.152 64.500,291.339 64.500 C 291.525 64.500,291.718 64.394,291.767 64.265 C 291.817 64.136,292.040 63.984,292.262 63.929 C 292.485 63.873,292.667 63.753,292.667 63.663 C 292.667 63.574,292.747 63.500,292.846 63.500 C 292.945 63.500,293.251 63.275,293.526 63.000 C 293.801 62.725,294.090 62.500,294.168 62.500 C 294.247 62.500,294.358 62.350,294.417 62.167 C 294.475 61.983,294.630 61.833,294.761 61.833 C 294.893 61.833,295.000 61.721,295.000 61.583 C 295.000 61.446,295.069 61.333,295.154 61.333 C 295.378 61.333,296.333 60.342,296.333 60.110 C 296.333 60.001,296.521 59.772,296.750 59.600 C 296.979 59.427,297.167 59.147,297.167 58.977 C 297.167 58.806,297.242 58.667,297.333 58.667 C 297.425 58.667,297.500 58.552,297.500 58.411 C 297.500 58.271,297.612 58.113,297.750 58.060 C 297.887 58.008,298.000 57.822,298.000 57.649 C 298.000 57.475,298.068 57.333,298.152 57.333 C 298.236 57.333,298.355 57.033,298.417 56.667 C 298.479 56.300,298.593 56.000,298.671 56.000 C 298.749 56.000,298.864 55.663,298.925 55.250 C 298.987 54.837,299.104 54.500,299.186 54.500 C 299.267 54.500,299.333 54.319,299.333 54.097 C 299.333 53.876,299.405 53.669,299.492 53.639 C 299.579 53.608,299.702 52.890,299.766 52.042 C 299.829 51.194,299.945 50.500,300.024 50.500 C 300.102 50.500,300.167 49.487,300.167 48.250 C 300.167 47.012,300.103 46.000,300.025 46.000 C 299.947 46.000,299.833 45.231,299.772 44.292 C 299.710 43.352,299.587 42.558,299.497 42.528 C 299.407 42.497,299.333 42.291,299.333 42.069 C 299.333 41.848,299.265 41.667,299.182 41.667 C 299.099 41.667,298.980 41.292,298.917 40.833 C 298.854 40.375,298.740 40.000,298.664 40.000 C 298.588 40.000,298.477 39.775,298.417 39.500 C 298.356 39.225,298.238 39.000,298.153 39.000 C 298.069 39.000,298.000 38.887,298.000 38.750 C 298.000 38.612,297.931 38.500,297.847 38.500 C 297.762 38.500,297.645 38.280,297.586 38.012 C 297.527 37.743,297.371 37.434,297.239 37.324 C 297.108 37.215,297.000 37.039,297.000 36.933 C 297.000 36.827,296.850 36.632,296.667 36.500 C 296.483 36.368,296.333 36.170,296.333 36.059 C 296.333 35.949,296.109 35.647,295.835 35.388 C 295.218 34.804,295.127 34.713,294.489 34.042 C 294.206 33.744,293.910 33.500,293.832 33.500 C 293.753 33.500,293.643 33.354,293.586 33.175 C 293.529 32.997,293.322 32.799,293.124 32.737 C 292.927 32.674,292.663 32.520,292.538 32.395 C 292.412 32.269,292.207 32.167,292.083 32.167 C 291.958 32.167,291.811 32.025,291.756 31.851 C 291.693 31.655,291.436 31.494,291.078 31.427 C 290.760 31.367,290.500 31.253,290.500 31.172 C 290.500 31.092,290.275 30.977,290.000 30.917 C 289.725 30.856,289.500 30.738,289.500 30.653 C 289.500 30.569,289.387 30.500,289.250 30.500 C 289.112 30.500,289.000 30.435,289.000 30.355 C 289.000 30.275,288.700 30.161,288.333 30.103 C 287.967 30.044,287.667 29.926,287.667 29.840 C 287.667 29.754,287.217 29.632,286.667 29.570 C 286.117 29.508,285.667 29.392,285.667 29.312 C 285.667 29.232,285.373 29.167,285.014 29.167 C 284.640 29.167,284.331 29.078,284.292 28.958 C 284.237 28.795,281.848 28.739,273.278 28.698 L 262.333 28.647 262.333 48.073 M314.833 28.917 C 314.833 29.054,314.759 29.167,314.669 29.167 C 314.578 29.167,314.456 29.467,314.397 29.833 C 314.339 30.200,314.225 30.500,314.145 30.500 C 314.065 30.500,314.000 30.613,314.000 30.750 C 314.000 30.887,313.928 31.000,313.841 31.000 C 313.753 31.000,313.633 31.262,313.572 31.583 C 313.512 31.904,313.403 32.167,313.329 32.167 C 313.256 32.167,313.145 32.467,313.083 32.833 C 313.021 33.200,312.902 33.500,312.819 33.500 C 312.735 33.500,312.667 33.612,312.667 33.750 C 312.667 33.887,312.593 34.000,312.502 34.000 C 312.411 34.000,312.289 34.300,312.231 34.667 C 312.172 35.033,312.065 35.333,311.992 35.333 C 311.919 35.333,311.810 35.558,311.750 35.833 C 311.690 36.108,311.571 36.333,311.487 36.333 C 311.402 36.333,311.333 36.446,311.333 36.583 C 311.333 36.721,311.268 36.833,311.188 36.833 C 311.108 36.833,310.995 37.133,310.936 37.500 C 310.877 37.867,310.759 38.167,310.672 38.167 C 310.586 38.167,310.463 38.448,310.400 38.792 C 310.337 39.135,310.236 39.454,310.176 39.500 C 310.022 39.617,309.500 40.762,309.500 40.984 C 309.500 41.084,309.435 41.167,309.355 41.167 C 309.275 41.167,309.161 41.467,309.103 41.833 C 309.044 42.200,308.922 42.500,308.831 42.500 C 308.741 42.500,308.667 42.612,308.667 42.750 C 308.667 42.887,308.593 43.000,308.502 43.000 C 308.411 43.000,308.289 43.300,308.231 43.667 C 308.172 44.033,308.065 44.333,307.992 44.333 C 307.919 44.333,307.810 44.558,307.750 44.833 C 307.690 45.108,307.571 45.333,307.487 45.333 C 307.402 45.333,307.333 45.483,307.333 45.667 C 307.333 45.850,307.265 46.000,307.181 46.000 C 307.098 46.000,306.979 46.300,306.917 46.667 C 306.855 47.033,306.742 47.333,306.665 47.333 C 306.589 47.333,306.477 47.558,306.417 47.833 C 306.356 48.108,306.238 48.333,306.153 48.333 C 306.069 48.333,306.000 48.521,306.000 48.750 C 306.000 48.979,305.931 49.167,305.847 49.167 C 305.762 49.167,305.644 49.392,305.583 49.667 C 305.523 49.942,305.405 50.167,305.322 50.167 C 305.239 50.167,305.123 50.467,305.064 50.833 C 305.005 51.200,304.892 51.500,304.812 51.500 C 304.732 51.500,304.667 51.612,304.667 51.750 C 304.667 51.887,304.598 52.000,304.515 52.000 C 304.431 52.000,304.312 52.300,304.250 52.667 C 304.188 53.033,304.077 53.333,304.004 53.333 C 303.930 53.333,303.821 53.596,303.761 53.917 C 303.701 54.237,303.580 54.500,303.492 54.500 C 303.405 54.500,303.333 54.612,303.333 54.750 C 303.333 54.887,303.268 55.000,303.188 55.000 C 303.108 55.000,302.995 55.300,302.936 55.667 C 302.877 56.033,302.761 56.333,302.678 56.333 C 302.595 56.333,302.477 56.558,302.417 56.833 C 302.356 57.108,302.238 57.333,302.153 57.333 C 302.069 57.333,302.000 57.521,302.000 57.750 C 302.000 57.979,301.928 58.167,301.841 58.167 C 301.753 58.167,301.633 58.429,301.572 58.750 C 301.512 59.071,301.397 59.333,301.317 59.333 C 301.236 59.333,301.123 59.633,301.064 60.000 C 301.005 60.367,300.892 60.667,300.812 60.667 C 300.732 60.667,300.667 60.779,300.667 60.917 C 300.667 61.054,300.598 61.167,300.513 61.167 C 300.429 61.167,300.310 61.392,300.250 61.667 C 300.190 61.942,300.081 62.167,300.008 62.167 C 299.935 62.167,299.828 62.467,299.769 62.833 C 299.711 63.200,299.589 63.500,299.498 63.500 C 299.407 63.500,299.333 63.612,299.333 63.750 C 299.333 63.887,299.268 64.000,299.188 64.000 C 299.108 64.000,298.995 64.300,298.936 64.667 C 298.877 65.033,298.759 65.333,298.672 65.333 C 298.586 65.333,298.466 65.596,298.406 65.917 C 298.345 66.237,298.230 66.500,298.148 66.500 C 298.067 66.500,298.000 66.725,298.000 67.000 L 298.000 67.500 301.762 67.500 C 305.687 67.500,306.000 67.445,306.000 66.762 C 306.000 66.618,306.067 66.500,306.148 66.500 C 306.230 66.500,306.345 66.237,306.406 65.917 C 306.466 65.596,306.577 65.333,306.653 65.333 C 306.729 65.333,306.839 65.033,306.897 64.667 C 306.956 64.300,307.078 64.000,307.169 64.000 C 307.259 64.000,307.333 63.813,307.333 63.583 C 307.333 63.354,307.402 63.167,307.487 63.167 C 307.571 63.167,307.690 62.942,307.750 62.667 C 307.810 62.392,307.919 62.167,307.992 62.167 C 308.065 62.167,308.172 61.867,308.231 61.500 C 308.289 61.133,308.411 60.833,308.502 60.833 C 308.593 60.833,308.667 60.646,308.667 60.417 C 308.667 60.188,308.734 60.000,308.815 60.000 C 308.897 60.000,309.013 59.803,309.073 59.563 C 309.308 58.629,308.909 58.667,318.667 58.667 C 328.564 58.667,328.025 58.608,328.232 59.713 C 328.296 60.054,328.420 60.333,328.508 60.333 C 328.595 60.333,328.667 60.446,328.667 60.583 C 328.667 60.721,328.732 60.833,328.812 60.833 C 328.892 60.833,329.005 61.133,329.064 61.500 C 329.123 61.867,329.235 62.167,329.314 62.167 C 329.393 62.167,329.505 62.467,329.564 62.833 C 329.623 63.200,329.745 63.500,329.835 63.500 C 329.926 63.500,330.000 63.612,330.000 63.750 C 330.000 63.887,330.065 64.000,330.145 64.000 C 330.225 64.000,330.339 64.300,330.397 64.667 C 330.456 65.033,330.577 65.333,330.667 65.333 C 330.756 65.333,330.877 65.633,330.936 66.000 C 330.995 66.367,331.108 66.667,331.188 66.667 C 331.268 66.667,331.333 66.747,331.333 66.845 C 331.333 67.440,331.739 67.500,335.738 67.500 C 339.119 67.500,339.667 67.465,339.667 67.250 C 339.667 67.112,339.592 67.000,339.500 67.000 C 339.408 67.000,339.333 66.887,339.333 66.750 C 339.333 66.612,339.268 66.500,339.188 66.500 C 339.108 66.500,338.995 66.200,338.936 65.833 C 338.877 65.467,338.764 65.167,338.683 65.167 C 338.603 65.167,338.488 64.904,338.428 64.583 C 338.367 64.262,338.247 64.000,338.159 64.000 C 338.072 64.000,338.000 63.813,338.000 63.583 C 338.000 63.354,337.931 63.167,337.847 63.167 C 337.762 63.167,337.644 62.942,337.583 62.667 C 337.523 62.392,337.405 62.167,337.322 62.167 C 337.239 62.167,337.123 61.867,337.064 61.500 C 337.005 61.133,336.892 60.833,336.812 60.833 C 336.732 60.833,336.667 60.721,336.667 60.583 C 336.667 60.446,336.598 60.333,336.513 60.333 C 336.429 60.333,336.310 60.108,336.250 59.833 C 336.190 59.558,336.081 59.333,336.008 59.333 C 335.935 59.333,335.828 59.033,335.769 58.667 C 335.711 58.300,335.589 58.000,335.498 58.000 C 335.407 58.000,335.333 57.850,335.333 57.667 C 335.333 57.483,335.259 57.333,335.169 57.333 C 335.078 57.333,334.956 57.033,334.897 56.667 C 334.839 56.300,334.731 56.000,334.659 56.000 C 334.586 56.000,334.477 55.775,334.417 55.500 C 334.356 55.225,334.238 55.000,334.153 55.000 C 334.069 55.000,334.000 54.887,334.000 54.750 C 334.000 54.612,333.935 54.500,333.855 54.500 C 333.775 54.500,333.661 54.200,333.603 53.833 C 333.544 53.467,333.425 53.167,333.339 53.167 C 333.252 53.167,333.133 52.904,333.072 52.583 C 333.012 52.262,332.896 52.000,332.815 52.000 C 332.733 52.000,332.667 51.850,332.667 51.667 C 332.667 51.483,332.600 51.333,332.519 51.333 C 332.437 51.333,332.321 51.071,332.261 50.750 C 332.201 50.429,332.081 50.167,331.994 50.167 C 331.908 50.167,331.789 49.867,331.731 49.500 C 331.672 49.133,331.559 48.833,331.479 48.833 C 331.399 48.833,331.333 48.721,331.333 48.583 C 331.333 48.446,331.259 48.333,331.169 48.333 C 331.078 48.333,330.956 48.033,330.897 47.667 C 330.839 47.300,330.731 47.000,330.659 47.000 C 330.586 47.000,330.477 46.775,330.417 46.500 C 330.356 46.225,330.238 46.000,330.153 46.000 C 330.069 46.000,330.000 45.850,330.000 45.667 C 330.000 45.483,329.932 45.333,329.848 45.333 C 329.764 45.333,329.645 45.033,329.583 44.667 C 329.521 44.300,329.408 44.000,329.332 44.000 C 329.256 44.000,329.144 43.775,329.083 43.500 C 329.023 43.225,328.904 43.000,328.820 43.000 C 328.736 43.000,328.667 42.813,328.667 42.583 C 328.667 42.354,328.598 42.167,328.513 42.167 C 328.429 42.167,328.310 41.942,328.250 41.667 C 328.190 41.392,328.072 41.167,327.989 41.167 C 327.905 41.167,327.789 40.867,327.731 40.500 C 327.672 40.133,327.559 39.833,327.479 39.833 C 327.399 39.833,327.333 39.721,327.333 39.583 C 327.333 39.446,327.267 39.333,327.185 39.333 C 327.104 39.333,326.988 39.071,326.928 38.750 C 326.867 38.429,326.753 38.167,326.674 38.167 C 326.594 38.167,326.479 37.867,326.417 37.500 C 326.355 37.133,326.236 36.833,326.152 36.833 C 326.068 36.833,326.000 36.721,326.000 36.583 C 326.000 36.446,325.926 36.333,325.835 36.333 C 325.745 36.333,325.623 36.033,325.564 35.667 C 325.505 35.300,325.398 35.000,325.325 35.000 C 325.253 35.000,325.144 34.775,325.083 34.500 C 325.023 34.225,324.904 34.000,324.820 34.000 C 324.736 34.000,324.667 33.887,324.667 33.750 C 324.667 33.612,324.601 33.500,324.521 33.500 C 324.441 33.500,324.328 33.200,324.269 32.833 C 324.211 32.467,324.097 32.167,324.017 32.167 C 323.936 32.167,323.821 31.904,323.761 31.583 C 323.701 31.262,323.580 31.000,323.492 31.000 C 323.405 31.000,323.333 30.813,323.333 30.583 C 323.333 30.354,323.264 30.167,323.180 30.167 C 323.096 30.167,322.977 29.942,322.917 29.667 C 322.856 29.392,322.738 29.167,322.653 29.167 C 322.569 29.167,322.500 29.054,322.500 28.917 C 322.500 28.702,321.963 28.667,318.667 28.667 C 315.370 28.667,314.833 28.702,314.833 28.917 M332.667 31.833 L 332.667 35.000 338.917 35.000 L 345.167 35.000 345.167 51.250 L 345.167 67.500 349.083 67.500 L 353.000 67.500 353.000 51.250 L 353.000 35.000 359.250 35.000 L 365.500 35.000 365.500 31.833 L 365.500 28.667 349.083 28.667 L 332.667 28.667 332.667 31.833 M375.667 28.917 C 375.667 29.054,375.592 29.167,375.500 29.167 C 375.408 29.167,375.333 29.279,375.333 29.417 C 375.333 29.554,375.262 29.667,375.174 29.667 C 375.087 29.667,374.966 29.929,374.906 30.250 C 374.845 30.571,374.736 30.833,374.663 30.833 C 374.589 30.833,374.479 31.133,374.417 31.500 C 374.355 31.867,374.236 32.167,374.152 32.167 C 374.068 32.167,374.000 32.279,374.000 32.417 C 374.000 32.554,373.926 32.667,373.835 32.667 C 373.745 32.667,373.623 32.967,373.564 33.333 C 373.505 33.700,373.398 34.000,373.325 34.000 C 373.253 34.000,373.144 34.225,373.083 34.500 C 373.023 34.775,372.904 35.000,372.820 35.000 C 372.736 35.000,372.667 35.112,372.667 35.250 C 372.667 35.387,372.601 35.500,372.521 35.500 C 372.441 35.500,372.328 35.800,372.269 36.167 C 372.211 36.533,372.092 36.833,372.006 36.833 C 371.919 36.833,371.799 37.096,371.739 37.417 C 371.679 37.737,371.563 38.000,371.481 38.000 C 371.400 38.000,371.333 38.146,371.333 38.323 C 371.333 38.501,371.264 38.690,371.179 38.742 C 371.095 38.794,370.976 39.061,370.916 39.335 C 370.856 39.609,370.739 39.833,370.655 39.833 C 370.572 39.833,370.456 40.133,370.397 40.500 C 370.339 40.867,370.225 41.167,370.145 41.167 C 370.065 41.167,370.000 41.279,370.000 41.417 C 370.000 41.554,369.926 41.667,369.835 41.667 C 369.745 41.667,369.623 41.967,369.564 42.333 C 369.505 42.700,369.398 43.000,369.325 43.000 C 369.253 43.000,369.144 43.225,369.083 43.500 C 369.023 43.775,368.904 44.000,368.820 44.000 C 368.736 44.000,368.667 44.150,368.667 44.333 C 368.667 44.517,368.598 44.667,368.515 44.667 C 368.431 44.667,368.312 44.967,368.250 45.333 C 368.188 45.700,368.075 46.000,367.999 46.000 C 367.922 46.000,367.810 46.225,367.750 46.500 C 367.690 46.775,367.571 47.000,367.487 47.000 C 367.402 47.000,367.333 47.188,367.333 47.417 C 367.333 47.646,367.264 47.833,367.180 47.833 C 367.096 47.833,366.977 48.058,366.917 48.333 C 366.856 48.608,366.739 48.833,366.655 48.833 C 366.572 48.833,366.456 49.133,366.397 49.500 C 366.339 49.867,366.225 50.167,366.145 50.167 C 366.065 50.167,366.000 50.279,366.000 50.417 C 366.000 50.554,365.933 50.667,365.852 50.667 C 365.770 50.667,365.655 50.929,365.594 51.250 C 365.534 51.571,365.423 51.833,365.347 51.833 C 365.271 51.833,365.161 52.133,365.103 52.500 C 365.044 52.867,364.922 53.167,364.831 53.167 C 364.741 53.167,364.667 53.279,364.667 53.417 C 364.667 53.554,364.601 53.667,364.521 53.667 C 364.441 53.667,364.328 53.967,364.269 54.333 C 364.211 54.700,364.095 55.000,364.011 55.000 C 363.928 55.000,363.810 55.225,363.750 55.500 C 363.690 55.775,363.571 56.000,363.487 56.000 C 363.402 56.000,363.333 56.188,363.333 56.417 C 363.333 56.646,363.262 56.833,363.174 56.833 C 363.087 56.833,362.966 57.096,362.906 57.417 C 362.845 57.737,362.730 58.000,362.650 58.000 C 362.570 58.000,362.456 58.300,362.397 58.667 C 362.339 59.033,362.225 59.333,362.145 59.333 C 362.065 59.333,362.000 59.446,362.000 59.583 C 362.000 59.721,361.931 59.833,361.847 59.833 C 361.762 59.833,361.644 60.058,361.583 60.333 C 361.523 60.608,361.414 60.833,361.341 60.833 C 361.269 60.833,361.161 61.133,361.103 61.500 C 361.044 61.867,360.922 62.167,360.831 62.167 C 360.741 62.167,360.667 62.279,360.667 62.417 C 360.667 62.554,360.593 62.667,360.502 62.667 C 360.411 62.667,360.289 62.967,360.231 63.333 C 360.172 63.700,360.062 64.000,359.986 64.000 C 359.910 64.000,359.799 64.262,359.739 64.583 C 359.679 64.904,359.563 65.167,359.481 65.167 C 359.400 65.167,359.333 65.279,359.333 65.417 C 359.333 65.554,359.268 65.667,359.188 65.667 C 359.108 65.667,358.995 65.967,358.936 66.333 C 358.877 66.700,358.755 67.000,358.665 67.000 C 358.574 67.000,358.500 67.112,358.500 67.250 C 358.500 67.465,359.056 67.500,362.500 67.500 C 365.944 67.500,366.500 67.465,366.500 67.250 C 366.500 67.112,366.574 67.000,366.665 67.000 C 366.755 67.000,366.877 66.700,366.936 66.333 C 366.995 65.967,367.108 65.667,367.188 65.667 C 367.268 65.667,367.333 65.554,367.333 65.417 C 367.333 65.279,367.402 65.167,367.485 65.167 C 367.569 65.167,367.688 64.867,367.750 64.500 C 367.812 64.133,367.924 63.833,368.000 63.833 C 368.076 63.833,368.188 63.533,368.250 63.167 C 368.312 62.800,368.431 62.500,368.515 62.500 C 368.598 62.500,368.667 62.350,368.667 62.167 C 368.667 61.983,368.738 61.833,368.826 61.833 C 368.913 61.833,369.034 61.571,369.094 61.250 C 369.155 60.929,369.264 60.667,369.337 60.667 C 369.411 60.667,369.521 60.367,369.583 60.000 C 369.645 59.633,369.764 59.333,369.848 59.333 C 369.932 59.333,370.000 59.183,370.000 59.000 C 370.000 58.671,370.111 58.667,379.333 58.667 C 388.556 58.667,388.667 58.671,388.667 59.000 C 388.667 59.183,388.741 59.333,388.831 59.333 C 388.922 59.333,389.044 59.633,389.103 60.000 C 389.161 60.367,389.269 60.667,389.341 60.667 C 389.414 60.667,389.523 60.892,389.583 61.167 C 389.644 61.442,389.762 61.667,389.847 61.667 C 389.931 61.667,390.000 61.854,390.000 62.083 C 390.000 62.313,390.069 62.500,390.153 62.500 C 390.238 62.500,390.356 62.725,390.417 63.000 C 390.477 63.275,390.586 63.500,390.659 63.500 C 390.731 63.500,390.839 63.800,390.897 64.167 C 390.956 64.533,391.078 64.833,391.169 64.833 C 391.259 64.833,391.333 65.021,391.333 65.250 C 391.333 65.479,391.402 65.667,391.487 65.667 C 391.571 65.667,391.690 65.892,391.750 66.167 C 391.810 66.442,391.929 66.667,392.013 66.667 C 392.098 66.667,392.167 66.854,392.167 67.083 L 392.167 67.500 396.083 67.500 C 399.925 67.500,400.000 67.493,400.000 67.157 C 400.000 66.599,399.639 65.333,399.480 65.333 C 399.399 65.333,399.333 65.146,399.333 64.917 C 399.333 64.688,399.264 64.500,399.180 64.500 C 399.096 64.500,398.977 64.275,398.917 64.000 C 398.856 63.725,398.739 63.500,398.655 63.500 C 398.572 63.500,398.456 63.200,398.397 62.833 C 398.339 62.467,398.225 62.167,398.145 62.167 C 398.065 62.167,398.000 62.054,398.000 61.917 C 398.000 61.779,397.931 61.667,397.847 61.667 C 397.762 61.667,397.644 61.442,397.583 61.167 C 397.523 60.892,397.414 60.667,397.341 60.667 C 397.269 60.667,397.161 60.367,397.103 60.000 C 397.044 59.633,396.922 59.333,396.831 59.333 C 396.741 59.333,396.667 59.183,396.667 59.000 C 396.667 58.817,396.593 58.667,396.502 58.667 C 396.411 58.667,396.289 58.367,396.231 58.000 C 396.172 57.633,396.065 57.333,395.992 57.333 C 395.919 57.333,395.810 57.108,395.750 56.833 C 395.690 56.558,395.571 56.333,395.487 56.333 C 395.402 56.333,395.333 56.221,395.333 56.083 C 395.333 55.946,395.268 55.833,395.188 55.833 C 395.108 55.833,394.995 55.533,394.936 55.167 C 394.877 54.800,394.759 54.500,394.672 54.500 C 394.586 54.500,394.466 54.237,394.406 53.917 C 394.345 53.596,394.230 53.333,394.148 53.333 C 394.067 53.333,394.000 53.183,394.000 53.000 C 394.000 52.817,393.933 52.667,393.852 52.667 C 393.770 52.667,393.655 52.404,393.594 52.083 C 393.534 51.762,393.414 51.500,393.328 51.500 C 393.241 51.500,393.123 51.200,393.064 50.833 C 393.005 50.467,392.892 50.167,392.812 50.167 C 392.732 50.167,392.667 50.054,392.667 49.917 C 392.667 49.779,392.598 49.667,392.513 49.667 C 392.429 49.667,392.310 49.442,392.250 49.167 C 392.190 48.892,392.081 48.667,392.008 48.667 C 391.935 48.667,391.828 48.367,391.769 48.000 C 391.711 47.633,391.589 47.333,391.498 47.333 C 391.407 47.333,391.333 47.183,391.333 47.000 C 391.333 46.817,391.259 46.667,391.169 46.667 C 391.078 46.667,390.956 46.367,390.897 46.000 C 390.839 45.633,390.731 45.333,390.659 45.333 C 390.586 45.333,390.477 45.108,390.417 44.833 C 390.356 44.558,390.238 44.333,390.153 44.333 C 390.069 44.333,390.000 44.221,390.000 44.083 C 390.000 43.946,389.935 43.833,389.855 43.833 C 389.775 43.833,389.661 43.533,389.603 43.167 C 389.544 42.800,389.428 42.500,389.345 42.500 C 389.261 42.500,389.144 42.276,389.084 42.002 C 389.024 41.728,388.905 41.461,388.821 41.409 C 388.736 41.356,388.667 41.168,388.667 40.990 C 388.667 40.812,388.600 40.667,388.519 40.667 C 388.437 40.667,388.321 40.404,388.261 40.083 C 388.201 39.762,388.090 39.500,388.014 39.500 C 387.938 39.500,387.828 39.200,387.769 38.833 C 387.711 38.467,387.589 38.167,387.498 38.167 C 387.407 38.167,387.333 38.054,387.333 37.917 C 387.333 37.779,387.259 37.667,387.169 37.667 C 387.078 37.667,386.956 37.367,386.897 37.000 C 386.839 36.633,386.731 36.333,386.659 36.333 C 386.586 36.333,386.477 36.108,386.417 35.833 C 386.356 35.558,386.238 35.333,386.153 35.333 C 386.069 35.333,386.000 35.221,386.000 35.083 C 386.000 34.946,385.935 34.833,385.855 34.833 C 385.775 34.833,385.661 34.533,385.603 34.167 C 385.544 33.800,385.430 33.500,385.350 33.500 C 385.270 33.500,385.155 33.237,385.094 32.917 C 385.034 32.596,384.913 32.333,384.826 32.333 C 384.738 32.333,384.667 32.146,384.667 31.917 C 384.667 31.688,384.598 31.500,384.513 31.500 C 384.429 31.500,384.310 31.275,384.250 31.000 C 384.190 30.725,384.072 30.500,383.989 30.500 C 383.905 30.500,383.789 30.200,383.731 29.833 C 383.672 29.467,383.559 29.167,383.479 29.167 C 383.399 29.167,383.333 29.054,383.333 28.917 C 383.333 28.702,382.796 28.667,379.500 28.667 C 376.204 28.667,375.667 28.702,375.667 28.917 M279.000 35.141 C 279.000 35.219,279.881 35.330,280.957 35.387 C 282.048 35.446,282.939 35.568,282.971 35.663 C 283.002 35.757,283.209 35.833,283.431 35.833 C 283.652 35.833,283.833 35.899,283.833 35.979 C 283.833 36.059,284.133 36.172,284.500 36.231 C 284.867 36.289,285.167 36.408,285.167 36.494 C 285.167 36.581,285.429 36.701,285.750 36.761 C 286.071 36.821,286.333 36.937,286.333 37.019 C 286.333 37.100,286.448 37.167,286.589 37.167 C 286.729 37.167,286.887 37.279,286.940 37.417 C 286.992 37.554,287.144 37.667,287.276 37.667 C 287.408 37.667,287.681 37.844,287.883 38.060 C 288.085 38.277,288.415 38.505,288.616 38.569 C 288.818 38.632,289.029 38.830,289.086 39.009 C 289.143 39.187,289.259 39.333,289.345 39.333 C 289.430 39.333,289.500 39.435,289.500 39.560 C 289.500 39.685,289.683 39.924,289.907 40.092 C 290.130 40.260,290.357 40.570,290.410 40.782 C 290.463 40.994,290.574 41.167,290.657 41.167 C 290.739 41.167,290.856 41.392,290.917 41.667 C 290.977 41.942,291.096 42.167,291.180 42.167 C 291.264 42.167,291.333 42.279,291.333 42.417 C 291.333 42.554,291.403 42.667,291.488 42.667 C 291.573 42.667,291.696 43.098,291.761 43.625 C 291.825 44.152,291.962 44.637,292.064 44.702 C 292.326 44.870,292.324 51.632,292.062 51.798 C 291.959 51.863,291.821 52.235,291.756 52.625 C 291.691 53.015,291.569 53.333,291.485 53.333 C 291.402 53.333,291.333 53.483,291.333 53.667 C 291.333 53.850,291.264 54.000,291.180 54.000 C 291.096 54.000,290.977 54.225,290.917 54.500 C 290.856 54.775,290.739 55.000,290.657 55.000 C 290.574 55.000,290.460 55.185,290.403 55.411 C 290.347 55.637,290.161 55.865,289.992 55.919 C 289.822 55.973,289.632 56.179,289.569 56.377 C 289.439 56.790,288.269 58.000,288.001 58.000 C 287.903 58.000,287.781 58.110,287.729 58.244 C 287.678 58.378,287.474 58.538,287.276 58.601 C 287.078 58.663,286.800 58.849,286.657 59.013 C 286.514 59.177,286.195 59.362,285.948 59.424 C 285.702 59.485,285.500 59.593,285.500 59.663 C 285.500 59.733,285.200 59.839,284.833 59.897 C 284.467 59.956,284.167 60.078,284.167 60.169 C 284.167 60.259,283.910 60.333,283.597 60.333 C 283.284 60.333,283.002 60.412,282.969 60.508 C 282.937 60.605,282.219 60.728,281.372 60.783 C 280.526 60.838,279.833 60.947,279.833 61.025 C 279.833 61.103,277.546 61.167,274.750 61.167 L 269.667 61.167 269.667 48.083 L 269.667 35.000 274.333 35.000 C 276.900 35.000,279.000 35.064,279.000 35.141 M318.897 37.500 C 318.956 37.867,319.078 38.167,319.169 38.167 C 319.259 38.167,319.333 38.279,319.333 38.417 C 319.333 38.554,319.399 38.667,319.479 38.667 C 319.559 38.667,319.672 38.967,319.731 39.333 C 319.789 39.700,319.905 40.000,319.987 40.000 C 320.070 40.000,320.188 40.300,320.250 40.667 C 320.312 41.033,320.431 41.333,320.515 41.333 C 320.598 41.333,320.667 41.483,320.667 41.667 C 320.667 41.850,320.735 42.000,320.819 42.000 C 320.902 42.000,321.021 42.300,321.083 42.667 C 321.145 43.033,321.263 43.333,321.346 43.333 C 321.429 43.333,321.544 43.633,321.603 44.000 C 321.661 44.367,321.775 44.667,321.855 44.667 C 321.935 44.667,322.000 44.779,322.000 44.917 C 322.000 45.054,322.074 45.167,322.165 45.167 C 322.255 45.167,322.377 45.467,322.436 45.833 C 322.495 46.200,322.602 46.500,322.675 46.500 C 322.747 46.500,322.856 46.725,322.917 47.000 C 322.977 47.275,323.096 47.500,323.180 47.500 C 323.264 47.500,323.333 47.688,323.333 47.917 C 323.333 48.146,323.407 48.333,323.498 48.333 C 323.589 48.333,323.711 48.633,323.769 49.000 C 323.828 49.367,323.935 49.667,324.008 49.667 C 324.081 49.667,324.190 49.892,324.250 50.167 C 324.310 50.442,324.429 50.667,324.513 50.667 C 324.598 50.667,324.667 50.848,324.667 51.069 C 324.667 51.291,324.740 51.497,324.830 51.528 C 324.919 51.558,325.041 51.827,325.100 52.125 L 325.208 52.667 318.669 52.667 L 312.130 52.667 312.245 52.042 C 312.309 51.698,312.430 51.392,312.514 51.361 C 312.598 51.331,312.667 51.162,312.667 50.986 C 312.667 50.810,312.741 50.667,312.831 50.667 C 312.922 50.667,313.044 50.367,313.103 50.000 C 313.161 49.633,313.274 49.333,313.353 49.333 C 313.432 49.333,313.544 49.033,313.603 48.667 C 313.661 48.300,313.775 48.000,313.855 48.000 C 313.935 48.000,314.000 47.887,314.000 47.750 C 314.000 47.612,314.074 47.500,314.165 47.500 C 314.255 47.500,314.377 47.200,314.436 46.833 C 314.495 46.467,314.602 46.167,314.675 46.167 C 314.747 46.167,314.856 45.942,314.917 45.667 C 314.977 45.392,315.096 45.167,315.180 45.167 C 315.264 45.167,315.333 44.979,315.333 44.750 C 315.333 44.521,315.407 44.333,315.498 44.333 C 315.589 44.333,315.711 44.033,315.769 43.667 C 315.828 43.300,315.935 43.000,316.008 43.000 C 316.081 43.000,316.190 42.775,316.250 42.500 C 316.310 42.225,316.429 42.000,316.513 42.000 C 316.598 42.000,316.667 41.813,316.667 41.583 C 316.667 41.354,316.741 41.167,316.831 41.167 C 316.922 41.167,317.044 40.867,317.103 40.500 C 317.161 40.133,317.271 39.833,317.347 39.833 C 317.423 39.833,317.534 39.571,317.594 39.250 C 317.655 38.929,317.770 38.667,317.852 38.667 C 317.933 38.667,318.000 38.517,318.000 38.333 C 318.000 38.150,318.067 38.000,318.148 38.000 C 318.230 38.000,318.345 37.737,318.406 37.417 C 318.551 36.641,318.766 36.678,318.897 37.500 M379.769 37.833 C 379.828 38.200,379.935 38.500,380.008 38.500 C 380.081 38.500,380.190 38.725,380.250 39.000 C 380.310 39.275,380.429 39.500,380.513 39.500 C 380.598 39.500,380.667 39.688,380.667 39.917 C 380.667 40.146,380.736 40.333,380.820 40.333 C 380.904 40.333,381.023 40.558,381.083 40.833 C 381.144 41.108,381.253 41.333,381.325 41.333 C 381.398 41.333,381.505 41.633,381.564 42.000 C 381.623 42.367,381.745 42.667,381.835 42.667 C 381.926 42.667,382.000 42.817,382.000 43.000 C 382.000 43.183,382.068 43.333,382.152 43.333 C 382.236 43.333,382.355 43.633,382.417 44.000 C 382.479 44.367,382.591 44.667,382.667 44.667 C 382.742 44.667,382.855 44.967,382.917 45.333 C 382.979 45.700,383.098 46.000,383.181 46.000 C 383.265 46.000,383.333 46.112,383.333 46.250 C 383.333 46.387,383.399 46.500,383.479 46.500 C 383.559 46.500,383.672 46.800,383.731 47.167 C 383.789 47.533,383.910 47.833,384.000 47.833 C 384.090 47.833,384.211 48.133,384.269 48.500 C 384.328 48.867,384.441 49.167,384.521 49.167 C 384.601 49.167,384.667 49.279,384.667 49.417 C 384.667 49.554,384.741 49.667,384.831 49.667 C 384.922 49.667,385.044 49.967,385.103 50.333 C 385.161 50.700,385.274 51.000,385.353 51.000 C 385.432 51.000,385.544 51.300,385.603 51.667 C 385.661 52.033,385.775 52.333,385.855 52.333 C 385.935 52.333,386.000 52.408,386.000 52.500 C 386.000 52.608,383.667 52.667,379.333 52.667 C 375.000 52.667,372.667 52.608,372.667 52.500 C 372.667 52.408,372.736 52.333,372.820 52.333 C 372.904 52.333,373.023 52.108,373.083 51.833 C 373.144 51.558,373.253 51.333,373.325 51.333 C 373.398 51.333,373.505 51.033,373.564 50.667 C 373.623 50.300,373.745 50.000,373.835 50.000 C 373.926 50.000,374.000 49.850,374.000 49.667 C 374.000 49.483,374.068 49.333,374.152 49.333 C 374.236 49.333,374.355 49.033,374.417 48.667 C 374.479 48.300,374.591 48.000,374.667 48.000 C 374.742 48.000,374.855 47.700,374.917 47.333 C 374.979 46.967,375.098 46.667,375.181 46.667 C 375.265 46.667,375.333 46.554,375.333 46.417 C 375.333 46.279,375.399 46.167,375.479 46.167 C 375.559 46.167,375.672 45.867,375.731 45.500 C 375.789 45.133,375.910 44.833,376.000 44.833 C 376.090 44.833,376.211 44.533,376.269 44.167 C 376.328 43.800,376.441 43.500,376.521 43.500 C 376.601 43.500,376.667 43.387,376.667 43.250 C 376.667 43.112,376.732 43.000,376.812 43.000 C 376.892 43.000,377.005 42.700,377.064 42.333 C 377.123 41.967,377.244 41.667,377.333 41.667 C 377.423 41.667,377.544 41.367,377.603 41.000 C 377.661 40.633,377.775 40.333,377.855 40.333 C 377.935 40.333,378.000 40.221,378.000 40.083 C 378.000 39.946,378.074 39.833,378.165 39.833 C 378.255 39.833,378.377 39.533,378.436 39.167 C 378.495 38.800,378.607 38.500,378.686 38.500 C 378.765 38.500,378.877 38.200,378.936 37.833 C 379.016 37.333,379.120 37.167,379.353 37.167 C 379.586 37.167,379.689 37.333,379.769 37.833 " stroke="none" fill="#fcfcfc" fill-rule="evenodd"></path><path id="path1" d="M29.917 0.192 C 28.542 0.270,27.286 0.409,27.127 0.500 C 26.968 0.592,26.424 0.667,25.919 0.667 C 25.414 0.667,25.000 0.733,25.000 0.814 C 25.000 0.894,24.287 1.014,23.417 1.079 C 22.546 1.144,21.833 1.257,21.833 1.329 C 21.833 1.402,21.271 1.514,20.583 1.578 C 19.896 1.642,19.333 1.764,19.333 1.848 C 19.333 1.931,19.113 2.000,18.843 2.000 C 18.574 2.000,18.313 2.065,18.264 2.145 C 18.214 2.224,17.722 2.341,17.170 2.403 C 16.618 2.465,16.167 2.578,16.167 2.653 C 16.167 2.729,15.795 2.840,15.340 2.900 C 14.886 2.960,14.469 3.082,14.414 3.171 C 14.359 3.261,14.131 3.333,13.907 3.333 C 13.683 3.333,13.500 3.399,13.500 3.479 C 13.500 3.559,13.185 3.674,12.800 3.736 C 12.415 3.798,12.021 3.909,11.925 3.983 C 11.829 4.057,11.356 4.256,10.875 4.425 C 10.394 4.594,10.000 4.793,10.000 4.866 C 10.000 4.940,9.875 5.000,9.722 5.000 C 9.354 5.000,7.333 5.988,7.333 6.167 C 7.333 6.244,7.108 6.356,6.833 6.417 C 6.558 6.477,6.333 6.596,6.333 6.680 C 6.333 6.764,6.224 6.833,6.091 6.833 C 5.958 6.833,5.661 7.021,5.432 7.250 C 5.203 7.479,4.948 7.667,4.867 7.667 C 4.785 7.667,4.583 7.817,4.417 8.000 C 4.251 8.183,4.060 8.333,3.993 8.333 C 3.807 8.333,2.000 10.150,2.000 10.337 C 2.000 10.427,1.930 10.500,1.845 10.500 C 1.759 10.500,1.637 10.665,1.573 10.867 C 1.508 11.069,1.353 11.337,1.228 11.462 C 1.103 11.588,1.000 11.798,1.000 11.929 C 1.000 12.060,0.936 12.167,0.859 12.167 C 0.185 12.167,0.167 12.820,0.167 36.763 C 0.167 60.557,0.174 60.829,0.811 61.333 C 0.869 61.379,1.103 61.773,1.330 62.208 C 1.557 62.644,1.801 63.000,1.872 63.000 C 1.942 63.000,2.000 63.082,2.000 63.181 C 2.000 63.415,3.762 65.167,3.998 65.167 C 4.097 65.167,4.219 65.276,4.271 65.410 C 4.322 65.544,4.520 65.703,4.710 65.764 C 4.900 65.824,5.234 66.052,5.452 66.270 C 5.670 66.488,5.958 66.667,6.091 66.667 C 6.224 66.667,6.333 66.736,6.333 66.820 C 6.333 66.904,6.558 67.023,6.833 67.083 C 7.108 67.144,7.333 67.256,7.333 67.333 C 7.333 67.512,9.354 68.500,9.722 68.500 C 9.875 68.500,10.000 68.557,10.000 68.626 C 10.000 68.772,10.709 69.098,11.377 69.259 C 11.630 69.320,11.875 69.433,11.922 69.509 C 11.969 69.585,12.344 69.698,12.754 69.759 C 13.164 69.821,13.500 69.938,13.500 70.019 C 13.500 70.100,13.688 70.167,13.917 70.167 C 14.146 70.167,14.333 70.236,14.333 70.321 C 14.333 70.406,14.746 70.528,15.250 70.591 C 15.754 70.654,16.167 70.768,16.167 70.844 C 16.167 70.921,16.617 71.034,17.167 71.097 C 17.717 71.159,18.167 71.275,18.167 71.355 C 18.167 71.435,18.429 71.500,18.750 71.500 C 19.071 71.500,19.333 71.569,19.333 71.652 C 19.333 71.736,19.896 71.858,20.583 71.922 C 21.271 71.986,21.833 72.098,21.833 72.171 C 21.833 72.243,22.546 72.356,23.417 72.421 C 24.287 72.486,25.000 72.599,25.000 72.672 C 25.000 72.745,25.469 72.844,26.042 72.892 C 26.615 72.940,27.758 73.070,28.583 73.181 C 30.261 73.407,48.266 73.506,49.023 73.293 C 49.357 73.199,49.489 73.029,49.572 72.585 C 49.632 72.263,49.753 72.000,49.841 72.000 C 49.928 72.000,50.000 71.813,50.000 71.583 C 50.000 71.354,50.069 71.167,50.153 71.167 C 50.238 71.167,50.356 70.942,50.417 70.667 C 50.477 70.392,50.592 70.167,50.672 70.167 C 50.753 70.167,50.870 69.885,50.933 69.542 C 50.996 69.198,51.094 68.879,51.149 68.833 C 51.435 68.598,51.833 67.636,51.833 67.183 C 51.833 66.668,50.867 66.375,50.598 66.809 C 50.550 66.887,49.439 67.002,48.130 67.063 C 46.821 67.125,44.813 67.229,43.667 67.294 C 41.121 67.440,38.927 67.441,36.833 67.297 C 35.962 67.237,33.994 67.135,32.458 67.072 C 30.923 67.008,29.667 66.900,29.667 66.832 C 29.667 66.765,28.767 66.656,27.667 66.590 C 26.567 66.524,25.667 66.410,25.667 66.335 C 25.667 66.260,25.310 66.163,24.875 66.118 C 24.440 66.074,23.933 65.999,23.750 65.952 C 23.567 65.905,23.004 65.812,22.500 65.746 C 21.996 65.680,21.508 65.567,21.417 65.496 C 21.325 65.424,20.744 65.313,20.125 65.247 C 19.506 65.181,19.000 65.070,19.000 65.000 C 19.000 64.929,18.794 64.833,18.542 64.786 C 18.290 64.739,17.896 64.648,17.667 64.583 C 17.438 64.519,17.044 64.428,16.792 64.381 C 16.540 64.334,16.333 64.238,16.333 64.167 C 16.333 64.096,15.996 63.987,15.583 63.925 C 15.171 63.864,14.833 63.743,14.833 63.656 C 14.833 63.570,14.665 63.500,14.458 63.499 C 14.252 63.498,13.869 63.386,13.606 63.249 C 13.343 63.112,13.025 63.000,12.898 63.000 C 12.771 63.000,12.667 62.928,12.667 62.841 C 12.667 62.753,12.404 62.633,12.083 62.572 C 11.763 62.512,11.500 62.402,11.500 62.328 C 11.500 62.254,11.275 62.144,11.000 62.083 C 10.725 62.023,10.500 61.904,10.500 61.820 C 10.500 61.736,10.394 61.667,10.264 61.667 C 10.134 61.667,10.003 61.610,9.972 61.542 C 9.942 61.473,9.633 61.272,9.285 61.095 C 8.938 60.919,8.443 60.572,8.185 60.326 C 7.927 60.079,7.649 59.849,7.566 59.814 C 6.806 59.490,6.417 58.412,6.369 56.500 C 6.342 55.446,6.380 54.658,6.452 54.750 C 6.703 55.068,8.471 56.000,8.824 56.000 C 8.921 56.000,9.000 56.075,9.000 56.167 C 9.000 56.258,9.146 56.333,9.323 56.333 C 9.501 56.333,9.682 56.390,9.725 56.459 C 9.767 56.528,10.353 56.772,11.026 57.001 C 11.699 57.229,12.287 57.458,12.333 57.508 C 12.465 57.653,14.171 58.167,14.519 58.167 C 14.692 58.167,14.833 58.236,14.833 58.321 C 14.833 58.406,15.246 58.528,15.750 58.591 C 16.254 58.654,16.667 58.763,16.667 58.834 C 16.667 58.966,16.832 59.011,18.667 59.371 C 19.262 59.488,19.826 59.633,19.920 59.695 C 20.013 59.756,20.632 59.859,21.295 59.924 C 21.958 59.990,22.500 60.108,22.500 60.188 C 22.500 60.268,22.842 60.333,23.261 60.333 C 23.679 60.333,24.154 60.404,24.315 60.490 C 24.477 60.577,25.391 60.700,26.346 60.765 C 27.302 60.829,28.122 60.941,28.170 61.014 C 28.217 61.086,29.661 61.199,31.378 61.264 C 33.095 61.330,34.500 61.447,34.500 61.525 C 34.500 61.603,37.087 61.667,40.250 61.667 C 43.413 61.667,46.000 61.603,46.000 61.525 C 46.000 61.447,47.406 61.330,49.125 61.265 C 50.844 61.200,52.275 61.076,52.306 60.990 C 52.336 60.904,52.810 60.833,53.358 60.833 C 54.436 60.833,55.000 60.631,55.000 60.244 C 55.000 60.110,55.063 60.000,55.140 60.000 C 55.216 60.000,55.419 59.587,55.591 59.083 C 55.762 58.579,55.954 58.167,56.016 58.167 C 56.079 58.167,56.180 57.960,56.241 57.708 C 56.396 57.066,56.727 56.333,56.861 56.333 C 56.923 56.333,57.026 56.090,57.091 55.792 C 57.156 55.494,57.280 55.205,57.367 55.149 C 57.715 54.927,57.747 53.612,57.399 53.797 C 57.226 53.889,56.408 54.020,55.583 54.087 C 54.758 54.155,54.045 54.269,53.998 54.342 C 53.951 54.414,52.920 54.528,51.707 54.594 C 50.493 54.660,49.500 54.778,49.500 54.857 C 49.500 54.936,48.679 55.000,47.677 55.000 C 46.641 55.000,45.809 55.072,45.750 55.167 C 45.615 55.386,34.500 55.396,34.500 55.177 C 34.500 55.091,33.694 54.984,32.708 54.939 C 30.475 54.837,26.639 54.453,26.417 54.309 C 26.325 54.250,25.594 54.147,24.792 54.081 C 23.990 54.015,23.333 53.894,23.333 53.814 C 23.333 53.733,23.038 53.667,22.677 53.667 C 22.315 53.667,21.979 53.601,21.929 53.520 C 21.879 53.439,21.350 53.320,20.754 53.257 C 20.158 53.193,19.633 53.080,19.587 53.006 C 19.542 52.933,19.092 52.821,18.588 52.758 C 18.084 52.695,17.629 52.574,17.576 52.488 C 17.523 52.403,17.297 52.333,17.073 52.333 C 16.850 52.333,16.667 52.265,16.667 52.182 C 16.667 52.099,16.292 51.980,15.833 51.917 C 15.375 51.854,15.000 51.741,15.000 51.666 C 15.000 51.591,14.700 51.479,14.333 51.417 C 13.967 51.355,13.667 51.236,13.667 51.152 C 13.667 51.068,13.521 51.000,13.343 51.000 C 13.165 51.000,12.977 50.931,12.925 50.846 C 12.872 50.762,12.605 50.643,12.331 50.583 C 12.057 50.523,11.833 50.413,11.833 50.338 C 11.833 50.264,11.632 50.152,11.385 50.090 C 11.139 50.028,10.745 49.843,10.510 49.677 C 10.275 49.512,9.902 49.321,9.679 49.251 C 9.190 49.099,9.261 49.153,7.351 47.457 C 7.066 47.204,6.833 46.892,6.833 46.763 C 6.833 46.633,6.740 46.497,6.625 46.459 C 6.480 46.410,6.400 45.827,6.360 44.528 C 6.300 42.540,6.372 42.379,7.045 43.006 C 7.246 43.193,7.580 43.389,7.788 43.441 C 7.996 43.493,8.167 43.597,8.167 43.671 C 8.167 43.746,8.391 43.856,8.665 43.916 C 8.939 43.976,9.206 44.095,9.258 44.179 C 9.310 44.264,9.499 44.333,9.677 44.333 C 9.854 44.333,10.000 44.407,10.000 44.498 C 10.000 44.589,10.300 44.711,10.667 44.769 C 11.033 44.828,11.333 44.940,11.333 45.019 C 11.333 45.098,11.633 45.211,12.000 45.269 C 12.367 45.328,12.667 45.441,12.667 45.521 C 12.667 45.601,12.854 45.667,13.083 45.667 C 13.313 45.667,13.500 45.735,13.500 45.818 C 13.500 45.901,13.875 46.020,14.333 46.083 C 14.792 46.146,15.167 46.257,15.167 46.330 C 15.167 46.402,15.579 46.513,16.083 46.576 C 16.588 46.639,17.000 46.752,17.000 46.827 C 17.000 46.902,17.244 47.005,17.542 47.055 C 17.840 47.105,18.646 47.270,19.333 47.421 C 20.021 47.572,21.202 47.779,21.958 47.880 C 22.715 47.981,23.333 48.125,23.333 48.199 C 23.333 48.273,23.693 48.333,24.133 48.333 C 24.573 48.333,25.005 48.404,25.092 48.489 C 25.179 48.575,26.113 48.698,27.167 48.761 C 28.221 48.825,29.169 48.945,29.274 49.027 C 29.378 49.110,31.460 49.225,33.899 49.282 C 36.338 49.340,38.333 49.450,38.333 49.527 C 38.333 49.604,39.158 49.667,40.167 49.667 C 41.175 49.667,42.000 49.604,42.000 49.527 C 42.000 49.450,44.034 49.339,46.521 49.280 C 49.007 49.221,51.126 49.105,51.229 49.023 C 51.332 48.940,52.298 48.819,53.375 48.753 C 54.452 48.687,55.333 48.566,55.333 48.484 C 55.333 48.401,55.704 48.333,56.157 48.333 C 56.610 48.333,57.022 48.266,57.073 48.184 C 57.123 48.102,57.765 47.982,58.499 47.917 C 59.233 47.852,59.833 47.731,59.833 47.649 C 59.833 47.567,60.055 47.500,60.327 47.500 C 60.758 47.500,60.845 47.416,61.020 46.833 C 61.130 46.467,61.279 46.167,61.352 46.167 C 61.425 46.167,61.534 45.904,61.594 45.583 C 61.655 45.262,61.770 45.000,61.852 45.000 C 61.933 45.000,62.000 44.850,62.000 44.667 C 62.000 44.483,62.075 44.333,62.167 44.333 C 62.258 44.333,62.336 44.240,62.339 44.125 C 62.342 44.010,62.490 43.617,62.667 43.250 C 62.844 42.883,62.991 42.452,62.994 42.292 C 62.997 42.131,63.075 42.000,63.167 42.000 C 63.258 42.000,63.333 41.856,63.333 41.681 C 63.333 41.505,63.403 41.336,63.488 41.306 C 63.573 41.275,63.693 41.044,63.756 40.792 C 63.872 40.324,62.694 40.051,62.426 40.484 C 62.375 40.567,61.939 40.684,61.458 40.744 C 60.977 40.803,60.433 40.916,60.250 40.995 C 59.857 41.163,58.198 41.511,57.250 41.624 C 56.883 41.668,56.508 41.763,56.417 41.835 C 56.325 41.907,55.575 42.020,54.750 42.086 C 53.925 42.152,53.175 42.263,53.083 42.332 C 52.992 42.401,52.129 42.510,51.167 42.574 C 50.204 42.638,49.117 42.733,48.750 42.784 C 48.383 42.835,46.958 42.908,45.583 42.947 C 44.208 42.986,43.012 43.088,42.925 43.175 C 42.708 43.391,37.667 43.383,37.667 43.167 C 37.667 43.063,36.676 43.000,35.028 43.000 C 33.576 43.000,32.337 42.948,32.274 42.885 C 32.143 42.754,32.093 42.749,29.417 42.585 C 28.317 42.518,27.342 42.405,27.250 42.333 C 27.158 42.262,26.389 42.150,25.541 42.084 C 24.692 42.018,23.956 41.897,23.906 41.816 C 23.855 41.734,23.531 41.667,23.185 41.667 C 22.839 41.667,22.499 41.610,22.431 41.542 C 22.362 41.473,22.256 41.411,22.194 41.405 C 21.111 41.286,20.145 41.100,20.081 40.997 C 20.037 40.925,19.550 40.814,19.000 40.750 C 18.450 40.686,18.000 40.575,18.000 40.503 C 18.000 40.387,17.593 40.270,16.628 40.110 C 16.470 40.084,16.289 40.011,16.226 39.948 C 16.163 39.885,15.936 39.833,15.722 39.833 C 15.508 39.833,15.333 39.765,15.333 39.681 C 15.333 39.598,15.033 39.479,14.667 39.417 C 14.300 39.355,14.000 39.236,14.000 39.152 C 14.000 39.068,13.817 39.000,13.593 39.000 C 13.369 39.000,13.139 38.924,13.082 38.831 C 13.024 38.737,12.907 38.704,12.822 38.757 C 12.736 38.810,12.667 38.774,12.667 38.677 C 12.667 38.579,12.517 38.500,12.333 38.500 C 12.150 38.500,12.000 38.425,12.000 38.333 C 12.000 38.242,11.914 38.167,11.810 38.167 C 11.557 38.167,10.098 37.451,10.028 37.292 C 9.997 37.223,9.866 37.167,9.736 37.167 C 9.606 37.167,9.500 37.097,9.500 37.011 C 9.500 36.926,9.331 36.803,9.125 36.739 C 8.919 36.674,8.712 36.575,8.667 36.518 C 8.621 36.461,8.229 36.153,7.797 35.832 C 7.364 35.512,7.008 35.162,7.005 35.054 C 7.002 34.946,6.869 34.726,6.708 34.566 C 6.472 34.330,6.406 33.911,6.360 32.368 L 6.304 30.460 6.689 30.730 C 6.901 30.879,7.207 31.000,7.370 31.000 C 7.533 31.000,7.667 31.070,7.667 31.155 C 7.667 31.241,7.835 31.364,8.042 31.428 C 8.248 31.492,8.454 31.595,8.500 31.656 C 8.637 31.839,9.780 32.333,10.067 32.333 C 10.213 32.333,10.333 32.407,10.333 32.498 C 10.333 32.589,10.633 32.711,11.000 32.769 C 11.367 32.828,11.667 32.941,11.667 33.021 C 11.667 33.101,11.812 33.167,11.990 33.167 C 12.168 33.167,12.356 33.235,12.408 33.319 C 12.459 33.403,12.801 33.522,13.167 33.583 C 13.532 33.645,13.870 33.757,13.916 33.832 C 13.962 33.907,14.375 34.020,14.834 34.083 C 15.292 34.146,15.667 34.266,15.667 34.349 C 15.667 34.432,15.850 34.500,16.073 34.500 C 16.297 34.500,16.523 34.570,16.576 34.655 C 16.629 34.740,17.084 34.862,17.588 34.924 C 18.092 34.987,18.541 35.099,18.587 35.172 C 18.632 35.245,19.231 35.358,19.918 35.422 C 20.605 35.486,21.167 35.605,21.167 35.686 C 21.167 35.767,21.462 35.833,21.823 35.833 C 22.185 35.833,22.522 35.900,22.572 35.982 C 22.623 36.064,23.359 36.185,24.207 36.251 C 25.056 36.316,25.827 36.432,25.922 36.508 C 26.016 36.584,27.066 36.699,28.255 36.764 C 29.521 36.833,30.466 36.958,30.536 37.066 C 30.704 37.327,49.796 37.327,49.964 37.066 C 50.034 36.958,50.979 36.833,52.245 36.764 C 53.434 36.699,54.484 36.584,54.578 36.508 C 54.673 36.432,55.444 36.316,56.293 36.251 C 57.141 36.185,57.877 36.064,57.928 35.982 C 57.978 35.900,58.315 35.833,58.677 35.833 C 59.038 35.833,59.333 35.768,59.333 35.688 C 59.333 35.608,59.857 35.492,60.496 35.428 C 61.136 35.365,61.697 35.253,61.742 35.179 C 61.788 35.105,62.278 34.993,62.830 34.930 C 63.382 34.868,63.833 34.746,63.833 34.658 C 63.833 34.571,64.054 34.500,64.323 34.500 C 64.593 34.500,64.857 34.429,64.911 34.343 C 64.964 34.257,65.344 34.136,65.754 34.074 C 66.164 34.013,66.500 33.896,66.500 33.814 C 66.500 33.733,66.594 33.666,66.708 33.665 C 66.924 33.664,67.333 32.933,67.333 32.550 C 67.333 32.431,67.408 32.333,67.500 32.333 C 67.592 32.333,67.669 32.240,67.672 32.125 C 67.675 32.010,67.823 31.617,68.000 31.250 C 68.177 30.883,68.325 30.452,68.328 30.292 C 68.331 30.131,68.390 30.000,68.459 30.000 C 68.529 30.000,68.689 29.756,68.815 29.458 C 68.941 29.160,69.141 28.692,69.259 28.417 C 69.377 28.142,69.527 27.729,69.593 27.500 C 69.658 27.271,69.758 27.046,69.814 27.000 C 70.042 26.815,70.333 26.150,70.333 25.815 C 70.333 25.444,69.403 25.451,69.173 25.823 C 69.122 25.906,68.874 26.025,68.623 26.088 C 68.372 26.151,68.167 26.270,68.167 26.351 C 68.167 26.433,67.979 26.500,67.750 26.500 C 67.521 26.500,67.333 26.574,67.333 26.665 C 67.333 26.755,67.033 26.877,66.667 26.936 C 66.300 26.995,66.000 27.101,66.000 27.173 C 66.000 27.245,65.700 27.355,65.333 27.417 C 64.967 27.479,64.667 27.598,64.667 27.681 C 64.667 27.765,64.442 27.833,64.167 27.833 C 63.892 27.833,63.667 27.901,63.667 27.984 C 63.667 28.067,63.292 28.187,62.833 28.250 C 62.375 28.313,62.000 28.425,62.000 28.499 C 62.000 28.573,61.550 28.686,61.000 28.750 C 60.450 28.814,59.958 28.934,59.907 29.016 C 59.855 29.099,59.560 29.167,59.250 29.167 C 58.940 29.167,58.643 29.237,58.590 29.322 C 58.537 29.408,57.895 29.530,57.164 29.594 C 56.432 29.657,55.833 29.769,55.833 29.841 C 55.833 29.913,55.008 30.025,54.000 30.091 C 52.992 30.156,52.167 30.275,52.167 30.355 C 52.167 30.435,51.619 30.500,50.950 30.500 C 50.199 30.500,49.654 30.580,49.525 30.708 C 49.222 31.012,31.112 31.012,30.808 30.708 C 30.683 30.583,30.153 30.500,29.477 30.500 C 28.859 30.500,28.312 30.434,28.262 30.353 C 28.213 30.273,27.458 30.153,26.586 30.088 C 25.714 30.022,24.964 29.910,24.919 29.838 C 24.875 29.766,24.200 29.653,23.419 29.588 C 22.639 29.523,22.000 29.402,22.000 29.318 C 22.000 29.235,21.742 29.167,21.427 29.167 C 21.111 29.167,20.810 29.098,20.758 29.013 C 20.706 28.929,20.176 28.807,19.582 28.744 C 18.987 28.680,18.500 28.567,18.500 28.493 C 18.500 28.418,18.087 28.306,17.583 28.243 C 17.079 28.180,16.667 28.062,16.667 27.981 C 16.667 27.900,16.479 27.833,16.250 27.833 C 16.021 27.833,15.833 27.767,15.833 27.686 C 15.833 27.604,15.496 27.487,15.083 27.425 C 14.671 27.364,14.333 27.252,14.333 27.177 C 14.333 27.103,14.090 26.993,13.793 26.934 C 13.107 26.796,12.333 26.457,12.333 26.293 C 12.333 26.223,12.249 26.167,12.145 26.167 C 11.938 26.167,9.800 25.154,9.667 24.993 C 9.621 24.938,9.471 24.839,9.333 24.773 C 8.721 24.481,8.349 24.200,7.617 23.477 C 7.186 23.051,6.833 22.620,6.833 22.518 C 6.833 22.417,6.759 22.333,6.669 22.333 C 6.578 22.333,6.456 22.033,6.397 21.667 C 6.339 21.300,6.225 21.000,6.145 21.000 C 6.065 21.000,6.000 20.625,6.000 20.167 C 6.000 19.708,5.925 19.333,5.833 19.333 C 5.742 19.333,5.667 18.958,5.667 18.500 C 5.667 18.042,5.742 17.667,5.833 17.667 C 5.925 17.667,6.000 17.334,6.000 16.927 C 6.000 16.519,6.065 16.146,6.145 16.097 C 6.225 16.047,6.336 15.779,6.392 15.500 C 6.508 14.919,6.595 14.801,7.814 13.571 C 8.307 13.074,8.813 12.667,8.939 12.667 C 9.064 12.667,9.167 12.597,9.167 12.511 C 9.167 12.426,9.335 12.303,9.542 12.239 C 9.748 12.174,9.954 12.075,10.000 12.018 C 10.131 11.856,12.249 10.833,12.454 10.833 C 12.556 10.833,12.673 10.740,12.715 10.625 C 12.842 10.275,13.396 10.721,13.565 11.309 C 13.647 11.597,13.779 11.833,13.857 11.833 C 13.936 11.833,14.000 11.946,14.000 12.083 C 14.000 12.221,14.065 12.333,14.145 12.333 C 14.225 12.333,14.339 12.633,14.397 13.000 C 14.456 13.367,14.572 13.667,14.655 13.667 C 14.739 13.667,14.856 13.891,14.916 14.165 C 14.976 14.439,15.095 14.706,15.179 14.758 C 15.264 14.810,15.333 14.999,15.333 15.177 C 15.333 15.354,15.400 15.500,15.481 15.500 C 15.563 15.500,15.679 15.762,15.739 16.083 C 15.799 16.404,15.905 16.667,15.973 16.667 C 16.042 16.667,16.238 17.079,16.409 17.583 C 16.581 18.087,16.778 18.500,16.847 18.500 C 16.917 18.500,17.023 18.725,17.083 19.000 C 17.144 19.275,17.253 19.500,17.325 19.500 C 17.398 19.500,17.505 19.800,17.564 20.167 C 17.623 20.533,17.745 20.833,17.835 20.833 C 17.926 20.833,18.000 20.983,18.000 21.167 C 18.000 21.350,18.072 21.500,18.159 21.500 C 18.247 21.500,18.367 21.762,18.428 22.083 C 18.488 22.404,18.595 22.667,18.667 22.667 C 18.738 22.667,18.845 22.929,18.906 23.250 C 18.966 23.571,19.087 23.833,19.174 23.833 C 19.262 23.833,19.333 23.920,19.333 24.026 C 19.333 24.331,20.691 25.502,21.158 25.599 C 21.392 25.647,21.714 25.757,21.873 25.843 C 22.258 26.052,23.953 26.044,24.083 25.833 C 24.140 25.742,24.388 25.666,24.635 25.666 C 24.882 25.665,25.298 25.553,25.561 25.416 C 25.823 25.279,26.142 25.167,26.269 25.167 C 26.396 25.167,26.500 25.093,26.500 25.002 C 26.500 24.911,26.800 24.789,27.167 24.731 C 27.533 24.672,27.833 24.567,27.833 24.498 C 27.833 24.429,28.246 24.320,28.750 24.257 C 29.254 24.194,29.667 24.073,29.667 23.988 C 29.667 23.903,29.967 23.833,30.333 23.833 C 30.700 23.833,31.000 23.765,31.000 23.682 C 31.000 23.598,31.656 23.481,32.458 23.421 C 33.260 23.361,34.097 23.223,34.317 23.115 C 34.864 22.844,46.129 22.838,46.300 23.109 C 46.364 23.210,47.110 23.348,47.958 23.414 C 48.806 23.481,49.500 23.602,49.500 23.684 C 49.500 23.766,49.721 23.833,49.990 23.833 C 50.260 23.833,50.521 23.900,50.571 23.981 C 50.621 24.061,51.076 24.179,51.581 24.243 C 52.087 24.306,52.500 24.420,52.500 24.497 C 52.500 24.574,52.819 24.691,53.208 24.756 C 53.598 24.821,53.954 24.926,54.000 24.990 C 54.144 25.191,55.488 25.667,55.910 25.667 C 56.132 25.667,56.360 25.742,56.417 25.833 C 56.551 26.050,58.449 26.050,58.583 25.833 C 58.640 25.742,58.864 25.667,59.081 25.667 C 59.298 25.667,59.589 25.554,59.726 25.417 C 59.864 25.279,60.030 25.167,60.095 25.167 C 60.203 25.167,60.727 24.627,61.303 23.925 C 61.424 23.777,61.565 23.396,61.616 23.078 C 61.668 22.760,61.757 22.500,61.814 22.500 C 61.872 22.500,62.023 22.256,62.150 21.958 C 62.277 21.660,62.520 21.102,62.690 20.717 C 62.861 20.333,63.000 19.902,63.000 19.759 C 63.000 19.617,63.057 19.500,63.127 19.500 C 63.282 19.500,63.833 18.263,63.833 17.916 C 63.833 17.779,63.902 17.667,63.987 17.667 C 64.071 17.667,64.190 17.442,64.250 17.167 C 64.310 16.892,64.429 16.667,64.513 16.667 C 64.598 16.667,64.667 16.479,64.667 16.250 C 64.667 16.021,64.742 15.833,64.833 15.833 C 64.925 15.833,65.003 15.740,65.006 15.625 C 65.009 15.510,65.156 15.117,65.333 14.750 C 65.510 14.383,65.658 13.952,65.661 13.792 C 65.664 13.631,65.742 13.500,65.833 13.500 C 65.925 13.500,66.000 13.350,66.000 13.167 C 66.000 12.983,66.075 12.833,66.167 12.833 C 66.258 12.833,66.334 12.740,66.334 12.625 C 66.335 12.510,66.440 12.215,66.569 11.970 C 66.697 11.724,66.852 11.292,66.914 11.011 C 67.022 10.521,67.833 10.211,67.833 10.659 C 67.833 10.747,68.096 10.867,68.417 10.928 C 68.737 10.988,69.001 11.085,69.002 11.144 C 69.003 11.202,69.322 11.399,69.710 11.582 C 70.099 11.765,70.516 12.009,70.637 12.124 C 70.758 12.239,70.964 12.333,71.095 12.333 C 71.226 12.333,71.333 12.408,71.333 12.500 C 71.333 12.592,71.436 12.667,71.561 12.667 C 71.885 12.667,73.596 14.404,73.860 15.001 C 73.982 15.275,74.138 15.500,74.207 15.500 C 74.277 15.500,74.333 15.650,74.333 15.833 C 74.333 16.154,74.444 16.167,77.358 16.167 L 80.383 16.167 80.283 14.628 C 80.228 13.781,80.105 13.063,80.008 13.031 C 79.912 12.998,79.833 12.859,79.833 12.720 C 79.833 12.442,79.369 11.550,79.042 11.199 C 78.927 11.077,78.833 10.912,78.833 10.833 C 78.833 10.714,78.009 9.731,77.545 9.297 C 77.474 9.231,77.095 8.874,76.702 8.505 C 76.308 8.136,75.918 7.833,75.834 7.833 C 75.750 7.833,75.503 7.655,75.285 7.437 C 75.067 7.218,74.726 6.988,74.528 6.925 C 74.329 6.862,74.167 6.747,74.167 6.669 C 74.167 6.590,73.942 6.477,73.667 6.417 C 73.392 6.356,73.167 6.238,73.167 6.153 C 73.167 6.069,73.054 6.000,72.917 6.000 C 72.779 6.000,72.667 5.931,72.667 5.847 C 72.667 5.762,72.442 5.644,72.167 5.583 C 71.892 5.523,71.667 5.413,71.667 5.339 C 71.667 5.264,71.410 5.156,71.095 5.097 C 70.781 5.038,70.500 4.929,70.470 4.855 C 70.398 4.676,67.723 3.667,67.319 3.667 C 67.144 3.667,67.000 3.592,67.000 3.500 C 67.000 3.408,66.817 3.333,66.593 3.333 C 66.369 3.333,66.144 3.265,66.093 3.182 C 66.042 3.099,65.625 2.980,65.166 2.917 C 64.708 2.854,64.333 2.741,64.333 2.667 C 64.333 2.593,63.883 2.481,63.333 2.417 C 62.783 2.353,62.333 2.233,62.333 2.150 C 62.333 2.068,62.075 2.000,61.760 2.000 C 61.444 2.000,61.145 1.933,61.094 1.850 C 61.043 1.768,60.457 1.647,59.792 1.580 C 59.127 1.514,58.544 1.398,58.496 1.322 C 58.447 1.246,57.716 1.132,56.871 1.068 C 56.025 1.004,55.333 0.888,55.333 0.809 C 55.333 0.731,54.936 0.667,54.450 0.667 C 53.964 0.667,53.495 0.601,53.408 0.520 C 52.917 0.067,36.208 -0.167,29.917 0.192 M37.667 12.000 L 37.667 17.667 36.093 17.667 C 35.228 17.667,34.480 17.730,34.432 17.808 C 34.384 17.885,33.649 17.998,32.798 18.058 C 30.999 18.186,30.718 18.227,30.560 18.384 C 30.497 18.448,30.157 18.500,29.806 18.500 C 29.454 18.500,29.167 18.565,29.167 18.644 C 29.167 18.723,28.752 18.836,28.244 18.896 C 27.737 18.955,27.193 19.069,27.036 19.148 C 26.879 19.227,26.300 19.430,25.750 19.598 C 25.200 19.766,24.712 19.952,24.667 20.011 C 24.457 20.282,23.333 20.349,23.333 20.091 C 23.333 19.949,23.265 19.833,23.181 19.833 C 23.098 19.833,22.979 19.533,22.917 19.167 C 22.855 18.800,22.742 18.500,22.665 18.500 C 22.589 18.500,22.477 18.275,22.417 18.000 C 22.356 17.725,22.238 17.500,22.153 17.500 C 22.069 17.500,22.000 17.354,22.000 17.177 C 22.000 16.999,21.931 16.810,21.846 16.758 C 21.762 16.706,21.643 16.439,21.583 16.165 C 21.523 15.891,21.404 15.667,21.320 15.667 C 21.236 15.667,21.166 15.535,21.166 15.375 C 21.165 15.215,21.053 14.869,20.916 14.606 C 20.779 14.343,20.667 14.025,20.667 13.898 C 20.667 13.771,20.598 13.667,20.513 13.667 C 20.429 13.667,20.310 13.442,20.250 13.167 C 20.190 12.892,20.071 12.667,19.987 12.667 C 19.902 12.667,19.833 12.555,19.833 12.418 C 19.833 12.087,19.285 10.833,19.141 10.833 C 19.078 10.833,18.974 10.590,18.911 10.292 C 18.847 9.994,18.738 9.675,18.668 9.583 C 18.283 9.078,18.310 8.667,18.729 8.667 C 18.959 8.667,19.190 8.597,19.243 8.512 C 19.295 8.426,19.769 8.305,20.294 8.241 C 20.820 8.178,21.325 8.066,21.417 7.994 C 21.508 7.921,22.129 7.808,22.795 7.742 C 23.462 7.677,24.048 7.558,24.097 7.478 C 24.146 7.398,24.519 7.333,24.927 7.333 C 25.334 7.333,25.667 7.267,25.667 7.185 C 25.667 7.104,26.585 6.983,27.708 6.917 C 28.831 6.851,29.829 6.733,29.925 6.656 C 30.116 6.501,31.641 6.419,35.292 6.367 L 37.667 6.333 37.667 12.000 M50.575 6.654 C 50.671 6.731,51.631 6.848,52.709 6.914 C 53.786 6.979,54.709 7.101,54.760 7.183 C 54.811 7.266,55.174 7.333,55.565 7.333 C 55.957 7.333,56.334 7.390,56.403 7.458 C 56.472 7.527,56.578 7.589,56.639 7.595 C 58.216 7.764,59.021 7.898,59.085 8.003 C 59.130 8.075,59.616 8.186,60.167 8.250 C 60.717 8.314,61.209 8.434,61.260 8.516 C 61.311 8.599,61.526 8.667,61.737 8.667 C 62.056 8.667,62.107 8.736,62.041 9.083 C 61.997 9.313,61.895 9.500,61.814 9.500 C 61.733 9.500,61.666 9.594,61.666 9.708 C 61.665 9.823,61.560 10.118,61.431 10.364 C 61.303 10.610,61.148 11.041,61.086 11.322 C 61.024 11.603,60.922 11.833,60.859 11.833 C 60.715 11.833,60.167 13.087,60.167 13.418 C 60.167 13.555,60.100 13.667,60.019 13.667 C 59.937 13.667,59.821 13.929,59.761 14.250 C 59.701 14.571,59.598 14.833,59.533 14.833 C 59.394 14.833,59.066 15.556,58.908 16.208 C 58.847 16.460,58.734 16.667,58.656 16.667 C 58.579 16.667,58.466 16.929,58.406 17.250 C 58.345 17.571,58.230 17.833,58.148 17.833 C 58.067 17.833,58.000 17.983,58.000 18.167 C 58.000 18.350,57.925 18.500,57.833 18.500 C 57.742 18.500,57.667 18.574,57.667 18.665 C 57.667 19.522,56.938 20.450,56.395 20.283 C 56.086 20.188,55.833 20.048,55.833 19.972 C 55.833 19.896,55.646 19.833,55.417 19.833 C 55.188 19.833,55.000 19.767,55.000 19.686 C 55.000 19.604,54.663 19.487,54.250 19.425 C 53.837 19.364,53.500 19.252,53.500 19.178 C 53.500 19.104,53.032 18.990,52.460 18.925 C 51.888 18.861,51.344 18.749,51.252 18.676 C 51.159 18.604,50.783 18.498,50.417 18.440 C 50.050 18.382,49.375 18.264,48.917 18.177 C 48.458 18.091,47.652 18.015,47.125 18.010 C 46.598 18.004,46.167 17.925,46.167 17.833 C 46.167 17.733,45.500 17.667,44.500 17.667 L 42.833 17.667 42.833 11.974 L 42.833 6.281 46.616 6.398 C 48.697 6.461,50.478 6.577,50.575 6.654 M83.781 28.775 C 83.718 28.838,83.667 29.026,83.667 29.194 C 83.667 29.363,83.610 29.500,83.541 29.500 C 83.395 29.500,83.069 30.209,82.908 30.875 C 82.847 31.127,82.734 31.333,82.656 31.333 C 82.579 31.333,82.466 31.596,82.406 31.917 C 82.345 32.237,82.230 32.500,82.148 32.500 C 82.067 32.500,82.000 32.601,82.000 32.725 C 82.000 32.849,81.821 33.287,81.603 33.698 C 81.384 34.109,81.153 34.683,81.089 34.973 C 81.026 35.263,80.904 35.500,80.820 35.500 C 80.736 35.500,80.667 35.650,80.667 35.833 C 80.667 36.017,80.593 36.167,80.502 36.167 C 80.411 36.167,80.289 36.467,80.231 36.833 C 80.172 37.200,80.065 37.500,79.992 37.500 C 79.919 37.500,79.810 37.725,79.750 38.000 C 79.690 38.275,79.583 38.500,79.514 38.500 C 79.444 38.500,79.247 38.912,79.076 39.417 C 78.905 39.921,78.708 40.333,78.640 40.333 C 78.571 40.333,78.466 40.596,78.406 40.917 C 78.345 41.237,78.230 41.500,78.148 41.500 C 78.067 41.500,78.000 41.650,78.000 41.833 C 78.000 42.017,77.933 42.167,77.852 42.167 C 77.770 42.167,77.655 42.429,77.594 42.750 C 77.534 43.071,77.414 43.333,77.328 43.333 C 77.241 43.333,77.123 43.633,77.064 44.000 C 77.005 44.367,76.892 44.667,76.812 44.667 C 76.732 44.667,76.667 44.779,76.667 44.917 C 76.667 45.054,76.598 45.167,76.513 45.167 C 76.429 45.167,76.307 45.408,76.242 45.703 C 76.177 45.998,76.063 46.354,75.987 46.495 C 75.614 47.190,74.833 48.986,74.833 49.149 C 74.833 49.250,74.758 49.333,74.667 49.333 C 74.575 49.333,74.500 49.465,74.499 49.625 C 74.498 49.785,74.386 50.131,74.249 50.394 C 74.112 50.657,74.000 50.975,74.000 51.102 C 74.000 51.229,73.931 51.333,73.847 51.333 C 73.762 51.333,73.644 51.558,73.583 51.833 C 73.523 52.108,73.405 52.333,73.322 52.333 C 73.239 52.333,73.123 52.633,73.064 53.000 C 73.005 53.367,72.911 53.668,72.854 53.669 C 72.757 53.670,72.647 53.893,71.933 55.525 C 71.786 55.860,71.667 56.254,71.667 56.400 C 71.667 56.547,71.609 56.667,71.539 56.667 C 71.385 56.667,70.833 57.904,70.833 58.251 C 70.833 58.388,70.764 58.500,70.680 58.500 C 70.596 58.500,70.477 58.725,70.417 59.000 C 70.356 59.275,70.238 59.500,70.153 59.500 C 70.069 59.500,70.000 59.688,70.000 59.917 C 70.000 60.146,69.931 60.333,69.847 60.333 C 69.762 60.333,69.644 60.558,69.583 60.833 C 69.523 61.108,69.411 61.333,69.335 61.333 C 69.258 61.333,69.145 61.633,69.083 62.000 C 69.021 62.367,68.902 62.667,68.819 62.667 C 68.735 62.667,68.667 62.817,68.667 63.000 C 68.667 63.183,68.592 63.333,68.500 63.333 C 68.408 63.333,68.333 63.427,68.332 63.542 C 68.332 63.656,68.231 63.942,68.108 64.178 C 67.985 64.413,67.830 64.825,67.763 65.093 C 67.695 65.361,67.590 65.618,67.528 65.665 C 67.352 65.799,66.833 66.986,66.833 67.256 C 66.833 67.464,67.427 67.500,70.812 67.500 L 74.791 67.500 74.897 66.833 C 74.956 66.467,75.078 66.167,75.169 66.167 C 75.259 66.167,75.333 66.066,75.333 65.942 C 75.333 65.740,75.631 65.007,75.990 64.328 C 76.064 64.187,76.177 63.831,76.242 63.536 C 76.307 63.241,76.429 63.000,76.513 63.000 C 76.598 63.000,76.667 62.896,76.667 62.769 C 76.667 62.642,76.779 62.323,76.916 62.061 C 77.053 61.798,77.165 61.452,77.166 61.292 C 77.166 61.131,77.233 61.000,77.315 61.000 C 77.396 61.000,77.512 60.737,77.572 60.417 C 77.633 60.096,77.753 59.833,77.841 59.833 C 77.928 59.833,78.002 59.702,78.005 59.542 C 78.022 58.635,77.666 58.667,87.705 58.667 L 96.957 58.667 97.064 59.333 C 97.123 59.700,97.245 60.000,97.335 60.000 C 97.426 60.000,97.500 60.112,97.500 60.249 C 97.500 60.578,98.048 61.833,98.191 61.833 C 98.253 61.833,98.355 62.133,98.417 62.500 C 98.479 62.867,98.589 63.167,98.663 63.167 C 98.736 63.167,98.845 63.429,98.906 63.750 C 98.966 64.071,99.087 64.333,99.174 64.333 C 99.262 64.333,99.333 64.434,99.333 64.558 C 99.333 64.760,99.631 65.493,99.990 66.172 C 100.064 66.313,100.177 66.669,100.242 66.964 L 100.360 67.500 104.368 67.500 L 108.377 67.500 108.276 66.876 C 108.220 66.533,108.098 66.227,108.004 66.196 C 107.910 66.164,107.833 66.033,107.833 65.904 C 107.833 65.583,107.282 64.333,107.141 64.333 C 107.078 64.333,106.976 64.103,106.914 63.822 C 106.852 63.541,106.697 63.110,106.569 62.864 C 106.440 62.618,106.335 62.323,106.334 62.208 C 106.334 62.094,106.258 62.000,106.167 62.000 C 106.075 62.000,106.000 61.850,106.000 61.667 C 106.000 61.483,105.925 61.333,105.833 61.333 C 105.742 61.333,105.664 61.202,105.661 61.042 C 105.658 60.881,105.510 60.450,105.333 60.083 C 105.156 59.717,105.009 59.323,105.006 59.208 C 105.003 59.094,104.925 59.000,104.833 59.000 C 104.742 59.000,104.667 58.850,104.667 58.667 C 104.667 58.483,104.600 58.333,104.519 58.333 C 104.437 58.333,104.321 58.071,104.261 57.750 C 104.201 57.429,104.088 57.167,104.011 57.167 C 103.933 57.167,103.820 56.960,103.759 56.708 C 103.606 56.076,103.274 55.333,103.145 55.333 C 103.085 55.333,102.988 55.071,102.928 54.750 C 102.867 54.429,102.747 54.167,102.659 54.167 C 102.572 54.167,102.500 54.055,102.500 53.918 C 102.500 53.587,101.952 52.333,101.807 52.333 C 101.745 52.333,101.643 52.103,101.581 51.822 C 101.519 51.541,101.364 51.110,101.235 50.864 C 101.107 50.618,101.002 50.323,101.001 50.208 C 101.000 50.094,100.925 50.000,100.833 50.000 C 100.742 50.000,100.667 49.850,100.667 49.667 C 100.667 49.483,100.600 49.333,100.519 49.333 C 100.437 49.333,100.321 49.071,100.261 48.750 C 100.201 48.429,100.088 48.167,100.011 48.167 C 99.934 48.167,99.821 47.904,99.761 47.583 C 99.701 47.262,99.580 47.000,99.492 47.000 C 99.405 47.000,99.333 46.854,99.333 46.677 C 99.333 46.499,99.264 46.310,99.179 46.258 C 99.095 46.206,98.976 45.939,98.916 45.665 C 98.856 45.391,98.746 45.167,98.671 45.167 C 98.597 45.167,98.486 44.960,98.425 44.708 C 98.265 44.042,97.938 43.333,97.793 43.333 C 97.723 43.333,97.667 43.217,97.667 43.074 C 97.667 42.932,97.527 42.500,97.357 42.116 C 97.187 41.731,96.943 41.173,96.816 40.875 C 96.689 40.577,96.535 40.333,96.474 40.333 C 96.413 40.333,96.312 40.033,96.250 39.667 C 96.188 39.300,96.075 39.000,95.999 39.000 C 95.922 39.000,95.810 38.775,95.750 38.500 C 95.690 38.225,95.571 38.000,95.487 38.000 C 95.402 38.000,95.333 37.854,95.333 37.677 C 95.333 37.499,95.264 37.310,95.179 37.258 C 95.095 37.206,94.976 36.939,94.916 36.665 C 94.856 36.391,94.738 36.167,94.653 36.167 C 94.569 36.167,94.500 36.047,94.500 35.900 C 94.500 35.612,94.005 34.469,93.821 34.333 C 93.759 34.287,93.656 34.006,93.591 33.708 C 93.526 33.410,93.404 33.167,93.320 33.167 C 93.236 33.167,93.167 33.047,93.167 32.900 C 93.167 32.614,92.673 31.471,92.489 31.333 C 92.428 31.287,92.325 31.063,92.259 30.833 C 92.130 30.382,91.733 29.401,91.516 29.000 C 91.373 28.735,84.034 28.521,83.781 28.775 M111.667 48.083 L 111.667 67.500 115.500 67.500 L 119.333 67.500 119.333 61.917 L 119.333 56.333 124.149 56.333 L 128.964 56.333 129.068 56.750 C 129.126 56.979,129.247 57.167,129.337 57.167 C 129.426 57.167,129.500 57.250,129.500 57.351 C 129.500 57.452,129.725 57.819,130.000 58.167 C 130.275 58.514,130.500 58.881,130.500 58.982 C 130.500 59.084,130.570 59.167,130.655 59.167 C 130.741 59.167,130.853 59.298,130.904 59.458 C 130.956 59.619,131.186 59.968,131.416 60.234 C 131.645 60.501,131.833 60.811,131.833 60.925 C 131.833 61.038,131.946 61.174,132.083 61.227 C 132.221 61.280,132.333 61.410,132.333 61.517 C 132.333 61.624,132.473 61.832,132.643 61.980 C 132.813 62.129,133.006 62.419,133.071 62.625 C 133.136 62.831,133.259 63.000,133.345 63.000 C 133.430 63.000,133.500 63.075,133.500 63.166 C 133.500 63.307,134.635 64.977,135.166 65.618 C 135.258 65.729,135.333 65.897,135.333 65.993 C 135.333 66.089,135.403 66.167,135.489 66.167 C 135.574 66.167,135.694 66.324,135.755 66.516 C 136.062 67.482,136.149 67.500,140.597 67.500 C 142.851 67.500,144.667 67.444,144.634 67.375 C 144.178 66.440,144.047 66.204,143.833 65.933 C 143.696 65.759,143.452 65.478,143.292 65.308 C 143.131 65.139,143.000 64.940,143.000 64.867 C 143.000 64.736,142.779 64.422,142.042 63.503 C 141.835 63.246,141.667 62.950,141.667 62.846 C 141.667 62.741,141.561 62.616,141.432 62.566 C 141.302 62.516,141.151 62.294,141.095 62.071 C 141.039 61.849,140.920 61.667,140.830 61.667 C 140.740 61.667,140.667 61.554,140.667 61.417 C 140.667 61.279,140.605 61.167,140.531 61.167 C 140.456 61.167,140.226 60.867,140.020 60.500 C 139.814 60.133,139.575 59.833,139.489 59.833 C 139.404 59.833,139.333 59.721,139.333 59.583 C 139.333 59.446,139.260 59.333,139.170 59.333 C 139.080 59.333,138.959 59.146,138.902 58.917 C 138.844 58.688,138.747 58.500,138.686 58.500 C 138.626 58.500,138.434 58.237,138.262 57.917 C 138.089 57.596,137.884 57.333,137.807 57.333 C 137.730 57.333,137.667 57.218,137.667 57.078 C 137.667 56.938,137.554 56.780,137.417 56.727 C 137.279 56.674,137.167 56.530,137.167 56.406 C 137.167 56.283,136.988 56.003,136.770 55.785 C 136.103 55.118,136.066 54.715,136.660 54.585 C 136.939 54.524,137.167 54.413,137.167 54.338 C 137.167 54.264,137.337 54.160,137.545 54.108 C 137.753 54.056,138.087 53.860,138.288 53.673 C 138.489 53.486,138.731 53.333,138.826 53.333 C 139.053 53.333,141.667 50.720,141.667 50.493 C 141.667 50.398,141.820 50.155,142.006 49.955 C 142.193 49.754,142.389 49.420,142.441 49.212 C 142.493 49.004,142.596 48.833,142.670 48.833 C 142.744 48.833,142.855 48.533,142.917 48.167 C 142.979 47.800,143.098 47.500,143.181 47.500 C 143.265 47.500,143.333 47.328,143.333 47.117 C 143.333 46.906,143.427 46.640,143.542 46.525 C 143.696 46.370,143.750 45.324,143.750 42.464 C 143.750 39.530,143.700 38.595,143.542 38.542 C 143.427 38.503,143.333 38.253,143.333 37.986 C 143.333 37.719,143.258 37.500,143.167 37.500 C 143.075 37.500,143.000 37.388,143.000 37.252 C 143.000 36.895,142.296 35.333,142.135 35.333 C 142.061 35.333,142.000 35.221,142.000 35.083 C 142.000 34.946,141.930 34.833,141.845 34.833 C 141.759 34.833,141.637 34.669,141.573 34.468 C 141.441 34.052,139.285 31.833,139.013 31.833 C 138.914 31.833,138.833 31.776,138.833 31.705 C 138.833 31.634,138.477 31.390,138.042 31.163 C 137.606 30.936,137.212 30.712,137.167 30.667 C 136.920 30.420,135.985 30.000,135.683 30.000 C 135.491 30.000,135.333 29.928,135.333 29.839 C 135.333 29.751,134.958 29.628,134.500 29.568 C 134.042 29.507,133.667 29.400,133.667 29.330 C 133.667 29.260,133.423 29.161,133.125 29.109 C 132.827 29.056,132.171 28.941,131.667 28.852 C 131.153 28.762,126.560 28.686,121.208 28.679 L 111.667 28.667 111.667 48.083 M148.167 48.083 L 148.167 67.500 162.583 67.500 L 177.000 67.500 177.000 64.333 L 177.000 61.167 166.333 61.167 L 155.667 61.167 155.667 56.083 L 155.667 51.000 164.833 51.000 L 174.000 51.000 174.000 47.833 L 174.000 44.667 164.833 44.667 L 155.667 44.667 155.667 39.833 L 155.667 35.000 165.917 35.000 L 176.167 35.000 176.167 31.833 L 176.167 28.667 162.167 28.667 L 148.167 28.667 148.167 48.083 M181.000 48.083 L 181.000 67.500 184.833 67.500 L 188.667 67.500 188.667 55.000 C 188.667 48.125,188.725 42.500,188.796 42.500 C 188.958 42.500,189.500 43.122,189.500 43.308 C 189.500 43.383,189.725 43.645,190.000 43.890 C 190.275 44.135,190.500 44.420,190.500 44.523 C 190.500 44.626,190.762 44.958,191.083 45.261 C 191.404 45.563,191.667 45.885,191.667 45.976 C 191.667 46.067,191.892 46.366,192.167 46.641 C 192.442 46.916,192.667 47.190,192.667 47.250 C 192.667 47.310,192.892 47.584,193.167 47.859 C 193.442 48.134,193.667 48.417,193.667 48.487 C 193.667 48.558,193.929 48.886,194.250 49.216 C 194.571 49.547,194.833 49.890,194.833 49.980 C 194.833 50.069,195.005 50.279,195.214 50.446 C 195.423 50.613,195.756 51.012,195.953 51.333 C 196.151 51.654,196.467 52.027,196.656 52.162 C 196.845 52.297,197.000 52.497,197.000 52.607 C 197.000 52.718,197.225 53.033,197.500 53.308 C 197.775 53.583,198.000 53.857,198.000 53.917 C 198.000 53.977,198.225 54.251,198.500 54.526 C 198.775 54.801,199.000 55.083,199.000 55.154 C 199.000 55.224,199.262 55.552,199.583 55.883 C 199.904 56.213,200.167 56.557,200.167 56.646 C 200.167 56.736,200.338 56.946,200.547 57.113 C 200.756 57.280,201.089 57.679,201.287 58.000 C 201.484 58.321,201.801 58.694,201.990 58.828 C 202.179 58.963,202.333 59.164,202.333 59.274 C 202.333 59.384,202.558 59.699,202.833 59.974 C 203.108 60.249,203.333 60.521,203.333 60.579 C 203.333 60.636,203.596 60.953,203.917 61.284 C 204.237 61.614,204.500 61.942,204.500 62.013 C 204.500 62.083,204.725 62.366,205.000 62.641 C 205.275 62.916,205.500 63.216,205.500 63.308 C 205.500 63.400,205.671 63.613,205.880 63.780 C 206.090 63.947,206.422 64.346,206.620 64.667 C 206.818 64.987,207.134 65.360,207.323 65.495 C 207.512 65.630,207.667 65.817,207.667 65.912 C 207.668 66.006,207.893 66.323,208.167 66.616 C 208.442 66.909,208.667 67.228,208.667 67.324 C 208.667 67.442,209.775 67.500,212.000 67.500 L 215.333 67.500 215.333 48.083 L 215.333 28.667 211.583 28.667 L 207.833 28.667 207.833 41.351 L 207.833 54.035 207.375 53.536 C 207.123 53.261,206.804 52.869,206.667 52.665 C 206.529 52.460,206.323 52.195,206.208 52.075 C 206.094 51.955,206.000 51.817,206.000 51.768 C 206.000 51.718,205.794 51.460,205.542 51.194 C 205.290 50.927,204.896 50.467,204.667 50.170 C 204.438 49.874,204.156 49.533,204.042 49.411 C 203.927 49.290,203.833 49.150,203.833 49.101 C 203.833 49.052,203.627 48.795,203.375 48.530 C 203.123 48.266,202.804 47.878,202.667 47.668 C 202.529 47.459,202.248 47.114,202.042 46.901 C 201.835 46.689,201.667 46.440,201.667 46.349 C 201.667 46.258,201.571 46.123,201.454 46.050 C 201.337 45.977,200.982 45.579,200.665 45.167 C 200.348 44.754,200.012 44.336,199.919 44.238 C 199.826 44.139,199.563 43.814,199.333 43.515 C 199.104 43.216,198.823 42.871,198.708 42.748 C 198.594 42.624,198.497 42.462,198.493 42.387 C 198.489 42.312,198.264 42.066,197.993 41.841 C 197.722 41.616,197.500 41.369,197.500 41.292 C 197.500 41.143,197.310 40.893,196.708 40.250 C 196.502 40.029,196.333 39.774,196.333 39.683 C 196.333 39.591,196.238 39.457,196.121 39.383 C 196.003 39.310,195.647 38.914,195.329 38.503 C 194.561 37.512,194.395 37.314,193.731 36.597 C 193.420 36.263,193.167 35.917,193.167 35.829 C 193.167 35.741,192.942 35.455,192.667 35.192 C 192.392 34.929,192.167 34.646,192.167 34.564 C 192.167 34.356,191.356 33.500,191.160 33.500 C 191.072 33.500,191.000 33.390,191.000 33.256 C 191.000 33.121,190.783 32.790,190.518 32.519 C 190.253 32.247,190.009 31.951,189.977 31.859 C 189.903 31.653,189.098 30.666,188.389 29.912 C 188.099 29.603,187.812 29.196,187.753 29.008 C 187.648 28.679,187.525 28.667,184.322 28.667 L 181.000 28.667 181.000 48.083 M234.447 28.775 C 234.385 28.838,234.333 29.026,234.333 29.194 C 234.333 29.363,234.258 29.500,234.167 29.500 C 234.075 29.500,234.000 29.613,234.000 29.750 C 234.000 29.887,233.932 30.000,233.848 30.000 C 233.764 30.000,233.645 30.300,233.583 30.667 C 233.521 31.033,233.408 31.333,233.332 31.333 C 233.256 31.333,233.144 31.558,233.083 31.833 C 233.023 32.108,232.904 32.333,232.820 32.333 C 232.736 32.333,232.667 32.479,232.667 32.657 C 232.667 32.835,232.597 33.023,232.513 33.075 C 232.428 33.128,232.310 33.395,232.250 33.669 C 232.189 33.943,232.079 34.167,232.005 34.167 C 231.931 34.167,231.821 34.429,231.761 34.750 C 231.701 35.071,231.580 35.333,231.492 35.333 C 231.405 35.333,231.333 35.521,231.333 35.750 C 231.333 35.979,231.264 36.167,231.180 36.167 C 231.096 36.167,230.977 36.392,230.917 36.667 C 230.856 36.942,230.744 37.167,230.668 37.167 C 230.592 37.167,230.479 37.467,230.417 37.833 C 230.355 38.200,230.254 38.501,230.194 38.502 C 230.096 38.504,229.705 39.290,229.326 40.250 C 229.253 40.433,229.004 40.996,228.771 41.500 C 228.539 42.004,228.300 42.623,228.240 42.875 C 228.180 43.127,228.070 43.333,227.995 43.333 C 227.921 43.333,227.810 43.558,227.750 43.833 C 227.690 44.108,227.571 44.333,227.487 44.333 C 227.402 44.333,227.333 44.521,227.333 44.750 C 227.333 44.979,227.264 45.167,227.180 45.167 C 227.096 45.167,226.977 45.392,226.917 45.667 C 226.856 45.942,226.744 46.167,226.668 46.167 C 226.592 46.167,226.479 46.467,226.417 46.833 C 226.355 47.200,226.236 47.500,226.152 47.500 C 226.068 47.500,226.000 47.650,226.000 47.833 C 226.000 48.017,225.925 48.167,225.833 48.167 C 225.742 48.167,225.666 48.260,225.666 48.375 C 225.665 48.490,225.560 48.785,225.431 49.030 C 225.303 49.276,225.148 49.708,225.086 49.989 C 225.024 50.270,224.922 50.500,224.859 50.500 C 224.715 50.500,224.167 51.753,224.167 52.084 C 224.167 52.221,224.092 52.333,224.000 52.333 C 223.908 52.333,223.833 52.415,223.833 52.515 C 223.833 52.614,223.608 53.182,223.333 53.776 C 223.058 54.370,222.833 54.964,222.833 55.095 C 222.833 55.226,222.759 55.333,222.669 55.333 C 222.578 55.333,222.456 55.633,222.397 56.000 C 222.339 56.367,222.225 56.667,222.145 56.667 C 222.065 56.667,222.000 56.779,222.000 56.917 C 222.000 57.054,221.928 57.167,221.841 57.167 C 221.753 57.167,221.633 57.429,221.572 57.750 C 221.512 58.071,221.405 58.333,221.333 58.333 C 221.262 58.333,221.155 58.596,221.094 58.917 C 221.034 59.237,220.913 59.500,220.826 59.500 C 220.738 59.500,220.667 59.650,220.667 59.833 C 220.667 60.017,220.595 60.167,220.508 60.167 C 220.420 60.167,220.299 60.429,220.239 60.750 C 220.179 61.071,220.071 61.333,220.000 61.333 C 219.929 61.333,219.822 61.590,219.763 61.905 C 219.704 62.219,219.580 62.501,219.487 62.532 C 219.394 62.563,219.306 62.756,219.290 62.961 C 219.275 63.166,219.209 63.333,219.144 63.333 C 219.080 63.333,218.977 63.558,218.917 63.833 C 218.856 64.108,218.744 64.333,218.667 64.333 C 218.590 64.333,218.473 64.575,218.409 64.870 C 218.285 65.432,218.007 66.016,217.786 66.180 C 217.714 66.233,217.610 66.552,217.556 66.888 L 217.456 67.500 221.240 67.500 C 225.318 67.500,225.371 67.489,225.594 66.602 C 225.654 66.361,225.770 66.122,225.852 66.072 C 225.933 66.022,226.000 65.835,226.000 65.657 C 226.000 65.479,226.074 65.333,226.165 65.333 C 226.255 65.333,226.377 65.033,226.436 64.667 C 226.495 64.300,226.592 64.000,226.653 64.000 C 226.714 64.000,226.905 63.587,227.076 63.083 C 227.247 62.579,227.449 62.167,227.525 62.167 C 227.601 62.167,227.711 61.867,227.769 61.500 C 227.828 61.133,227.935 60.833,228.008 60.833 C 228.081 60.833,228.189 60.609,228.250 60.335 C 228.310 60.061,228.428 59.794,228.513 59.742 C 228.597 59.690,228.667 59.534,228.667 59.395 C 228.667 58.666,228.653 58.667,238.218 58.667 C 247.969 58.667,247.525 58.626,247.755 59.543 C 247.818 59.794,247.927 60.000,247.997 60.000 C 248.067 60.000,248.172 60.300,248.231 60.667 C 248.289 61.033,248.411 61.333,248.502 61.333 C 248.593 61.333,248.667 61.446,248.667 61.583 C 248.667 61.721,248.732 61.833,248.812 61.833 C 248.892 61.833,249.005 62.133,249.064 62.500 C 249.123 62.867,249.238 63.167,249.321 63.167 C 249.403 63.167,249.521 63.467,249.583 63.833 C 249.645 64.200,249.764 64.500,249.848 64.500 C 249.932 64.500,250.000 64.650,250.000 64.833 C 250.000 65.017,250.075 65.167,250.167 65.167 C 250.258 65.167,250.336 65.298,250.339 65.458 C 250.342 65.619,250.490 66.050,250.667 66.417 C 250.844 66.783,250.991 67.177,250.994 67.292 C 250.999 67.452,251.918 67.500,255.022 67.500 L 259.044 67.500 258.944 66.888 C 258.890 66.552,258.773 66.233,258.686 66.178 C 258.598 66.124,258.475 65.874,258.412 65.623 C 258.349 65.372,258.230 65.167,258.149 65.167 C 258.067 65.167,258.000 64.979,258.000 64.750 C 258.000 64.521,257.931 64.333,257.847 64.333 C 257.762 64.333,257.644 64.108,257.583 63.833 C 257.523 63.558,257.404 63.333,257.320 63.333 C 257.236 63.333,257.165 63.202,257.163 63.042 C 257.161 62.881,256.938 62.300,256.667 61.750 C 256.396 61.200,256.172 60.656,256.170 60.542 C 256.168 60.427,256.098 60.333,256.015 60.333 C 255.931 60.333,255.812 60.033,255.750 59.667 C 255.688 59.300,255.569 59.000,255.485 59.000 C 255.402 59.000,255.333 58.887,255.333 58.750 C 255.333 58.612,255.258 58.500,255.167 58.500 C 255.075 58.500,255.000 58.383,255.000 58.241 C 255.000 58.001,254.790 57.471,254.013 55.750 C 253.848 55.383,253.548 54.708,253.346 54.250 C 253.144 53.792,252.909 53.286,252.823 53.127 C 252.737 52.968,252.667 52.724,252.667 52.586 C 252.667 52.447,252.598 52.333,252.513 52.333 C 252.429 52.333,252.310 52.108,252.250 51.833 C 252.190 51.558,252.071 51.333,251.987 51.333 C 251.902 51.333,251.833 51.160,251.833 50.949 C 251.833 50.737,251.723 50.418,251.589 50.240 C 251.454 50.062,251.342 49.785,251.339 49.625 C 251.336 49.465,251.262 49.333,251.174 49.333 C 251.087 49.333,250.966 49.071,250.906 48.750 C 250.845 48.429,250.733 48.167,250.656 48.167 C 250.578 48.167,250.466 47.904,250.406 47.583 C 250.345 47.262,250.230 47.000,250.148 47.000 C 250.067 47.000,250.000 46.887,250.000 46.750 C 250.000 46.612,249.935 46.500,249.855 46.500 C 249.775 46.500,249.661 46.200,249.603 45.833 C 249.544 45.467,249.428 45.167,249.345 45.167 C 249.261 45.167,249.144 44.943,249.084 44.669 C 249.024 44.395,248.905 44.128,248.821 44.075 C 248.736 44.023,248.667 43.835,248.667 43.657 C 248.667 43.479,248.592 43.333,248.500 43.333 C 248.408 43.333,248.333 43.254,248.333 43.158 C 248.333 42.978,247.784 41.649,247.494 41.127 C 247.406 40.968,247.333 40.724,247.333 40.586 C 247.333 40.447,247.264 40.333,247.180 40.333 C 247.096 40.333,246.977 40.108,246.917 39.833 C 246.856 39.558,246.744 39.333,246.668 39.333 C 246.592 39.333,246.479 39.033,246.417 38.667 C 246.355 38.300,246.236 38.000,246.152 38.000 C 246.068 38.000,246.000 37.887,246.000 37.750 C 246.000 37.612,245.932 37.500,245.848 37.500 C 245.764 37.500,245.645 37.200,245.583 36.833 C 245.521 36.467,245.406 36.167,245.326 36.167 C 245.247 36.167,245.133 35.904,245.072 35.583 C 245.012 35.262,244.896 35.000,244.815 35.000 C 244.733 35.000,244.667 34.887,244.667 34.750 C 244.667 34.612,244.601 34.500,244.521 34.500 C 244.441 34.500,244.328 34.200,244.269 33.833 C 244.211 33.467,244.095 33.167,244.011 33.167 C 243.928 33.167,243.810 32.942,243.750 32.667 C 243.690 32.392,243.571 32.167,243.487 32.167 C 243.402 32.167,243.333 31.979,243.333 31.750 C 243.333 31.521,243.264 31.333,243.180 31.333 C 243.096 31.333,242.974 31.090,242.909 30.792 C 242.844 30.494,242.741 30.212,242.679 30.167 C 242.617 30.121,242.454 29.783,242.318 29.417 L 242.070 28.750 238.316 28.705 C 236.251 28.681,234.510 28.712,234.447 28.775 M127.401 35.141 C 127.449 35.219,128.296 35.328,129.283 35.384 C 130.290 35.441,131.104 35.562,131.137 35.660 C 131.168 35.755,131.299 35.833,131.426 35.833 C 131.801 35.833,133.446 36.664,133.762 37.013 C 133.921 37.189,134.153 37.333,134.276 37.333 C 134.399 37.333,134.500 37.411,134.500 37.507 C 134.500 37.671,134.630 37.859,135.125 38.411 C 135.240 38.538,135.333 38.723,135.333 38.821 C 135.333 38.920,135.405 39.000,135.492 39.000 C 135.580 39.000,135.703 39.281,135.766 39.625 C 135.830 39.969,135.955 40.298,136.045 40.356 C 136.625 40.733,136.082 45.556,135.375 46.304 C 135.260 46.425,135.167 46.586,135.167 46.662 C 135.167 46.855,133.648 48.333,133.449 48.333 C 133.360 48.333,133.203 48.435,133.102 48.559 C 132.879 48.832,131.623 49.333,131.163 49.333 C 130.982 49.333,130.833 49.408,130.833 49.500 C 130.833 49.592,130.533 49.667,130.167 49.667 C 129.800 49.667,129.500 49.742,129.500 49.833 C 129.500 49.941,127.694 50.000,124.417 50.000 L 119.333 50.000 119.333 42.500 L 119.333 35.000 123.323 35.000 C 125.518 35.000,127.353 35.064,127.401 35.141 M88.027 38.000 C 88.202 38.412,88.417 38.880,88.506 39.039 C 88.594 39.199,88.667 39.442,88.667 39.581 C 88.667 39.720,88.736 39.833,88.820 39.833 C 88.904 39.833,89.024 40.063,89.086 40.345 C 89.148 40.626,89.303 41.057,89.431 41.303 C 89.560 41.549,89.665 41.844,89.666 41.958 C 89.666 42.073,89.742 42.167,89.833 42.167 C 89.925 42.167,90.000 42.354,90.000 42.583 C 90.000 42.813,90.069 43.000,90.153 43.000 C 90.238 43.000,90.356 43.225,90.417 43.500 C 90.477 43.775,90.586 44.000,90.659 44.000 C 90.731 44.000,90.839 44.300,90.897 44.667 C 90.956 45.033,91.078 45.333,91.169 45.333 C 91.259 45.333,91.333 45.437,91.333 45.564 C 91.333 45.691,91.445 46.010,91.582 46.273 C 91.719 46.535,91.832 46.881,91.832 47.042 C 91.833 47.202,91.908 47.333,92.000 47.333 C 92.092 47.333,92.167 47.445,92.167 47.582 C 92.167 47.912,92.714 49.167,92.858 49.167 C 92.920 49.167,93.021 49.467,93.083 49.833 C 93.145 50.200,93.256 50.500,93.330 50.500 C 93.404 50.500,93.514 50.706,93.575 50.958 C 93.735 51.624,94.062 52.333,94.207 52.333 C 94.277 52.333,94.333 52.408,94.333 52.500 C 94.333 52.608,92.001 52.667,87.671 52.667 L 81.008 52.667 81.114 52.125 C 81.172 51.827,81.280 51.559,81.354 51.530 C 81.429 51.500,81.538 51.219,81.597 50.905 C 81.656 50.590,81.770 50.333,81.852 50.333 C 81.933 50.333,82.000 50.183,82.000 50.000 C 82.000 49.817,82.074 49.667,82.165 49.667 C 82.255 49.667,82.377 49.367,82.436 49.000 C 82.495 48.633,82.605 48.333,82.680 48.333 C 82.756 48.333,82.867 48.071,82.928 47.750 C 82.988 47.429,83.104 47.167,83.185 47.167 C 83.267 47.167,83.333 47.017,83.333 46.833 C 83.333 46.650,83.402 46.500,83.487 46.500 C 83.571 46.500,83.691 46.270,83.752 45.989 C 83.814 45.708,83.970 45.276,84.098 45.030 C 84.226 44.785,84.332 44.452,84.332 44.292 C 84.333 44.131,84.408 44.000,84.500 44.000 C 84.592 44.000,84.667 43.886,84.667 43.748 C 84.667 43.609,84.737 43.365,84.823 43.206 C 85.180 42.543,85.480 41.806,85.583 41.335 C 85.644 41.059,85.762 40.833,85.847 40.833 C 85.931 40.833,86.000 40.646,86.000 40.417 C 86.000 40.188,86.069 40.000,86.153 40.000 C 86.238 40.000,86.356 39.775,86.417 39.500 C 86.477 39.225,86.586 39.000,86.659 39.000 C 86.731 39.000,86.839 38.700,86.897 38.333 C 86.956 37.967,87.070 37.667,87.151 37.667 C 87.231 37.667,87.352 37.460,87.419 37.208 C 87.500 36.903,87.569 36.833,87.625 37.000 C 87.672 37.137,87.853 37.587,88.027 38.000 M238.428 37.417 C 238.488 37.737,238.604 38.000,238.685 38.000 C 238.767 38.000,238.833 38.120,238.833 38.266 C 238.833 38.551,239.326 39.695,239.509 39.833 C 239.569 39.879,239.670 40.198,239.734 40.542 C 239.797 40.885,239.912 41.167,239.989 41.167 C 240.067 41.167,240.180 41.373,240.241 41.625 C 240.396 42.264,240.726 43.000,240.859 43.000 C 240.921 43.000,241.021 43.300,241.083 43.667 C 241.145 44.033,241.249 44.333,241.313 44.333 C 241.378 44.333,241.571 44.746,241.743 45.250 C 241.914 45.754,242.116 46.167,242.192 46.167 C 242.267 46.167,242.377 46.467,242.436 46.833 C 242.495 47.200,242.602 47.500,242.675 47.500 C 242.747 47.500,242.856 47.724,242.916 47.998 C 242.976 48.272,243.095 48.539,243.179 48.591 C 243.264 48.644,243.333 48.832,243.333 49.010 C 243.333 49.188,243.400 49.333,243.481 49.333 C 243.563 49.333,243.679 49.596,243.739 49.917 C 243.799 50.237,243.920 50.500,244.008 50.500 C 244.095 50.500,244.167 50.631,244.168 50.792 C 244.168 50.952,244.281 51.298,244.418 51.561 C 244.555 51.823,244.667 52.136,244.667 52.255 C 244.667 52.375,244.760 52.510,244.875 52.556 C 244.990 52.603,242.055 52.646,238.354 52.654 L 231.625 52.667 231.732 52.133 C 231.790 51.840,231.905 51.559,231.987 51.508 C 232.069 51.457,232.189 51.135,232.253 50.791 C 232.318 50.448,232.419 50.167,232.478 50.167 C 232.607 50.167,232.939 49.424,233.092 48.792 C 233.153 48.540,233.269 48.333,233.349 48.333 C 233.430 48.333,233.544 48.033,233.603 47.667 C 233.661 47.300,233.756 47.000,233.814 47.000 C 233.941 47.000,234.274 46.252,234.425 45.625 C 234.486 45.373,234.596 45.167,234.670 45.167 C 234.744 45.167,234.855 44.867,234.917 44.500 C 234.979 44.133,235.098 43.833,235.181 43.833 C 235.265 43.833,235.333 43.683,235.333 43.500 C 235.333 43.317,235.405 43.167,235.492 43.167 C 235.580 43.167,235.701 42.904,235.761 42.583 C 235.821 42.262,235.930 42.000,236.004 42.000 C 236.077 42.000,236.188 41.700,236.250 41.333 C 236.312 40.967,236.431 40.667,236.515 40.667 C 236.598 40.667,236.667 40.517,236.667 40.333 C 236.667 40.150,236.741 40.000,236.831 40.000 C 236.922 40.000,237.044 39.700,237.103 39.333 C 237.161 38.967,237.259 38.667,237.320 38.667 C 237.381 38.667,237.571 38.254,237.743 37.750 C 238.104 36.686,238.275 36.603,238.428 37.417 " stroke="none" fill="#04ac84" fill-rule="evenodd"></path><path id="path2" d="" stroke="none" fill="#100d4c0" fill-rule="evenodd"></path><path id="path3" d="" stroke="none" fill="#44d4c0" fill-rule="evenodd"></path><path id="path4" d="" stroke="none" fill="#04d4c4" fill-rule="evenodd"></path></g></svg>